<?xml version="1.0" encoding="utf-8"?>
<!-- Generator: Adobe Illustrator 16.0.0, SVG Export Plug-In . SVG Version: 6.00 Build 0)  -->
<!DOCTYPE svg PUBLIC "-//W3C//DTD SVG 1.1//EN" "http://www.w3.org/Graphics/SVG/1.1/DTD/svg11.dtd">
<svg version="1.1" xmlns="http://www.w3.org/2000/svg" xmlns:xlink="http://www.w3.org/1999/xlink" x="0px" y="0px"
	 width="31.957px" height="35.333px" viewBox="0 0 31.957 35.333" enable-background="new 0 0 31.957 35.333" xml:space="preserve">
<g id="SHIPS_LOGOS">
	<g id="Simplified_logos_copy_2">
		<g id="Layer_37_copy_2">
			<g id="Mono_left_copy_3">
			</g>
		</g>
	</g>
	<g id="RW_x5F_left1_copy_2_1_">
	</g>
	<g id="Monocrhome_-left_copy_2_1_">
	</g>
</g>
<g id="Color_Right">
</g>
<g id="RW_x5F_left_Color">
	<g>
		<text transform="matrix(1 0 0 1 27.0283 3.1821)"><tspan x="0" y="0" fill="#224168" font-family="'HelveticaNeue-Bold'" font-size="4.943"> </tspan><tspan x="1.127" y="0" fill="#224168" font-family="'HelveticaNeue-Bold'" font-size="4.943"> </tspan></text>
		<g>
			<polyline fill="#231F20" points="24.459,29.769 22.75,8.29 23.861,29.453 			"/>
			<polyline fill="#231F20" points="19.461,27.257 18.497,2.598 18.978,26.901 			"/>
			<polyline fill="#231F20" points="15.401,27.34 18.418,2.796 14.979,26.934 			"/>
			<polyline fill="#231F20" points="20.641,29.113 22.647,8.105 20.093,28.731 			"/>
			<path fill="#FFFFFF" d="M21.696,10.803c0,0,2.345,14.349,1.235,16.191l-8.044-2.518C14.888,24.477,21.422,14.331,21.696,10.803"
				/>
			<path fill="#FFFFFF" d="M22.661,8.42c0,0,5.652,6.198,4.703,19.829c0,0-3.3,0.109-5.237-0.767
				C22.127,27.481,24.305,10.554,22.661,8.42"/>
			<polyline fill="#231F20" points="24.459,29.769 22.75,8.29 23.861,29.453 			"/>
			<polyline fill="#231F20" points="19.461,27.257 18.571,1.118 18.979,26.881 			"/>
			<polyline fill="#231F20" points="15.54,27.357 18.559,1.286 15.114,26.938 			"/>
			<polyline fill="#231F20" points="20.641,29.113 22.647,8.105 20.093,28.731 			"/>
			<path fill="#FFFFFF" d="M18.196,3.293L18.5,18.406c1.562-2.838,3.068-5.95,3.196-7.603c0,0,0.773,4.733,1.222,9.112
				c0.401-4.807,0.638-10.336-0.257-11.496c0,0,5.652,6.198,4.703,19.829c0,0-3.3,0.109-5.237-0.767c0,0,0.033-0.257,0.088-0.712
				l-3.569-1.115l0.009,0.435c-2.309,0.39-14.592-2.567-14.592-2.567C7.933,23.418,20.533-1.454,18.196,3.293"/>
			<path fill="#231F20" d="M22.094,27.556l-0.055-0.025l0.007-0.06c0,0,0.031-0.231,0.08-0.644l-3.396-1.062l0.007,0.392
				l-0.069,0.012c-0.144,0.024-0.329,0.037-0.551,0.037l0,0c-3.217,0-13.967-2.58-14.075-2.604l0.018-0.162
				c2.501-0.066,8.891-10.812,13.812-19.816c0.554-1.012,0.554-1.012,0.611-1.012l0.045,0l0.024,0.038
				c0.028,0.046,0.028,0.047-0.273,0.663L18.575,18.1c1.887-3.458,2.938-5.98,3.041-7.303l0.16-0.007
				c0.008,0.044,0.681,4.179,1.131,8.253c0.47-6.05,0.363-9.699-0.31-10.574l0.124-0.104c0.015,0.016,1.438,1.598,2.724,4.828
				c2.145,5.392,2.271,11.167,2,15.062l-0.005,0.073l-0.073,0.002c0,0-0.134,0.005-0.363,0.005
				C26.044,28.334,23.646,28.258,22.094,27.556z M25.297,13.262c-0.854-2.148-1.768-3.562-2.281-4.264
				c0.465,1.561,0.459,5.224-0.017,10.924l-0.161,0.001c-0.357-3.48-0.924-7.222-1.137-8.579c-0.297,1.476-1.346,3.859-3.13,7.1
				l-0.146,0.265L18.119,3.507C18.085,3.569,18.05,3.634,18.013,3.7C11.236,16.101,6.676,22.763,4.443,23.528
				c1.91,0.451,10.812,2.515,13.674,2.515c0.178,0,0.33-0.009,0.455-0.024l-0.01-0.477l3.741,1.17l-0.009,0.067
				c-0.039,0.327-0.067,0.551-0.08,0.653c1.526,0.667,3.852,0.739,4.789,0.739c0.127,0,0.224-0.001,0.284-0.002
				C27.764,21.187,26.469,16.211,25.297,13.262z"/>
			<path fill="#FFFFFF" d="M17.354,26.762l3.243,0.3l0.05,0.418c0,0-0.302-0.099-0.302,0.159c0,0.258-0.1,1.316,0.504,1.355
				c0.603,0.04,4.297,0.04,4.297,0.04s0.025,0.779,1.006,0.638l0.729,0.378l-8.521,0.338c0,0-1.936-2.769-1.534-2.948
				C17.23,27.259,17.354,26.762,17.354,26.762"/>
			<path fill="#231F20" d="M18.295,30.436c-0.289-0.413-1.722-2.497-1.594-2.956c0.019-0.067,0.061-0.099,0.093-0.113
				c0.361-0.163,0.48-0.62,0.482-0.624l0.017-0.067l3.378,0.312l0.072,0.608l-0.12-0.04c-0.001,0-0.046-0.014-0.096-0.014
				c-0.083,0-0.101,0.036-0.101,0.097c0,0.027-0.001,0.063-0.001,0.104c-0.01,0.341-0.035,1.14,0.429,1.169
				c0.594,0.04,4.255,0.041,4.292,0.041h0.078l0.004,0.079c0,0.023,0.031,0.576,0.7,0.576c0.066,0,0.138-0.006,0.213-0.016
				l0.026-0.004l1.022,0.532l-8.826,0.351l-0.044,0.001L18.295,30.436z M26.138,29.756c-0.072,0.009-0.143,0.014-0.209,0.014
				c-0.664,0-0.817-0.465-0.853-0.655c-0.53,0-3.673-0.002-4.231-0.04c-0.621-0.04-0.594-0.949-0.582-1.337
				c0.001-0.039,0.003-0.073,0.003-0.099c0-0.163,0.099-0.26,0.262-0.26c0.01,0,0.018,0.001,0.027,0.001l-0.03-0.244l-3.111-0.288
				c-0.051,0.151-0.206,0.51-0.552,0.666c-0.122,0.141,0.582,1.416,1.541,2.792l8.17-0.324L26.138,29.756z"/>
			<path fill="#FFFFFF" d="M18.106,28.262h1.567c0,0,0.163-0.139,0.163-0.199c0-0.061,2.318,0.019,2.318,0.019
				s-0.196,0.44,0.325,0.459c0.523,0.017,1.601,0,1.601,0s-0.131,0.498,1.272,0.438c1.404-0.059,1.534,0.697,1.502,1.334
				S20,30.534,20,30.534l-2.546-0.857L18.106,28.262z"/>
			<path fill="#231F20" d="M19.996,30.616l-2.653-0.891l0.712-1.543h1.589c0.056-0.05,0.106-0.105,0.112-0.118
				c0-0.098,0.059-0.104,0.51-0.104c0.664,0,1.88,0.042,1.893,0.042l0.119,0.004l-0.048,0.11c-0.019,0.041-0.054,0.164-0.003,0.244
				c0.039,0.062,0.125,0.097,0.257,0.101c0.153,0.006,0.37,0.008,0.645,0.008c0.474,0,0.951-0.008,0.951-0.008l0.108-0.001
				l-0.028,0.104c0,0.001-0.009,0.051,0.038,0.112c0.072,0.094,0.327,0.259,1.154,0.224c0.052-0.002,0.103-0.003,0.151-0.003
				c0.524,0,0.91,0.126,1.146,0.373c0.289,0.306,0.303,0.746,0.287,1.051c-0.007,0.141-0.021,0.433-2.836,0.433H24.1
				C22.214,30.75,20.019,30.617,19.996,30.616z M25.357,29.06c-0.08,0.004-0.157,0.005-0.228,0.005
				c-0.556,0-0.911-0.099-1.061-0.293c-0.042-0.054-0.062-0.105-0.068-0.148c-0.156,0.001-0.516,0.007-0.873,0.007
				c-0.275,0-0.495-0.004-0.649-0.008c-0.189-0.007-0.321-0.066-0.39-0.177c-0.061-0.095-0.057-0.206-0.042-0.285
				c-0.31-0.01-1.234-0.039-1.781-0.039c-0.225,0-0.323,0.005-0.366,0.009c-0.027,0.054-0.085,0.118-0.173,0.193l-0.022,0.02h-1.545
				l-0.593,1.285l2.45,0.825c0.169,0.011,2.27,0.133,4.084,0.133c2.585,0,2.673-0.248,2.674-0.276
				c0.016-0.298,0.001-0.673-0.243-0.931c-0.203-0.214-0.549-0.322-1.028-0.322C25.455,29.057,25.407,29.059,25.357,29.06z"/>
			<path fill="#FFFFFF" d="M17.194,26.673c0,0-2.29-0.321-5.496,0l-0.4,0.208c0,0,0.101-0.059,0.176,0.101
				c0.076,0.158,0.15,0.797,0.15,0.797l5.906,1.073l-0.101-1.691c0,0-0.099-0.12,0.101-0.12c0.202,0,0.026-0.317,0.026-0.317
				L17.194,26.673z"/>
			<path fill="#231F20" d="M11.551,27.848l-0.007-0.06c-0.021-0.173-0.086-0.652-0.145-0.771c-0.019-0.039-0.043-0.069-0.062-0.064
				l-0.001,0l-0.073-0.146l0.397-0.208l0.03-0.008c0.948-0.095,1.909-0.144,2.857-0.144c1.615,0,2.647,0.143,2.658,0.144
				l0.402,0.057l0.02,0.035c0.03,0.055,0.124,0.244,0.057,0.36c-0.018,0.029-0.061,0.079-0.154,0.079c-0.01,0-0.019,0-0.026,0.001
				l0.114,1.828L11.551,27.848z M17.335,27.048c0.042-0.088,0.158-0.088,0.195-0.088c0.009,0,0.014,0,0.015,0
				c0.008-0.024-0.011-0.095-0.042-0.162l-0.32-0.045c-0.011,0-1.03-0.142-2.635-0.142c-0.938,0-1.888,0.048-2.825,0.142
				l-0.225,0.116c0.017,0.021,0.033,0.047,0.049,0.079c0.068,0.141,0.13,0.592,0.151,0.762l5.745,1.045l-0.094-1.566
				C17.331,27.158,17.31,27.104,17.335,27.048z"/>
			<path fill="#374724" d="M19.938,28.123c0,0,0.032,1.35,0.887,1.35h7.735l0.01,0.03c0,0,0.095-0.067,0.095-0.17l0.133,0.009v0.583
				c0,0-0.454,0.692-0.981,0.692c-0.335,0-4.835,1.593-11.245,2.233c-4.357-3.699-8.423-3.97-9.032-3.986
				c0-0.117-0.011-0.227-0.021-0.336c0.23-0.069,0.495,0.134,0.724,0.044c-0.259-0.24-0.789-0.694-1.102-0.291
				c-0.037,0.244-0.093,0.5-0.258,0.832c-0.231-0.065-0.462-0.12-0.654,0.097c0.108,0.077,0.199,0.101,0.261,0.15
				c0.029,0.027,0.052,0.057,0.066,0.102c0.007,0.022,0.013,0.049,0.014,0.082c-0.151,0.039-0.274,0.125-0.372,0.239v0.002
				c-0.057,0.067-0.102,0.142-0.141,0.224c-0.002,0.006-0.007,0.013-0.009,0.017c-0.031,0.072-0.057,0.146-0.076,0.221
				c-0.004,0.018-0.007,0.031-0.011,0.047c-0.02,0.081-0.031,0.166-0.038,0.247c-0.036,0.462,0.104,0.91,0.366,0.948
				c-0.052-0.229-0.009-0.552,0.098-0.84c0.992,0.27,2.555,0.913,4.271,2.459C8.546,33.072,6.328,32.9,4.06,32.528
				c0,0-0.319-6.588-0.527-6.636C3.532,25.892,15.983,27.45,19.938,28.123"/>
			<path fill="#33401E" d="M10.655,33.187c-2.267-0.038-4.489-0.232-6.608-0.582c-0.037-0.006-0.063-0.036-0.065-0.073
				c-0.121-2.495-0.353-6.284-0.497-6.578c-0.022-0.017-0.034-0.045-0.029-0.075c0.008-0.042,0.048-0.069,0.087-0.063
				c0.125,0.015,12.498,1.565,16.408,2.231c0.038,0.006,0.063,0.038,0.065,0.075c0,0.013,0.042,1.272,0.809,1.272h7.735
				c0.003,0,0.004,0,0.007,0c0.01-0.017,0.019-0.038,0.019-0.061c0-0.021,0.01-0.043,0.025-0.057
				c0.016-0.015,0.037-0.023,0.06-0.021l0.131,0.008c0.042,0.003,0.074,0.038,0.074,0.079v0.583c0,0.015-0.004,0.031-0.013,0.043
				c-0.02,0.028-0.483,0.726-1.047,0.726c-0.062,0-0.385,0.092-0.791,0.205c-1.631,0.458-5.45,1.53-10.445,2.029
				c-0.022,0.002-0.044-0.005-0.06-0.02c-4.398-3.732-8.527-3.954-8.984-3.967c-0.042-0.001-0.076-0.036-0.076-0.078
				c0-0.102-0.009-0.2-0.016-0.296l-0.004-0.033c-0.003-0.037,0.021-0.072,0.057-0.082c0.117-0.036,0.261-0.007,0.392,0.025
				c0.059,0.015,0.116,0.029,0.171,0.036c-0.159-0.135-0.405-0.314-0.608-0.314c-0.094,0-0.171,0.038-0.237,0.115
				c-0.042,0.272-0.104,0.52-0.262,0.834c-0.017,0.033-0.055,0.049-0.091,0.04c-0.204-0.057-0.377-0.083-0.505,0.009
				c0.022,0.012,0.044,0.022,0.063,0.032c0.043,0.021,0.082,0.041,0.122,0.073c0.045,0.04,0.072,0.082,0.088,0.135
				c0.011,0.033,0.017,0.067,0.019,0.104c0.001,0.036-0.024,0.069-0.059,0.078c-0.123,0.031-0.233,0.101-0.326,0.206
				c-0.002,0.003-0.004,0.007-0.007,0.01c-0.05,0.06-0.092,0.128-0.125,0.199c-0.005,0.009-0.009,0.018-0.012,0.023
				c-0.029,0.065-0.053,0.133-0.072,0.202c-0.004,0.02-0.006,0.037-0.01,0.051c-0.018,0.072-0.03,0.152-0.038,0.236
				c-0.027,0.353,0.057,0.677,0.191,0.807c-0.014-0.217,0.029-0.482,0.121-0.732c0.015-0.038,0.055-0.059,0.095-0.049
				c1.013,0.275,2.582,0.928,4.303,2.478c0.025,0.022,0.032,0.058,0.021,0.087c-0.013,0.029-0.04,0.051-0.072,0.051
				C10.656,33.187,10.656,33.187,10.655,33.187z M6.364,31.471c0.005,0.024-0.002,0.052-0.019,0.07
				c-0.018,0.019-0.043,0.028-0.069,0.024c-0.329-0.049-0.47-0.568-0.434-1.033c0.01-0.093,0.023-0.18,0.041-0.261
				c0.003-0.013,0.007-0.024,0.012-0.046c0.022-0.085,0.05-0.161,0.082-0.235l0.071,0.031l-0.064-0.047
				c0.042-0.087,0.089-0.163,0.143-0.231c0.004-0.004,0.007-0.008,0.01-0.013c0.099-0.115,0.215-0.197,0.345-0.243
				C6.48,29.486,6.48,29.486,6.48,29.485c-0.01-0.032-0.024-0.049-0.04-0.064c-0.023-0.018-0.055-0.033-0.092-0.052
				c-0.046-0.022-0.104-0.051-0.167-0.096c-0.018-0.013-0.029-0.033-0.032-0.056c-0.001-0.021,0.005-0.044,0.02-0.061
				c0.107-0.122,0.237-0.18,0.396-0.18c0.091,0,0.183,0.018,0.275,0.043c0.131-0.277,0.185-0.502,0.222-0.75
				c0.002-0.014,0.008-0.025,0.016-0.036c0.099-0.127,0.225-0.191,0.373-0.191c0.301,0,0.626,0.27,0.844,0.471
				c0.021,0.019,0.028,0.046,0.023,0.072c-0.004,0.026-0.023,0.048-0.049,0.058c-0.123,0.048-0.278,0.021-0.42-0.016
				c-0.089-0.022-0.174-0.042-0.247-0.038c0.006,0.064,0.011,0.13,0.012,0.197c0.401,0.018,1.519,0.112,3.06,0.614
				c2.095,0.68,4.087,1.813,5.924,3.366c4.966-0.498,8.762-1.564,10.387-2.02c0.53-0.15,0.751-0.21,0.832-0.21
				c0.433,0,0.828-0.53,0.902-0.637v-0.46c-0.033,0.075-0.093,0.119-0.102,0.125c-0.021,0.015-0.048,0.018-0.071,0.011
				c-0.015-0.005-0.027-0.015-0.037-0.026h-7.684c-0.817,0-0.942-1.078-0.962-1.361c-3.752-0.633-14.873-2.036-16.209-2.203
				c0.069,0.284,0.159,1.062,0.299,3.236c0.094,1.454,0.166,2.92,0.182,3.238c2.027,0.329,4.148,0.519,6.313,0.564
				c-1.598-1.395-3.045-2.011-4.012-2.282C6.348,31.007,6.321,31.281,6.364,31.471z"/>
			<path fill="#808285" d="M6.694,30.142c0.003-0.002,0.004-0.005,0.007-0.006c0.12,0.027,0.249,0.062,0.386,0.101
				C6.948,30.198,6.817,30.167,6.694,30.142"/>
			<path fill="#808285" d="M6.782,30.445c-0.098-0.021-0.188-0.044-0.274-0.062c0.004-0.003,0.006-0.01,0.008-0.014
				C6.602,30.394,6.689,30.419,6.782,30.445"/>
			<path fill="#FFFFFF" d="M6.701,30.136c0.08-0.074,0.169-0.121,0.262-0.13c0.041,0.011,0.084,0.024,0.129,0.039
				c0.035,0.065,0.06,0.14,0.083,0.214c-0.03-0.005-0.058-0.016-0.088-0.022C6.95,30.198,6.821,30.164,6.701,30.136"/>
			<path fill="#FFFFFF" d="M6.694,30.142c0.123,0.025,0.254,0.056,0.393,0.095c0.03,0.007,0.058,0.018,0.088,0.022
				c0.033,0.11,0.063,0.225,0.111,0.326c-0.182-0.056-0.349-0.104-0.504-0.141c-0.093-0.025-0.181-0.051-0.267-0.075
				C6.568,30.279,6.628,30.203,6.694,30.142"/>
			<path fill="#231F20" d="M7.274,30.625c-0.191-0.061-0.356-0.105-0.501-0.141c-0.086-0.023-0.168-0.046-0.247-0.068l-0.072-0.02
				l0.026-0.047c0.058-0.098,0.12-0.177,0.187-0.237l0.016-0.014l0.02,0.005c0.115,0.023,0.252,0.055,0.395,0.094
				c0.015,0.005,0.028,0.008,0.042,0.012c0.015,0.004,0.029,0.009,0.044,0.013l0.023,0.005l0.027,0.09
				c0.026,0.086,0.053,0.175,0.091,0.253l0.039,0.083L7.274,30.625z M7.115,30.288c-0.012-0.005-0.024-0.009-0.039-0.011
				c-0.133-0.038-0.26-0.066-0.371-0.092c-0.044,0.045-0.086,0.098-0.127,0.16c0.07,0.02,0.141,0.041,0.214,0.061
				c0.125,0.029,0.265,0.067,0.424,0.117c-0.022-0.061-0.041-0.122-0.06-0.184l-0.015-0.045C7.133,30.292,7.125,30.289,7.115,30.288
				z"/>
			<path fill="#6D6E71" d="M7.077,30.015c0.006,0.009,0.01,0.019,0.015,0.03c-0.045-0.015-0.088-0.028-0.129-0.039
				C6.998,30.001,7.038,30.004,7.077,30.015"/>
			<path fill="#446C33" d="M10.013,28.322c0.001,0.013-0.032,0.024-0.042,0.028c0,0.003-0.019,0.007-0.021,0.007
				c-0.004,0-0.013-0.001-0.013,0.002c-0.005,0-0.004,0.007-0.01,0.004c-0.003,0.007-0.021,0.002-0.033,0
				c-0.001,0.005-0.014,0.002-0.018,0.002c-0.017-0.004-0.16-0.032-0.159-0.042c-0.005,0-0.136-0.037-0.139-0.041
				c-0.002-0.003-0.001-0.013-0.001-0.017c0.001-0.006,0.006-0.016,0.012-0.018c0.01-0.001,0.016,0,0.022,0.002
				c0.007,0.003,0.016-0.002,0.024,0c0.01,0,0.018-0.002,0.028-0.004c0-0.004,0.011,0,0.013,0.001h0.046
				c0.017-0.004,0.074,0.016,0.076,0.01c0.022,0.006,0.116,0.025,0.121,0.025c0.002-0.001,0.012,0,0.016,0
				c0.002,0,0.027-0.003,0.027,0c0.015,0,0.023,0,0.033,0.01C10.005,28.303,10.012,28.311,10.013,28.322"/>
			<path fill="#7C1322" d="M7.555,29.05c0.014-0.083,0.018-0.155,0.018-0.229c0.606,0.02,4.641,0.288,8.963,3.984
				c-0.255,0.026-0.514,0.052-0.776,0.073C12.104,29.771,8.733,29.168,7.555,29.05"/>
			<path fill="#A02D22" d="M7.555,29.05c1.179,0.118,4.55,0.721,8.204,3.829c-0.211,0.021-0.424,0.034-0.642,0.052
				c-3.324-2.803-6.348-3.487-7.617-3.653C7.525,29.197,7.543,29.121,7.555,29.05"/>
			<path fill="#BE952E" d="M7.919,29.583c-0.148-0.077-0.297-0.153-0.445-0.228c0.009-0.027,0.017-0.054,0.026-0.077
				c1.27,0.166,4.293,0.85,7.617,3.653c-0.316,0.021-0.642,0.045-0.969,0.062c-2.48-2.101-4.767-2.974-6.231-3.339
				C7.917,29.634,7.917,29.61,7.919,29.583"/>
			<path fill="#234269" d="M7.873,30.151c1.371,0.433,3.309,1.269,5.297,2.886c-0.317,0.013-0.637,0.021-0.959,0.027
				c-1.731-1.521-3.335-2.298-4.518-2.696C7.739,30.316,7.826,30.198,7.873,30.151"/>
			<path fill="#471721" d="M7.693,30.368c1.183,0.398,2.786,1.175,4.518,2.696c-0.226,0.001-0.452,0.004-0.68,0.005
				c-1.537-1.408-2.995-2.118-4.064-2.476C7.546,30.539,7.62,30.455,7.693,30.368"/>
			<path fill="#5A4C63" d="M6.543,30.325c0.087,0.017,0.183,0.056,0.278,0.08c0.154,0.039,0.322,0.085,0.502,0.142
				c0.016,0.033,0.033,0.064,0.053,0.096c0.031-0.012,0.062-0.029,0.091-0.049c1.069,0.357,2.527,1.067,4.064,2.476
				c-0.287,0-0.574-0.001-0.863-0.005c-1.706-1.543-3.256-2.188-4.24-2.457c0.034-0.093,0.075-0.183,0.123-0.264"/>
			<path fill="#2B3621" d="M7.873,30.136l0.032-0.293c0.016-0.071,0.012-0.127,0.012-0.188c1.465,0.365,3.751,1.238,6.231,3.339
				c-0.321,0.018-0.648,0.033-0.979,0.043c-1.988-1.617-3.926-2.453-5.297-2.886C7.88,30.142,7.865,30.142,7.873,30.136"/>
			<path fill="#471721" d="M7.211,30.218l-0.475-0.117c0,0-0.171,0.219-0.178,0.229c-0.008,0.014,0.765,0.217,0.765,0.217
				S7.198,30.291,7.211,30.218"/>
			<path fill="#234269" d="M7.206,30.226c0,0-0.44-0.128-0.47-0.117c-0.032,0.01,0.257-0.161,0.316-0.148
				c0.062,0.015,0.158,0.273,0.158,0.273"/>
		</g>
		<path fill="none" stroke="#33401E" stroke-width="0.2811" stroke-linejoin="round" stroke-miterlimit="10" d="M10.432,33.107
			c0,0,1.618,0.152,6.437-0.285"/>
		<path fill="#FFFFFF" stroke="#FFFFFF" stroke-width="0.0937" stroke-miterlimit="10" d="M7.5,29.278
			c-0.01,0.023-0.018,0.05-0.026,0.077c0.148,0.075,0.297,0.151,0.445,0.228c-0.002,0.027-0.002,0.05-0.002,0.071
			c0,0.061,0.004,0.117-0.012,0.188l-0.052,0.349c-0.007,0.006-0.015,0.016-0.021,0.021c-0.047,0.051-0.093,0.104-0.139,0.155
			c-0.073,0.087-0.147,0.171-0.227,0.226c-0.028,0.02-0.06,0.037-0.091,0.049c-0.02-0.031-0.037-0.062-0.053-0.096
			c-0.048-0.103-0.078-0.215-0.112-0.328c-0.022-0.074-0.047-0.148-0.081-0.217c-0.004-0.008-0.008-0.018-0.016-0.027
			c-0.038-0.009-0.077-0.01-0.113-0.009c-0.093,0.011-0.18,0.057-0.26,0.13c-0.003,0.002-0.004,0.004-0.005,0.006
			c-0.065,0.061-0.126,0.138-0.178,0.229c-0.003,0.004-0.006,0.011-0.008,0.014c-0.048,0.081-0.089,0.171-0.123,0.264
			c-0.105,0.289-0.147,0.615-0.095,0.841c-0.261-0.04-0.401-0.487-0.365-0.948c0.007-0.084,0.019-0.166,0.038-0.245
			c0.002-0.018,0.007-0.032,0.011-0.051c0.021-0.075,0.045-0.147,0.075-0.219c0.003-0.004,0.007-0.011,0.008-0.018
			c0.039-0.082,0.084-0.158,0.141-0.223h0.001c0.096-0.116,0.218-0.203,0.369-0.242c-0.001-0.03-0.007-0.059-0.015-0.082
			c-0.015-0.044-0.035-0.076-0.066-0.101c-0.061-0.05-0.15-0.075-0.258-0.152c0.191-0.217,0.419-0.158,0.65-0.094
			c0.165-0.334,0.219-0.59,0.256-0.833c0.31-0.404,0.835,0.051,1.091,0.291c-0.226,0.09-0.488-0.112-0.716-0.043
			c0.01,0.108,0.02,0.219,0.02,0.334c0,0.073-0.004,0.146-0.018,0.229C7.543,29.121,7.525,29.197,7.5,29.278"/>
	</g>
</g>
<g id="Layer_43">
</g>
</svg>
