<?xml version="1.0" encoding="utf-8"?>
<!-- Generator: Adobe Illustrator 17.1.0, SVG Export Plug-In . SVG Version: 6.00 Build 0)  -->
<!DOCTYPE svg PUBLIC "-//W3C//DTD SVG 1.1 Basic//EN" "http://www.w3.org/Graphics/SVG/1.1/DTD/svg11-basic.dtd">
<svg version="1.1" baseProfile="basic" xmlns="http://www.w3.org/2000/svg" xmlns:xlink="http://www.w3.org/1999/xlink" preserveAspectRatio="none" viewBox="-108.5 549.5 35 35"
	 xml:space="preserve">
<path fill="#46803C" d="M-73.7,569.6c0,0-4.3-0.6-5.4-0.7l-11.1,0.1l-0.3-5.2l-2.1-0.1l0.9-6.8l0,0l0.1,0l0.3-1.8l-1.1-0.1l-1-0.1
	l0.3,1.8l0.1,0l-2,6.7l-4.1-0.2l-0.6,1.1l-0.7,0.1l-2.9,4.5l-2.2,0c-0.8,0-1.5,0-2.1,0c-0.2,0-0.4,0-0.5,0c0,0-0.1,0-0.1,0
	c0,0,0,0,0,0c0,1.5,4.3,8.8,4.3,8.8c8,3.3,27.4-2.5,27.4-2.5s1-1,1.7-2c0.6-0.8,1-2.8,1.1-3.5l0,0L-73.7,569.6
	C-73.7,569.6-73.7,569.6-73.7,569.6L-73.7,569.6L-73.7,569.6L-73.7,569.6z"/>
</svg>
