<?xml version="1.0" encoding="utf-8"?>
<!-- Generator: Adobe Illustrator 17.1.0, SVG Export Plug-In . SVG Version: 6.00 Build 0)  -->
<!DOCTYPE svg PUBLIC "-//W3C//DTD SVG 1.1//EN" "http://www.w3.org/Graphics/SVG/1.1/DTD/svg11.dtd">
<svg version="1.1" id="Layer_1" xmlns="http://www.w3.org/2000/svg" xmlns:xlink="http://www.w3.org/1999/xlink" viewBox="-152.5 518.5 35 35" enable-background="new -152.5 518.5 35 35" xml:space="preserve">
<g>
	<path fill="#46803C" d="M-126.3,532.8c0,0-0.8-0.1-1.4-1.1l-0.8-0.8l0,0c-0.5-0.1-0.9-0.2-1.4-0.2l1-7.9l-0.8,0.2l-0.8,4.7
		l-3.1,0.4c0,0,1.4-0.1,1.3,0c0,0.1,0.3,0.3,0.3,0.3l0.2,0.8l0.1,0l0.8,0.7l-0.1,0.8c0,0,0,0,0,0c-0.5,0-1,0-1.5,0
		c-2.7,0.1-5.8,1-5.8,1l-0.1,0.7c-6-2.1-11.5-1.9-14,1.4l0.8,1.5c0,0,0,0,0,0l-0.1,0.1l0.3-0.1c0.9,1.4,4.2,6.3,4.2,7.3
		c0,1.1,0,2.4,0.9,3.6c0,0,4.2,1.8,11.4,1.9c1.2,0,2.5,0,3.9-0.2c0.3,0,0.7-0.1,1-0.1c0.4,0,0.8-0.1,1.2-0.1
		c2.6-0.3,5.5-0.9,8.5-1.9l0.6-1l0-2.6l0.3-0.3l-0.1,0c0,0,0,0,0,0V541h0c0,0-0.8-0.1-2.3-0.6v-0.7l-1.6-1.1
		c-0.1-0.7,0.3-1.1,0.3-1.1l-0.5-3l-0.6-1.1l-0.5,2.3l-0.4-2.4L-126.3,532.8 M-131.3,529.1L-131.3,529.1l-0.1-1.1c0,0,0,0-0.1,0
		l0.7-0.1l0.1,1l-0.1,0.5L-131.3,529.1z M-128.2,536.6h-0.1v0.9c-1.1-0.6-2.3-1.3-3.6-2.1c-2-1.2-4.2-2.2-6.2-3v-0.5
		c0,0,3.7-1.3,8.2-0.9l0.3,1l1.8,1L-128.2,536.6z"/>
</g>
</svg>
