<?xml version="1.0" encoding="utf-8"?>
<!-- Generator: Adobe Illustrator 16.0.0, SVG Export Plug-In . SVG Version: 6.00 Build 0)  -->
<!DOCTYPE svg PUBLIC "-//W3C//DTD SVG 1.1//EN" "http://www.w3.org/Graphics/SVG/1.1/DTD/svg11.dtd">
<svg version="1.1" xmlns="http://www.w3.org/2000/svg" xmlns:xlink="http://www.w3.org/1999/xlink" x="0px" y="0px"
	 width="21.405px" height="24.333px" viewBox="0 0 21.405 24.333" enable-background="new 0 0 21.405 24.333" xml:space="preserve">
<g id="SHIPS_LOGOS">
	<g id="Simplified_logos_copy_2">
		<g id="Layer_37_copy_2">
			<g id="Mono_left_copy_3">
			</g>
		</g>
	</g>
	<g id="RW_x5F_left1_copy_2_1_">
		<g>
			<g>
				<path fill="#004D00" d="M15.021,7.126c0,0,1.688,10.345,0.891,11.673l-5.799-1.816C10.112,16.983,14.823,9.669,15.021,7.126"/>
				<path fill="#004D00" d="M15.716,5.407c0,0,4.076,4.469,3.391,14.295c0,0-2.379,0.08-3.775-0.553
					C15.331,19.15,16.899,6.946,15.716,5.407"/>
				<path fill="#004D00" d="M15.309,19.204l-0.041-0.018l0.006-0.043c0,0,0.021-0.168,0.055-0.464l-2.446-0.767l0.006,0.285
					l-0.05,0.007c-0.104,0.019-0.238,0.028-0.397,0.028l0,0c-2.318,0-10.07-1.859-10.148-1.878l0.013-0.116
					c1.805-0.048,6.41-7.796,9.958-14.286c0.397-0.731,0.397-0.731,0.441-0.731h0.034l0.015,0.029
					c0.021,0.033,0.023,0.035-0.197,0.478l0.216,10.661c1.36-2.492,2.117-4.31,2.192-5.264l0.115-0.006
					c0.006,0.033,0.491,3.013,0.813,5.951c0.339-4.363,0.265-6.994-0.222-7.622l0.09-0.076c0.009,0.011,1.035,1.152,1.964,3.479
					c1.545,3.889,1.637,8.051,1.442,10.858l-0.004,0.054l-0.054,0.002c0,0-0.098,0.002-0.261,0.002
					C18.155,19.765,16.427,19.709,15.309,19.204z"/>
				<g>
					<path fill="#004D00" d="M11.774,18.567c0,0-1.649-0.232-3.961,0l-0.29,0.15c0,0,0.071-0.042,0.128,0.073
						c0.055,0.114,0.108,0.573,0.108,0.573l4.26,0.775l-0.074-1.22c0,0-0.07-0.086,0.074-0.086s0.016-0.228,0.016-0.228
						L11.774,18.567z"/>
					<path fill="#004D00" d="M7.706,19.415l-0.005-0.043c-0.016-0.125-0.063-0.469-0.104-0.556c-0.014-0.027-0.032-0.05-0.047-0.045
						l0,0l-0.052-0.104l0.286-0.151l0.022-0.005c0.683-0.07,1.377-0.103,2.059-0.103c1.165,0,1.908,0.101,1.917,0.103l0.29,0.04
						l0.014,0.026c0.023,0.039,0.092,0.175,0.041,0.259c-0.011,0.022-0.042,0.058-0.108,0.058c-0.009,0-0.015,0-0.021,0l0.083,1.317
						L7.706,19.415z"/>
				</g>
				<path fill="#004D00" d="M13.754,19.613c0,0,0.021,0.973,0.637,0.973h5.579l0.008,0.021c0,0,0.066-0.049,0.066-0.123l0.096,0.006
					v0.422c0,0-0.326,0.498-0.708,0.498c-0.238,0-3.485,1.138-8.106,1.611c-0.336,0.035-4.263,0.185-4.263,0.185
					c-1.367-0.022-2.979-0.125-4.758-0.417c0,0-0.229-4.75-0.379-4.785C1.926,18.004,10.902,19.127,13.754,19.613"/>
				<path fill="#004D00" d="M6.283,19.718c0-0.005,0.006-0.012,0.011-0.014c0.004-0.001,0.012,0,0.016,0.002
					c0.005,0.002,0.012-0.002,0.017,0c0.008,0,0.013-0.002,0.022-0.003c0-0.002,0.006,0,0.009,0.001h0.033
					c0.01-0.002,0.051,0.011,0.055,0.006"/>
			</g>
		</g>
	</g>
	<g id="Monocrhome_-left_copy_2_1_">
	</g>
</g>
<g id="Color_Right">
</g>
<g id="RW_x5F_left_Color">
</g>
<g id="Layer_43">
</g>
</svg>
