<svg baseProfile="tiny" xmlns="http://www.w3.org/2000/svg" viewBox="0 0 392 304" overflow="scroll"><g><g fill="#46803C"><path d="M152.5 117.1l22.6-74.3 6.5.4-14.6 74.8zM178.8 116.6l-14.6.7 13.4-79 10.5 5.3zM180.9 24l11.4.7-3.6 18.9-8.9-.5zM170.4 23.4l10.5.6.6 19.2-7.7-.5z"/></g><path fill="#46803C" d="M16.3 170.5c5.3 2.1 90.4 5 95.3 4.8 4.9-.1 19.8 11.4 27.4 14 7.6 2.6 9 2 9 2l95-1s4.2 3.8 13.5 7.3c9.4 3.6 75.1-5.2 75.1-5.2s6.8-8.3 6.8-9.7c.1-1.4.1-1.4.1-1.4l38-5.7s-45.5-6.8-56.4-7.1l-305 1.8"/><path fill="#46803C" d="M205.4 182.3l-16.6 5.2-2.6-3.5-39.1 1.1-2.5-3.5-14.1 2.5-19-7.3-8.3 2.3-16.6-3.8-26.4 5 37.3-57.6 7.5-1.4 6.2-11.1 90.3 5.3z"/><path fill="#46803C" d="M15.7 167.5c0-.3.6-.3 1.1-.4 9.1-.9 90.6 5.3 95.3 5.2 4.9-.1 19.8 11.4 27.4 14 7.6 2.6 9 2 9 2l95-1s4.2 3.8 13.5 7.3c9.4 3.6 75.1-5.2 75.1-5.2s6.8-8.3 6.8-9.7c.1-1.4.1-1.4.1-1.4l38-5.7s-4.7 29.7-12.4 39.7c-7.6 9.9-17.8 20.5-17.8 20.5s-202.7 60.9-286.4 26.6c.1.1-44.6-75.9-44.7-91.9z"/></g></svg>