<svg baseProfile="tiny" xmlns="http://www.w3.org/2000/svg" viewBox="0 0 340 278" overflow="scroll"><g><g fill="#46803C"><path d="M224.9 29.6l-9 70.7-9.1-.8 11.3-68.5zM243.8 119.1l.6-.6-17.3-17.3h-.2c-42-8.1-79.7 5.3-80 5.5l-1.4 1.7c.4-.1 39.4-14.3 81.1-6.3l17.2 17zM228.7 156.9M147.2 105.5"/><path d="M299.9 190.5s-52.2-10.7-189.5-75.3c0 0-69.4 2.1-74.3 22.4 0 0 36.4 50.4 36.4 59.6 0 9.2.2 20 7.2 29.5 0 0 85 36.6 215.1-3.3l4.9-8.5.2-24.4zM300.5 190.5s-52-12.5-189.3-77c0 0-54.8-6.7-59.6 13.5 0 0 23.6 57.6 23.6 66.8 0 9.2-1.8 23.3 5.1 32.8 0 0 85.1 36.6 215.1-3.3l4.9-8.5.2-24.3zM302.1 184.9s-36.8-6-103.5-46.5c-66.7-40.4-141.5-50.7-169.2-13.9l6.7 13.1s28.3-35.1 115.3-2.9c86.9 32.2 63.3 35.7 150.7 57v-6.8z"/></g><path fill="#fff" d="M234.4 126.7M224.9 126.7"/><path fill="#46803C" d="M226.7 102l28.4 20.4 9 53.3-48.6 7.1 13.2-22.6 3.1-41.7.1-2.1z"/></g></svg>