<svg xmlns="http://www.w3.org/2000/svg" viewBox="0 0 21.405 24.333" enable-background="new 0 0 21.405 24.333"><g><g fill="#004D00"><path d="M15.021 7.126s1.688 10.345.891 11.673l-5.799-1.816c-.001 0 4.71-7.314 4.908-9.857M15.716 5.407s4.076 4.469 3.391 14.295c0 0-2.379.08-3.775-.553-.001.001 1.567-12.203.384-13.742"/><path d="M15.309 19.204l-.041-.018.006-.043s.021-.168.055-.464l-2.446-.767.006.285-.05.007c-.104.019-.238.028-.397.028-2.318 0-10.07-1.859-10.148-1.878l.013-.116c1.805-.048 6.41-7.796 9.958-14.286.397-.731.397-.731.441-.731h.034l.015.029c.021.033.023.035-.197.478l.216 10.661c1.36-2.492 2.117-4.31 2.192-5.264l.115-.006c.006.033.491 3.013.813 5.951.339-4.363.265-6.994-.222-7.622l.09-.076c.009.011 1.035 1.152 1.964 3.479 1.545 3.889 1.637 8.051 1.442 10.858l-.004.054-.054.002s-.098.002-.261.002c-.694-.002-2.422-.058-3.54-.563zM11.774 18.567s-1.649-.232-3.961 0l-.29.15s.071-.042.128.073c.055.114.108.573.108.573l4.26.775-.074-1.22s-.07-.086.074-.086.016-.228.016-.228l-.261-.037zM7.706 19.415l-.005-.043c-.016-.125-.063-.469-.104-.556-.014-.027-.032-.05-.047-.045l-.052-.104.286-.151.022-.005c.683-.07 1.377-.103 2.059-.103 1.165 0 1.908.101 1.917.103l.29.04.014.026c.023.039.092.175.041.259-.011.022-.042.058-.108.058-.009 0-.015 0-.021 0l.083 1.317-4.375-.796zM13.754 19.613s.021.973.637.973h5.579l.008.021s.066-.049.066-.123l.096.006v.422s-.326.498-.708.498c-.238 0-3.485 1.138-8.106 1.611-.336.035-4.263.185-4.263.185-1.367-.022-2.979-.125-4.758-.417 0 0-.229-4.75-.379-4.785 0 0 8.976 1.123 11.828 1.609M6.283 19.718c0-.005.006-.012.011-.014.004-.001.012 0 .016.002.005.002.012-.002.017 0 .008 0 .013-.002.022-.003 0-.002.006 0 .009.001h.033c.01-.002.051.011.055.006"/></g></g></svg>