<svg xmlns="http://www.w3.org/2000/svg" viewBox="0 0 140.5 158.574" enable-background="new 0 0 140.5 158.574"><g><path fill="#231F20" d="M105.281 136.508l-7.882-99.08 5.123 97.621M82.228 124.921l-4.448-113.75 2.214 112.109M63.5 125.306l13.914-113.221-15.866 111.349M87.668 133.482l9.26-96.902-11.788 95.145"/><path fill="#fff" d="M92.539 49.024s10.811 66.19 5.695 74.688l-37.102-11.615c0 .001 30.139-46.803 31.407-63.073M96.986 38.029s26.073 28.592 21.695 91.466c0 0-15.218.506-24.157-3.538.001 0 10.047-78.083 2.462-87.928"/><path d="M105.281 136.508l-7.882-99.08 5.123 97.621"/><path fill="#231F20" d="M82.228 124.921l-4.107-120.572 1.884 118.837"/><path d="M64.14 125.385l13.922-120.263-15.886 118.331M87.668 133.482l9.26-96.902-11.788 95.145"/><path fill="#fff" d="M76.39 14.382l1.402 69.711c7.207-13.091 14.154-27.446 14.747-35.069 0 0 3.564 21.833 5.628 42.033 1.853-22.171 2.945-47.678-1.181-53.028 0 0 26.074 28.592 21.696 91.466 0 0-15.219.507-24.158-3.537 0 0 .15-1.185.401-3.286l-16.459-5.146.035 2.005c-10.645 1.798-67.309-11.842-67.309-11.842 17.858-.475 75.981-115.203 65.198-93.307"/><path fill="#231F20" d="M94.368 126.299l-.251-.113.031-.275s.141-1.068.369-2.972l-15.666-4.898.035 1.806-.318.055c-.664.109-1.52.169-2.544.169-14.838 0-64.423-11.898-64.921-12.016l.079-.741c11.536-.307 41.012-49.881 63.709-91.412 2.552-4.671 2.552-4.671 2.823-4.671l.208.003.11.177c.132.212.132.217-1.265 3.058l1.371 68.216c8.707-15.953 13.555-27.588 14.029-33.691l.742-.031c.032.204 3.137 19.281 5.212 38.072 2.167-27.91 1.677-44.742-1.429-48.777l.574-.479c.066.07 6.634 7.368 12.562 22.269 9.896 24.871 10.481 51.509 9.228 69.476l-.023.337-.337.007s-.617.024-1.676.024c-4.427 0-15.487-.35-22.652-3.593zm14.78-65.934c-3.941-9.912-8.158-16.424-10.529-19.667 2.145 7.2 2.12 24.099-.074 50.39l-.746.008c-1.645-16.05-4.263-33.314-5.245-39.576-1.362 6.811-6.202 17.806-14.438 32.753l-.675 1.225-1.405-70.127c-.158.283-.322.581-.491.888-31.258 57.205-52.294 87.933-62.594 91.461 8.812 2.082 49.873 11.6 63.073 11.6.82 0 1.527-.039 2.1-.109l-.042-2.199 17.252 5.397-.035.311c-.181 1.507-.311 2.544-.369 3.011 7.038 3.078 17.766 3.412 22.087 3.412.586 0 1.034-.008 1.315-.012 2.19-32.21-3.779-55.161-9.184-68.766z"/><path fill="#fff" d="M72.508 122.641l14.959 1.382.231 1.927s-1.389-.456-1.389.734c0 1.193-.464 6.072 2.32 6.253 2.779.185 19.823.185 19.823.185s.118 3.591 4.64 2.943l3.363 1.748-39.305 1.558s-8.926-12.772-7.073-13.602c1.861-.836 2.431-3.128 2.431-3.128"/><path d="M76.845 139.587c-1.33-1.908-7.941-11.517-7.352-13.637.086-.31.282-.456.427-.521 1.668-.75 2.218-2.858 2.226-2.878l.079-.31 15.581 1.438.333 2.807-.555-.181c-.003 0-.215-.067-.443-.067-.381 0-.458.166-.458.448 0 .125-.005.29-.009.482-.046 1.574-.16 5.256 1.979 5.394 2.735.184 19.63.188 19.799.188h.361l.016.362c.004.11.141 2.658 3.227 2.658.306 0 .636-.027.981-.075l.122-.016 4.723 2.454-40.715 1.617-.204.008-.118-.171zm36.18-3.136c-.337.043-.663.066-.969.066-3.062 0-3.769-2.146-3.929-3.022-2.445 0-16.943-.012-19.521-.185-2.862-.185-2.737-4.377-2.681-6.167.003-.181.011-.337.011-.458 0-.75.451-1.198 1.205-1.198.043 0 .086.004.125.004l-.137-1.123-14.352-1.327c-.234.694-.95 2.351-2.548 3.069-.561.648 2.689 6.528 7.109 12.879l37.688-1.495-2.001-1.043z"/><path fill="#fff" d="M75.978 129.557h7.23s.754-.639.754-.914c0-.279 10.688.086 10.688.086s-.903 2.03 1.503 2.119c2.415.079 7.38 0 7.38 0s-.6 2.293 5.873 2.018c6.477-.271 7.078 3.215 6.929 6.155-.149 2.944-31.62 1.017-31.62 1.017l-11.748-3.957 3.011-6.524z"/><path d="M84.692 140.415l-12.24-4.109 3.286-7.122h7.329c.254-.231.49-.487.518-.541 0-.452.267-.479 2.352-.479 3.062 0 8.671.188 8.73.188l.549.024-.22.506c-.086.188-.248.758-.016 1.127.181.286.582.443 1.185.463.707.027 1.708.036 2.976.036 2.183 0 4.389-.036 4.389-.036l.495-.008-.126.479c0 .004-.042.235.173.514.333.436 1.507 1.193 5.323 1.032.243-.011.475-.016.699-.016 2.422 0 4.2.582 5.288 1.72 1.338 1.412 1.401 3.442 1.327 4.847-.033.648-.098 1.994-13.083 1.994h-.004c-8.7.001-18.828-.615-18.93-.619zm24.735-7.176c-.374.016-.727.023-1.053.023-2.56 0-4.204-.456-4.895-1.35-.192-.248-.279-.487-.314-.683-.718.007-2.378.032-4.023.032-1.275 0-2.284-.016-2.999-.04-.875-.031-1.48-.307-1.797-.816-.275-.44-.26-.946-.188-1.314-1.429-.047-5.696-.182-8.22-.182-1.041 0-1.492.024-1.688.043-.13.252-.397.545-.801.891l-.103.09h-7.129l-2.732 5.928 11.302 3.807c.781.047 10.473.612 18.838.612 11.925 0 12.33-1.146 12.338-1.276.07-1.374.004-3.105-1.126-4.294-.938-.985-2.532-1.487-4.743-1.487-.217.001-.441.008-.667.016z"/><path fill="#fff" d="M71.77 122.229s-10.563-1.484-25.354 0l-1.845.962s.462-.271.809.467c.348.726.699 3.674.699 3.674l27.242 4.954-.463-7.804s-.459-.554.463-.554c.931 0 .118-1.464.118-1.464l-1.669-.235z"/><path d="M45.737 127.65l-.032-.274c-.094-.802-.396-3.007-.664-3.561-.086-.18-.201-.318-.294-.294l-.003.004-.334-.671 1.833-.958.138-.039c4.373-.44 8.809-.663 13.181-.663 7.451 0 12.212.659 12.259.663l1.856.263.09.161c.141.255.576 1.126.263 1.661-.082.137-.279.365-.71.365-.048 0-.086 0-.121.003l.525 8.432-27.987-5.092zm26.685-3.691c.192-.408.726-.408.898-.408.039 0 .063 0 .068 0 .039-.11-.053-.439-.198-.746l-1.475-.208c-.048-.004-4.754-.655-12.153-.655-4.327 0-8.711.219-13.037.651l-1.032.538c.078.095.156.217.228.362.311.651.596 2.732.695 3.517l26.504 4.82-.432-7.222c-.086-.143-.184-.393-.066-.649z"/><path fill="#446C33" d="M84.421 128.914s.153 6.226 4.094 6.226h35.682l.042.138s.437-.311.437-.785l.612.04v2.693s-2.093 3.191-4.526 3.191c-1.546 0-22.299 7.349-51.87 10.3-20.098-17.061-38.854-18.308-41.668-18.387 0-.538-.046-1.044-.09-1.551 1.064-.322 2.285.617 3.337.204-1.194-1.107-3.639-3.199-5.084-1.339-.169 1.123-.424 2.308-1.189 3.835-1.063-.299-2.128-.554-3.015.447.499.354.915.467 1.202.691.137.126.239.262.306.471.031.102.059.228.066.377-.702.181-1.272.577-1.718 1.104v.011c-.26.31-.472.656-.648 1.032-.011.028-.031.06-.039.079-.15.329-.264.671-.357 1.016-.012.079-.027.146-.047.216-.086.377-.141.766-.177 1.144-.165 2.127.483 4.196 1.692 4.373-.239-1.052-.043-2.548.447-3.875 4.577 1.24 11.784 4.212 19.706 11.344-9.739-.161-19.969-.954-30.434-2.673 0 0-1.476-30.387-2.43-30.61-.001-.001 57.432 7.186 75.669 10.288"/><path fill="#33401E" d="M41.606 152.273c-10.453-.172-20.71-1.071-30.484-2.681-.169-.027-.294-.168-.302-.338-.558-11.513-1.625-28.989-2.292-30.342-.103-.079-.156-.212-.134-.346.036-.193.22-.318.401-.294.577.07 57.652 7.219 75.686 10.292.173.027.298.173.301.346 0 .059.193 5.869 3.734 5.869h35.682c.007 0 .015 0 .028 0 .047-.077.09-.176.09-.282 0-.099.043-.196.114-.263.075-.072.168-.106.271-.098l.609.036c.192.015.341.172.341.361v2.693c0 .07-.02.142-.06.2-.089.134-2.229 3.349-4.828 3.349-.29 0-1.775.42-3.65.945-7.521 2.113-25.138 7.059-48.185 9.359-.102.012-.196-.02-.271-.086-20.285-17.217-39.336-18.242-41.444-18.3-.192-.004-.349-.166-.349-.362 0-.467-.039-.922-.074-1.366l-.016-.153c-.012-.173.099-.33.259-.376.542-.166 1.205-.032 1.806.118.275.07.538.133.789.165-.734-.625-1.864-1.449-2.803-1.449-.432 0-.79.172-1.096.53-.196 1.251-.483 2.398-1.208 3.846-.08.153-.251.228-.42.185-.943-.264-1.739-.385-2.328.042.102.055.2.102.294.149.196.098.377.188.561.333.204.185.33.377.404.624.052.153.079.31.087.479.004.169-.11.318-.271.361-.569.141-1.072.463-1.499.945-.012.017-.024.032-.036.048-.229.274-.425.592-.581.918-.016.041-.036.083-.052.111-.129.298-.243.611-.33.934-.02.09-.031.165-.052.232-.073.329-.133.699-.171 1.086-.126 1.63.258 3.125.883 3.725-.062-1 .137-2.229.561-3.379.067-.177.251-.271.436-.225 4.671 1.269 11.91 4.279 19.847 11.427.114.103.149.264.095.401-.055.136-.185.231-.334.231-.004 0-.004 0-.009 0zm-19.795-7.913c.027.118-.008.239-.086.325-.079.086-.196.13-.317.115-1.52-.229-2.164-2.623-1.999-4.77.044-.424.106-.824.188-1.201.017-.059.027-.114.051-.211.102-.394.228-.742.38-1.084l.33.141-.299-.216c.192-.399.408-.749.66-1.064.012-.02.027-.039.043-.058.456-.53.989-.911 1.591-1.123-.005-.008-.005-.012-.008-.016-.043-.145-.109-.227-.185-.294-.106-.083-.252-.153-.421-.239-.211-.106-.478-.235-.769-.444-.083-.059-.137-.153-.149-.255-.008-.098.024-.204.09-.279.499-.562 1.095-.832 1.825-.832.416 0 .84.087 1.268.201.605-1.28.852-2.316 1.024-3.463.008-.062.036-.117.075-.164.451-.589 1.032-.883 1.719-.883 1.386 0 2.885 1.245 3.89 2.175.094.087.133.212.109.333-.023.121-.109.219-.224.267-.569.224-1.291.094-1.943-.07-.404-.103-.8-.197-1.134-.177.024.299.048.601.055.911 1.849.083 7.004.519 14.112 2.831 9.657 3.136 18.85 8.364 27.32 15.529 22.909-2.301 40.421-7.219 47.91-9.32 2.453-.69 3.466-.969 3.842-.969 1.995 0 3.817-2.446 4.166-2.939v-2.12c-.157.345-.432.549-.475.577-.094.07-.216.086-.325.051-.067-.023-.126-.066-.173-.121h-35.436c-3.772 0-4.354-4.974-4.44-6.277-17.307-2.92-68.604-9.389-74.768-10.16.322 1.308.734 4.896 1.375 14.929.431 6.705.769 13.468.844 14.937 9.347 1.519 19.137 2.394 29.12 2.603-7.369-6.43-14.045-9.276-18.504-10.528-.406 1.213-.529 2.477-.332 3.352z"/><path fill="#808285" d="M23.334 138.233c.011-.012.019-.024.031-.031.557.128 1.15.286 1.782.467-.643-.181-1.248-.318-1.813-.436M23.742 139.63c-.451-.105-.871-.208-1.268-.286.016-.012.027-.043.04-.063.392.114.8.231 1.228.349"/><path fill="#fff" d="M23.365 138.202c.369-.337.778-.558 1.205-.597.192.047.393.109.601.181.158.302.271.643.377.989-.133-.028-.264-.074-.401-.106-.632-.181-1.224-.339-1.782-.467M23.334 138.233c.564.118 1.169.255 1.812.436.138.032.268.078.401.106.157.506.298 1.033.519 1.504-.836-.26-1.61-.479-2.324-.649-.427-.118-.836-.235-1.228-.349.242-.416.514-.773.82-1.048"/><path d="M26.011 140.458c-.887-.279-1.645-.487-2.315-.648-.393-.109-.77-.216-1.135-.317l-.334-.095.122-.212c.263-.447.549-.816.86-1.095l.071-.063.094.02c.529.11 1.161.251 1.817.436.067.02.13.036.193.056.066.02.138.039.204.055l.106.024.129.415c.122.397.244.805.417 1.166l.181.385-.41-.127zm-.734-1.559c-.055-.019-.114-.035-.18-.05-.613-.173-1.202-.307-1.708-.417-.205.201-.401.448-.589.739.322.09.648.185.985.274.578.138 1.221.315 1.955.538-.103-.278-.192-.561-.275-.844l-.066-.208c-.04-.008-.078-.023-.122-.032z"/><path fill="#6D6E71" d="M25.104 137.644c.02.043.042.086.066.142-.208-.071-.408-.134-.601-.181.171-.021.351-.008.535.039"/><path fill="#446C33" d="M38.639 129.835c.008.06-.146.114-.192.13 0 .016-.083.036-.094.036-.016 0-.055-.008-.058.011-.024 0-.017.032-.043.02-.012.032-.103.012-.153 0-.003.024-.066.012-.082.012-.075-.02-.743-.149-.734-.192-.02 0-.628-.169-.64-.189-.007-.015-.003-.058-.003-.078.003-.028.023-.071.055-.083.043-.008.074 0 .102.012.035.011.071-.012.115 0 .046 0 .078-.012.13-.02 0-.021.046 0 .058.008h.211c.078-.016.342.075.35.047.102.028.538.114.561.114.008-.008.051 0 .071 0 .012 0 .13-.015.13 0 .066 0 .106 0 .149.043.035.04.062.075.067.129"/><path fill="#7C1322" d="M27.302 133.192c.062-.376.083-.714.083-1.052 2.794.09 21.405 1.331 41.346 18.379-1.177.122-2.371.239-3.58.337-16.859-14.335-32.408-17.118-37.849-17.664"/><path fill="#A02D22" d="M27.302 133.192c5.441.545 20.989 3.329 37.849 17.664-.977.095-1.959.161-2.96.24-15.341-12.927-29.287-16.087-35.14-16.853.115-.372.197-.721.251-1.051"/><path fill="#BE952E" d="M28.987 135.654c-.686-.354-1.374-.702-2.057-1.053.04-.125.079-.248.122-.357 5.853.765 19.799 3.926 35.14 16.853-1.464.099-2.959.208-4.471.29-11.446-9.691-21.99-13.719-28.746-15.403 0-.099 0-.205.012-.33"/><path fill="#234269" d="M28.771 138.271c6.327 1.999 15.263 5.853 24.436 13.312-1.464.058-2.935.094-4.424.121-7.988-7.015-15.383-10.594-20.84-12.431.211-.24.612-.785.828-1.002"/><path fill="#471721" d="M27.942 139.273c5.457 1.836 12.852 5.416 20.84 12.431-1.041.008-2.084.021-3.136.028-7.089-6.497-13.813-9.774-18.744-11.419.362-.255.702-.64 1.04-1.04"/><path fill="#5A4C63" d="M22.639 139.072c.396.08.84.26 1.283.37.707.18 1.484.392 2.312.655.075.149.153.299.243.439.146-.051.291-.133.424-.224 4.93 1.645 11.655 4.922 18.743 11.419-1.323 0-2.646-.007-3.983-.028-7.867-7.113-15.015-10.084-19.557-11.328.161-.428.349-.844.565-1.221"/><path fill="#2B3621" d="M28.771 138.202l.153-1.351c.071-.329.051-.588.051-.868 6.756 1.685 17.3 5.712 28.746 15.403-1.484.079-2.991.149-4.515.197-9.173-7.458-18.108-11.312-24.436-13.311.036-.039-.034-.039.001-.07"/><path fill="#471721" d="M25.721 138.585l-2.194-.545s-.785 1.009-.821 1.055c-.035.059 3.53 1.001 3.53 1.001s-.574-1.18-.515-1.511"/><path fill="#234269" d="M25.693 138.618s-2.029-.59-2.167-.539c-.145.043 1.186-.745 1.465-.686.282.067.729 1.264.729 1.264"/><path stroke="#33401E" stroke-width="1.296" stroke-linejoin="round" stroke-miterlimit="10" d="M40.574 151.909s7.467.699 29.692-1.319" fill="none"/><path fill="#fff" stroke="#fff" stroke-width=".432" stroke-miterlimit="10" d="M27.052 134.244c-.043.11-.083.232-.122.358.683.35 1.371.699 2.057 1.052-.012.125-.012.232-.012.33 0 .279.02.539-.051.868l-.24 1.609c-.035.028-.07.071-.102.098-.216.232-.427.475-.64.715-.337.399-.678.785-1.04 1.04-.134.09-.279.173-.424.224-.09-.14-.169-.29-.243-.439-.22-.476-.362-.993-.515-1.512-.11-.345-.22-.687-.376-1-.02-.039-.04-.086-.071-.129-.176-.039-.358-.047-.526-.039-.427.046-.828.258-1.196.596-.012.013-.021.021-.024.028-.298.279-.577.636-.821 1.055-.011.016-.022.052-.035.059-.216.376-.404.793-.565 1.221-.487 1.331-.684 2.834-.439 3.878-1.202-.188-1.85-2.249-1.681-4.373.028-.388.083-.769.173-1.134.012-.078.032-.149.051-.231.094-.346.208-.679.345-1.009.017-.02.033-.051.04-.083.18-.377.388-.726.643-1.028h.008c.44-.538 1.005-.938 1.704-1.114-.004-.142-.036-.271-.067-.377-.07-.204-.169-.35-.306-.464-.283-.231-.695-.346-1.189-.702.883-1.001 1.931-.729 2.995-.436.762-1.543 1.013-2.721 1.181-3.844 1.429-1.864 3.855.232 5.033 1.339-1.041.417-2.253-.518-3.301-.2.043.499.09 1.009.09 1.543 0 .338-.021.676-.083 1.052-.055.327-.137.676-.251 1.049"/><g><path fill="#231F20" d="M69.944 130.821c-.02.012-.008-.255-.004-.294 0-.039.004-.141-.042-.168-.032-.036-.126-.02-.135.015-.02.016-.004.055-.027.059-.008.015-.082.118-.082.118-.011.039-.032.042-.055.085-.008.031-.055.059-.063.091-.023.012-.04.114-.066.114-.004.042-.043.074-.051.11-.032.011-.083.093-.083.121-.02-.004-.031.075-.055.072-.004.007-.019.054-.027.054-.04.083-.098.157-.024.228-.009.04.105.051.142.043.062 0 .122-.035.18-.008.067.02.118.008.177-.027.011-.005.072-.052.079-.079.032-.004.012-.04.043-.055.008-.059.035-.11.048-.2.015.004.038-.235.045-.279"/><path fill="#231F20" d="M69.229 131.646c-.087-.024-.141-.071-.169-.125-.113-.148-.023-.31.012-.376l.024-.043.043-.173.051.008c.02-.039.047-.075.078-.102.004-.012.008-.02.012-.027l.004-.182.082.012c.004 0 .004-.007.008-.007.02-.036.039-.056.051-.071l.011-.043.043-.036c.02-.034.083-.12.094-.145.004-.008.008-.02.012-.027l.003-.04.087-.071c.066-.043.161-.059.239-.04l.09.047c.106.074.118.208.122.283l.054-.032-.054.393c-.02.157-.032.248-.047.306-.012.047-.021.082-.031.114-.008.02-.012.036-.017.051l-.007.121-.056.016c-.007.012-.019.024-.027.035-.046.055-.102.091-.118.103-.106.062-.212.079-.326.047-.059.012-.086.016-.114.016-.028.007-.098.003-.154-.012zm.299-.535l.008.153c.016.004.031.004.047.008l.043.016.036-.129h.031c.008-.024.015-.052.023-.087l.027-.203h.004c.003-.009.003-.013.003-.021v-.016c0-.024-.003-.047-.003-.074-.016.02-.032.035-.043.051l-.04.079c-.007.016-.02.032-.027.047-.016.032-.028.056-.039.074l-.024.083-.046.019z"/><path fill="#fff" d="M39.747 128.447c-.008-.003-.043-.138-.041-.169-.02.008-.007-.157-.022-.161.007-.071-.021-.114-.032-.185-.031-.027-.031-.083-.059-.094-.012-.043-.031-.083-.035-.134-.008-.043-.02-.087-.051-.106-.024-.016-.043-.047-.071-.063-.016-.003-.062-.008-.067-.016-.015-.004-.165-.055-.161-.062-.046-.004-.055-.023-.098-.027 0-.019-.114-.019-.134-.027-.035-.016-.078 0-.118.008-.04-.005-.086.004-.134-.012-.031-.008-.059-.011-.106-.003-.02.003-.074.023-.074.031-.051-.004-.125-.004-.185 0-.02.003-.126.027-.126.02-.026.003-.262.003-.262.003-.044-.003-.059.004-.11.008-.067-.008-.129-.016-.201-.008-.083-.011-.137.012-.216 0-.082-.011-.129.02-.224.016-.028 0-.121-.016-.13.008-.007-.004-.077.008-.077.008-.052.003-.275-.008-.28.039-.039 0-.055.005-.105 0-.062 0-.122 0-.173 0 0 .021-.192.021-.227.021.004.011-.125-.005-.145 0-.047.011-.13.019-.157.051-.04.042-.062.055-.083.105-.024.012-.034.027-.039.063-.043-.004-.058.156-.09.149-.004.039-.02.105-.031.152-.008 0-.031.076-.035.083 0 .036-.008.079-.032.118-.004.027 0 .04-.004.083.023.004.071.181.075.224.036 0 .046.105.062.118.017.035.017.066.044.094.024.016.016.047.043.055.012.024.02.004.031.031.027.004.035.028.083.016.051.016.071.043.118.031.039-.007.554-.027.557-.043.008 0 .157-.02.208-.007 0-.02.138-.009.165 0 .004-.02.079-.009.099-.012.004-.02.227.004.227-.012.028-.004.11.008.114-.012.035 0 .083-.004.13 0 0-.016.165-.004.165-.035.074.007.133.003.203.003.048.004.052.024.099.047.02.023.004.185-.023.176-.004.051-.055.141-.09.161-.036.023-.087.058-.11.083-.027.026-.066.036-.09.074-.016-.004-.161.036-.161.036-.07.012-.105.036-.181.058-.066.008-.089.043-.141.056-.059 0-.118.008-.18 0-.036 0-.323-.004-.327.023-.019-.004-.302.012-.294-.023-.118-.024-.22-.059-.333-.078-.072-.012-.138-.036-.224-.043-.036 0-.181-.021-.173-.043-.07-.027-.133-.076-.2-.091-.058-.008-.13-.027-.192-.043 0-.019-.098-.027-.098-.055-.021-.008-.224-.094-.224-.094-.063-.016-.098-.054-.173-.074.004-.008-.142-.067-.157-.106-.008-.004-.047-.051-.055-.051-.004-.02-.008-.055-.024-.071-.047-.059-.043-.168-.059-.248-.004-.046.015-.31.043-.302.004-.016.056-.161.066-.157 0-.028.032-.055.043-.083.036-.012.031-.063.066-.075 0-.015.032-.063.048-.066.011-.04.046-.055.043-.083.019.008.046-.058.07-.066 0-.036.075-.051.082-.099.031-.008.06-.056.071-.098.02-.051.099-.066.105-.114.028-.012.056-.035.052-.067.016-.004.059-.047.066-.074.04.011.091-.06.126-.087.02-.039.047-.082.086-.105.016-.008.031-.047.04-.047.015-.051.09-.083.118-.114.028-.024.078-.035.074-.062.036-.02.024-.035.056-.059.004-.008.024-.004.028-.024.03.009.089-.054.113-.07.012-.039.066-.062.102-.09 0-.039.106-.091.137-.122.039.008.082-.043.11-.079.051-.035.09-.055.133-.098.043-.031.079-.071.13-.075.062-.067.161-.145.255-.161.016-.024.083-.059.109-.083.013.005.075-.027.075-.027.047.004.075-.024.126-.031.015-.02.063-.055.09-.059.036-.017.086-.02.122-.051.019-.016.105-.028.105-.036.036-.019.059-.036.086-.023.004-.016.067-.036.078-.036.043-.008.075-.043.114-.051.027.007.06-.016.09-.032.04-.027.066-.011.119.004.011.031.066.036.086.079.035.046.11.129.102.176.016.004.059.134.055.142.043.031.028.152.056.165 0 .023.015.087.035.09-.004.042.047.066.047.106.023.004.027.039.059.059.027.02.07.027.102.039.075.021.134-.02.205-.003 0-.027.192-.04.236-.067.039-.031.07-.067.102-.083.004-.012.032-.055.047-.051 0-.063.035-.103.047-.153.008-.047-.004-.075.008-.13-.036 0-.016-.162-.032-.165.004-.019-.024-.181-.051-.176.004-.103-.023-.185-.007-.271-.02-.003-.036-.121-.068-.149-.007-.074-.066-.153-.121-.208-.079-.106-.153-.185-.251-.259-.04-.036-.091-.06-.13-.071 0-.02-.066-.039-.086-.043-.074 0-.134-.043-.224-.067-.051-.016-.079 0-.113 0-.079-.012-.142-.027-.22-.027-.023-.003-.129-.024-.125-.003-.063-.009-.086 0-.141.011-.004.012-.059.016-.071.024-.004.007-.083.007-.086.028-.04.003-.091.019-.103.035-.024-.008-.078.031-.09.039-.048.036-.138.036-.181.086-.044.012-.075.032-.11.06-.032.003-.058.058-.082.07-.048.032-.111.036-.154.079-.015.012-.004.015-.039.039-.016.004-.04.032-.063.043-.012.016-.032.024-.051.02-.024.035-.036.05-.063.055-.02.012-.062.043-.082.04-.086.079-.412.279-.42.298-.015-.008-.098.035-.103.043-.011 0-.058.004-.077.023-.052.008-.314.267-.378.286-.036.024-.055.027-.087.063-.031-.008-.109.051-.114.083-.023.003-.011.027-.039.024 0 .008-.016.003-.024.02-.036-.008-.062.046-.086.063-.047.035-.083.07-.102.125-.02-.007-.141.157-.169.173-.012.016-.032.027-.028.04-.024.027-.035.024-.05.051-.036.008-.047.059-.079.071-.039.036-.07.063-.113.093-.008.028-.056.036-.051.056-.04.023-.047.063-.09.094-.004.039-.074.047-.083.09-.051.016-.07.102-.133.129-.027.075-.094.106-.105.176-.027-.007-.083.173-.089.205-.009.054-.063.215-.072.227-.016 0-.055.157-.058.181-.009-.003-.075.872-.086.961.004 0 0 .142-.004.161 0 .012.019.051.023.06.008.03.012.078.012.105.004.055.012.125.027.191.004.008.028.079.039.084 0 .01.036.082.036.082-.004.039.011.051.042.086.008.02.043.066.063.063.016.023.055.086.079.097.02.032.075.079.106.106.02.008.114.079.11.095.062 0 .113.09.169.093 0 .028.117.076.136.079-.004.02.048.032.067.028.047.012.11.059.157.083.098.027.149.071.243.099.004.026.201.059.196.078.044.016.55.149.545.129.075-.007.166-.024.204 0 .067.008.118.04.197.031.075-.016.117.02.185.032.079.02.141-.008.216.004.075.008.113-.028.2-.023.068 0 .122-.024.201-.016 0-.043.193 0 .2-.027.035-.007.063-.028.114-.024.017-.004.103 0 .11-.024.023-.003.146-.027.149-.043.051-.003.074-.008.11.032.019.028.016.126.027.172-.004.043-.071.283-.071.283-.008.098-.011.22-.027.337-.017.114-.043.204-.063.323.012.003.012.073.02.086.02.051.004.074-.004.114-.02.074.074.103.093.153.021.003.044.02.056.023 0 .008.043.032.063.036.003-.008.145.071.161.074.012.024.052.055.079.063.008.008.055.024.055.031.023.008.011.012.027.028.086.039.514-.142.557-.15.02-.079.091-.118.114-.219.016-.099.055-.166.066-.255 0-.032.047-.275.012-.287.011-.047.011-.098.004-.161-.004-.051.012-.082.016-.118.012.004.032-.067.035-.083.004-.055.02-.079.036-.13.008-.07.011-.118.011-.18.017.004.036-.075.04-.083.007.004.062-.169.065-.186.009-.07.033-.077.044-.125.032 0 .012-.137.036-.133.004-.016.026-.062.035-.062 0-.039.027-.067.032-.103.023-.097.07-.125.066-.224.008-.026.09-.16.09-.16.008-.059.058-.114.062-.165.024-.004.056-.07.063-.086.02.008.035-.095.05-.091 0-.008.043-.078.051-.078.004-.023.036-.052.06-.066.011-.013.031-.048.035-.075.032 0 .055-.055.063-.083.024-.059.063-.129.054-.203-.008-.053-.008-.107-.008-.154M49.245 127.135c.008-.043-.011-.105-.015-.149-.032-.012-.04-.157-.067-.149 0-.043-.015-.121-.024-.173-.008-.003-.027-.05-.031-.07-.012-.004-.04-.066-.04-.075-.031-.027-.062-.086-.059-.13-.035-.015-.054-.062-.082-.113-.047-.012-.059-.055-.106-.066.012-.04-.188-.052-.22-.047-.039 0-.291-.008-.286-.02-.079-.004-.15.015-.232.004 0 0-.086.019-.094.015-.071.011-.106.011-.169.004-.055.008-.067.012-.105.02-.016.004-.141.027-.205.027-.035 0-.058 0-.097 0-.059-.003-.059.004-.106.012-.036 0-.248.011-.248.039-.008-.003-.515.06-.57.056-.043.008-.062.024-.106.024-.07-.02-.09-.024-.145-.031-.02-.008-.098.008-.102.015-.121.008-.177.035-.271.051-.095.028-.161.083-.254.078-.068 0-.142-.027-.205-.015-.075.024-.122.059-.176.098-.017.016-.055.024-.055.047-.02.015-.048.028-.056.036-.055.004-.09.086-.125.102 0 .011-.06.099-.06.099-.003.035-.011.097-.023.149-.032.082-.028.165-.036.248 0 .059-.039.204 0 .279.016.031.031.055.062.07-.004.028-.02.071 0 .075-.004.036.043.074.051.105.02.04.062.028.051.086.008-.015.016.028.016.036.059.058.111.165.067.255-.016-.004-.035.172-.059.168-.024.086-.071.126-.099.212-.02-.004-.055.058-.059.066-.015.008-.028.051-.042.055-.004.016-.035.055-.043.055 0 .02-.019.055-.047.07-.003.079-.062.13-.086.189-.043.136-.126.235-.149.392 0 .047-.02.052-.02.079-.016.05-.028.106-.035.165.011.004-.04.176-.043.208-.007.027-.027.188-.012.193-.012.046.004.058 0 .109.04 0-.023.294 0 .287-.008.071.035.149.031.204.012-.008.012.122.048.149 0 .008.02.056.024.056-.008.051 0 .015 0 .055 0 .027.01.039.03.059-.004.039.064.066.052.118.031.008.012.024.031.027 0 .027.023.047.039.062.008.024.071.047.071.047.024.02.028.036.032.04-.008.042.01.055.023.09.031 0 .074.055.078.075.02.003.079.039.083.059.039 0 .051.067.094.078.016.024.047.052.083.071.004.012.13.09.149.083-.012.062.2.051.189.09.054.016.098.051.141.062.004.02.067.016.059.031.071 0 .126.047.181.072.023.015.153.067.153.067.067.008.137.074.2.078.051.016.083.031.138.035.035.024.074.051.118.043 0 .039.679-.087.573-.099 0 .031.22-.074.22-.153.047-.02.024-.066.071-.079 0-.028.035-.173.059-.176.003-.02.024-.169.047-.177-.004-.035.008-.078.02-.114.008 0 .024-.055.028-.066-.004-.028-.015-.196-.015-.196.008-.083-.076-.272-.106-.299-.02-.023-.098-.181-.122-.215-.004-.013-.04-.056-.055-.06-.028-.024-.032-.039-.079-.047-.032 0-.059.003-.094-.008-.031.004-.054.02-.078.024-.023.024-.137.047-.145.082-.02-.004-.138 0-.141.016-.067-.007-.138.003-.22 0-.016-.004-.145.036-.145-.004-.052-.003-.076-.02-.11-.027 0-.048-.22-.059-.212-.094-.035-.008-.168-.052-.161-.079-.02.004-.07-.031-.07-.04-.028 0-.052-.047-.08-.055-.05-.07-.078-.113-.042-.208.016-.031.012-.078.042-.11.017-.004.075-.05.075-.082.032-.024.067-.048.094-.036.008-.027.075-.012.079-.031.027.004.058-.004.11 0 .031.008.055-.008.086-.008.055.004.118.008.173.012.039.007.09-.004.125.003.031-.003.188-.011.188-.024.098.008.152-.023.259-.011.003-.012.278.011.313.008.06.007.11.003.153.003.059.016.11.021.146.027.094.004.181-.004.282.012.063-.004.122-.004.182-.023.058.004.113 0 .157 0 .016-.004.071-.024.071-.036.047.008.094.008.137-.036.047.016.121-.035.125-.105.003-.043-.019-.236-.043-.24-.004-.02-.008-.188-.008-.188-.004-.059-.02-.087-.016-.133 0-.087-.04-.103-.04-.176 0-.021-.043-.169-.051-.169-.012-.056-.031-.083-.043-.114-.004-.039-.028-.07-.059-.097.016-.055-.09-.099-.145-.11-.071-.012-.157 0-.224-.008-.074 0-.196-.011-.232.047-.031.004-.247.02-.318.02.004.012-.169.02-.188.012-.055-.012-.094-.003-.145-.007-.004.007-.067.019-.086.024 0 .015-.283-.017-.279-.028-.062 0-.094-.024-.15-.024-.015-.003-.078-.035-.074-.054-.083-.086-.039-.177.008-.275.016-.059.027-.075.047-.134.031 0 .075-.04.087-.071.027 0 .161-.067.157-.079.036 0 .157.012.157-.003.032-.007.039-.016.067-.012.004-.016.09-.004.11-.008 0-.008.09-.008.093-.027.056.016.079-.027.138-.012.007-.023.129-.026.152-.023.04 0 .181.021.189-.023.042.004.083-.027.125-.016.051 0 .086-.031.153-.011.063.007.103-.012.165-.02.063.016.15 0 .212.008.051.004.086-.011.141-.003.062.003.114-.02.161-.02 0 0 .201-.008.239-.016.059.016.086-.024.137-.008.028-.004.162 0 .162-.016.036-.007.086-.02.13-.039.058-.027.082-.051.086-.106.003-.035.015-.024.035-.047.032-.023.028-.047.036-.082.008-.031.02-.078-.017-.11 0-.003-.026-.089-.039-.082M53.788 127.54c.004-.02-.016-.051-.027-.055 0-.016-.004-.036-.024-.051-.004-.011-.02-.058-.024-.078-.074-.063-.101-.176-.109-.259-.02-.004-.106-.122-.126-.146-.023-.027-.035-.052-.074-.052.004-.015-.016-.003-.016-.02-.067-.012-.106-.062-.177-.062 0-.02-.311-.067-.354-.058-.058 0-.113.007-.165.003-.047-.012-.083.012-.114.004-.012-.004-.114.008-.105.012-.048-.004-.063 0-.106 0-.004.043-.197.012-.228.012-.004.007-.103.016-.126.011.004.008-.04.02-.059.024-.074.023-.169.016-.247.016 0 .027-.188.02-.228.02 0 .031-.212-.012-.212.008-.062.016-.106.024-.157.021-.047-.016-.07-.008-.125 0-.086-.004-.176.007-.263 0-.004.011-.098.023-.113.02 0 .019-.083.008-.083.031-.012-.004-.035-.031-.042-.012-.06-.004 0 .012-.056.008 0 .008-.224.071-.278.086-.044.012-.083.02-.111.059-.031.028-.066.028-.089.055-.02.016-.031.031-.056.043-.003.035-.016.023-.027.039-.012.047-.017.099-.028.157 0 .027-.031.279-.047.286-.004.016-.079.201-.094.197-.004.024-.056.11-.06.11-.003.02-.07.177-.086.172-.012.024-.056.067-.052.086-.024.004-.05.083-.062.087-.008.031-.039.055-.043.083-.031.016-.059.098-.071.098-.031.075-.103.121-.103.185-.015.004-.073.153-.082.185-.027-.008-.063.2-.071.215.004.032-.051.192-.055.201-.004.016-.027.079-.035.074-.004.044-.016.087-.023.122-.024 0-.067.166-.067.196-.032-.008-.059.138-.071.177-.028.133-.094.247-.118.393-.012.094-.039.161-.063.248-.016.059-.023.148-.004.203 0 0 0 .216-.008.243.02.008.043.188.043.209.008.003.036.062.031.07.02.015.005.031.035.047-.004.035.008.04.023.043-.004.047.072.074.091.106.02.016.04.059.043.094.031-.008.044.161.074.161-.008.04.027.063.023.098.017.012.056.087.056.087.004.011.012.066.023.058-.012.04.02.047.027.079.04.02.06.087.087.087.016.039.086.051.122.07-.004.02.129.067.165.075-.003.019.129.035.166.035-.004.008.055.042.066.047.036.008.071.027.105.039.036.009.056.024.083.028.011.051.117.098.165.089.042-.007.062 0 .097.017.048.024.064.027.103.02.02.004.098 0 .094.008.027.008.012.019.032.023.031.047.271.008.329.012.051-.008.439-.016.499-.008.046 0 .082-.019.125-.019 0-.02.152-.04.173-.043.078-.015.161-.02.196-.102.067-.02.114-.105.126-.165.008-.008.039-.071.039-.071l.043-.165c.008-.051.036-.09.036-.153.004-.051.016-.294-.027-.318.008-.051-.055-.125-.042-.153-.004-.02-.028-.059-.036-.094-.008-.031-.031-.028-.02-.075 0-.031 0-.031-.024-.059-.02-.039-.051-.055-.071-.078-.008-.031-.016-.071-.02-.079-.067-.039-.075-.106-.161-.106-.012.008-.086.021-.086.021-.016-.004-.07.019-.079.039-.035-.008-.054.047-.094.04-.016.027-.066.062-.09.055-.031.047-.141.016-.149.043-.031 0-.185-.02-.193.023-.026-.008.012 0-.034 0-.009.016-.06-.008-.067-.008-.02.004-.072-.02-.075-.023-.007.031-.471-.02-.463-.067-.043-.004-.103-.036-.156-.051.003-.016-.123-.047-.142-.051.008-.021-.098-.067-.13-.076-.016-.059-.071-.082-.071-.141.004-.063.008-.122.04-.173.024-.05.083-.042.102-.098.024-.016.059-.023.067-.047.028.004.055.004.087.011.035 0 .067-.011.105-.011-.004-.02.204.004.201-.02.07.012.129.027.2.016.024-.008.058 0 .09-.008.02-.008.023-.016.039-.012 0 .031.271.02.271.02.008.004.074 0 .074-.008.031 0 .671.012.676-.024.016 0 .204-.011.266-.007 0-.008.067 0 .074-.032.012.004.106 0 .111-.008.082 0 .118-.042.2-.039.063.007.098-.016.154-.024 0-.02.058-.004.062-.023.035.012.157-.008.165-.067.043-.012.082-.083.09-.13.027.008.011-.235.046-.235 0-.04.008-.083.008-.122.008-.032-.004-.062.004-.114-.004-.003-.028-.059-.031-.066-.017-.016-.027-.051-.024-.071-.027-.008-.032-.161-.067-.173.004-.05-.039-.16-.083-.208.004-.016-.024-.051-.039-.067-.02-.031-.02-.051-.051-.067-.02-.035 0-.031-.04-.04-.023-.008-.056-.015-.066-.042-.004-.005-.063-.036-.063-.043-.032 0-.042-.024-.083-.024-.027 0-.083.032-.105.024 0 .02-.119.028-.129.024-.017.02-.071.047-.098.047-.028.035-.075.024-.114.024-.008.015-.146.027-.154.05-.058.004-.129.024-.203.021 0 .02-.365.036-.405.032-.004.035-.235-.009-.24.011-.043-.016-.074.008-.125-.004-.058-.017-.055-.056-.106-.087 0-.046-.004-.098.056-.133.016-.004.062-.055.062-.075.046-.016.071-.074.094-.129.012-.027.023-.067.047-.099.024-.015.047-.026.079-.054.028-.019.055-.036.075-.063.02-.012.031 0 .043-.036.027.008.082-.024.094-.04.032.008.059-.04.094-.047.036.008.06-.017.09-.008.004-.009.071-.036.094-.028-.004-.008.396-.027.495-.008.185.016.365.004.554.012.019.004.102-.004.098.004.02.003.109.02.121-.012.008.003.063-.004.058-.012.036.008.083-.008.12 0 .02.008.368-.028.423-.024.11.031.189.024.287.02.039.012.063-.008.094-.02.064-.043.146-.303.137-.396.003-.02-.044-.153-.047-.153M66.832 131.426s-.043-.133-.043-.153c0-.02-.032-.165-.035-.169-.012-.062-.035-.125-.051-.196-.023-.004-.015-.099-.042-.102.004-.041-.059-.099-.099-.122-.063-.036-.109-.071-.184-.067 0 .007-.078.027-.103.047-.031.012-.067.02-.086.036-.012.016-.056.027-.067.035-.012.015-.055.024-.082.024-.028-.004-.169.051-.173.062-.043-.012-.093.016-.13.016-.002.02-.105.028-.121.02-.012.036-.248.016-.251.023-.027-.003-.114-.015-.114 0-.066-.007-.113-.02-.172-.015-.122.024-.232.012-.349 0-.036-.008-.264.004-.255-.024-.039-.008-.071-.04-.09-.078-.015-.013-.051-.024-.063-.036-.007-.031 0-.047-.003-.083.012 0 .035-.074.056-.078.011-.028.065-.075.082-.083 0-.016.031-.043.047-.059.012-.035.024-.012.036-.052.012.004.04-.039.048-.058.015-.028.045-.06.07-.071.008-.043.059-.058.087-.098.031.007.042-.024.078-.028 0-.008.063-.003.075-.011.008-.028.188-.021.192-.044.016.008.121.016.121-.003.032.007.072-.02.11-.028.039.004.271.016.274-.015.02-.008.185-.012.185-.037.102-.003.153-.026.239-.015.032-.004.111-.004.111-.017.04.005.09-.004.145.005 0-.036.169-.031.204-.04.099.008.185-.023.259-.016 0-.031.193.02.197-.007.117 0 .247 0 .373-.024.032-.016.24-.012.24-.012.075.005.154-.031.224-.02.003-.011.118-.062.137-.059 0 0 .09-.047.106-.062.039-.043.05-.086.062-.137.008-.063.021-.201.021-.221.027.009.019-.368-.028-.368.004-.02-.04-.181-.04-.216-.007-.052-.074-.311-.089-.329-.008-.017-.036-.021-.036-.032-.047-.004-.078-.052-.106-.09-.039 0-.047-.059-.086-.055 0-.02-.07-.031-.086-.035-.004-.031-.278.008-.275 0-.03 0-.058.027-.094.027 0 .02-.11 0-.134.004 0 .011-.474.059-.479.083-.045-.004-1.157.133-1.157.162-.02-.004-.318.039-.385.031-.007.024-.231.011-.267.004-.02 0-.212.016-.212.016-.015-.005-.196.012-.201.031-.05.003-.156.039-.164.109-.008-.003-.024.032-.028.052-.043.02-.051.046-.079.071-.028.016-.02.046-.059.067 0 .019-.027.055-.039.102-.008.032-.004.051-.039.071-.027.016-.024.047-.052.052-.004.019-.015.058-.035.062-.02.078-.067.102-.091.18-.007 0-.062.13-.062.15-.012-.004-.075.115-.078.134-.013-.004-.056.059-.053.07-.039.016-.042.071-.078.091-.008.027-.043.027-.047.07-.032.012-.035.075-.071.075-.004.036-.079.079-.103.102-.007.024-.055.047-.074.051-.142.047-.075-.137-.043-.203.02-.047.046-.244.067-.248.003-.051.011-.109.019-.141.008-.04-.012-.071-.008-.114.008-.07-.008-.156 0-.223.008-.036-.011-.15-.039-.157.004-.02-.016-.086-.024-.129 0-.013.008-.06-.012-.056 0-.04-.028-.047-.02-.079-.036-.008-.046-.07-.051-.105-.016-.024 0-.027-.016-.035.004-.041-.024-.024-.02-.06-.056-.039-.036-.137-.095-.173 0-.035-.055-.089-.083-.118.004-.03-.074-.07-.07-.09-.02.008-.122-.066-.122-.074-.02-.012-.153-.051-.153-.051-.031-.008-.066-.056-.094-.056.004-.007-.326-.106-.357-.113-.095-.012-.126-.048-.208-.055-.06-.005-.345-.091-.384-.094-.021.007-.036-.016-.056-.012-.003-.012-.597-.11-.655-.113-.04-.012-.475-.067-.51-.067 0-.047-.958-.059-1.048-.027-.048.003-.216.031-.271.019 0 0-.2.027-.216.051-.031-.007-.09.059-.094.09-.05.032-.247.032-.341.047-.043.004-.103.071-.137.106-.024.023-.063.051-.071.094-.004-.004-.043.036-.043.051-.027.02-.039.059-.086.055-.067.008-.114-.122-.114-.161.004-.028-.004-.086.004-.122-.008 0-.02-.052-.02-.059-.017-.012-.032-.04-.032-.046-.015-.028-.054-.048-.047-.075-.015-.016-.015-.032-.027-.04.004-.021-.023-.04-.043-.063-.043-.066-.122-.125-.208-.137-.012-.032-.083-.052-.11-.059 0-.012-.102-.008-.113-.012-.087.015-.161.051-.224.106-.047.04-.062.055-.079.121-.024.008-.007.134-.035.126-.012.117-.032.196-.036.321-.019-.008-.039.149-.031.177.015.043-.004.066-.02.125-.028-.009-.047.145-.059.18-.016-.008-.047.224-.059.259-.024-.004-.046.235-.059.278 0 .027-.055.333-.059.333 0 .047-.027.072-.02.126.004.008.02.118-.008.105-.008.043-.056.291-.071.287-.004.046-.016.106-.02.169.016-.012-.012.035-.016.051-.008.035-.043.075-.062.133-.02-.008.008.008-.016.005-.02.031-.027.023-.067.023-.086-.012-.089-.129-.137-.169.003-.043-.079-.126-.103-.149-.004-.04-.027-.09-.051-.098 0-.043-.086-.114-.105-.153 0-.02-.032-.067-.048-.086-.035-.027-.054-.095-.093-.118.004-.016-.012-.063-.016-.063.003-.078-.126-.133-.142-.232-.004-.043-.055-.078-.047-.117-.039-.032-.027-.067-.063-.103l-.034-.066c0-.033-.008-.095-.036-.11 0-.036-.051-.072-.043-.106.004-.012.032-.083.016-.086-.008-.016-.023-.134-.039-.138.016-.067-.008-.177.031-.247 0 0 .013-.232.013-.267.007-.078.015-.161.027-.235-.024.004-.016-.087-.004-.118 0-.04.041-.282-.016-.291.004-.02-.031-.102-.059-.109-.007-.021-.047-.047-.07-.047 0-.016-.122-.04-.11-.071-.062-.027-.086-.074-.137-.098-.051-.027-.083-.036-.146-.036-.036-.011-.27-.09-.274-.035-.024.004-.094.02-.094.02-.036.008-.062.032-.091.024-.003.011-.07.035-.098.058-.023-.007-.04.04-.074.043.003.008-.115.161-.106.153-.017.083-.055.137-.06.201-.007.098-.051.168-.058.287 0 .046-.004.058-.012.098-.004.036-.019.063-.028.094-.027-.008-.046.263-.027.259 0 .024.02.13.036.133-.008.122-.012.236-.016.354.007.039-.02.079-.023.122-.008.054-.012.117-.023.176-.012.047-.009.11-.032.169-.02.058-.028.122-.036.192-.008.062-.012.118-.028.176-.034.067-.05.134-.07.188-.032.094-.075.201-.086.287-.004.027-.072.252-.083.248-.02.074-.066.141-.078.212-.028 0-.04.188-.067.184-.016.153-.086.217-.118.374-.028.129-.051.224-.091.338-.015-.004-.027.047-.027.062-.016-.003-.036.126-.032.137.012.004-.043.185-.043.224-.004.043.004.063-.012.11-.012.039-.031.074-.035.113 0 .059.02.11.004.168-.008.037-.02.079-.027.114-.005.063.027.09.027.153.004.059-.004.129.039.185.017.016.021.042.04.042.023.043.046.028.082.047.02.063.216.066.22.094.052.004.095.015.153.015.031.008.275.063.302.071.106.035.114-.071.185-.09 0-.024.043-.125.058-.121.009-.047.028-.043.032-.087.02.008.035-.121.04-.145.027-.051.062-.102.07-.165.004-.056.012-.118.016-.181.011-.113.05-.18.058-.298.016.004.016-.172.016-.192.036.012.032-.2.062-.2.004-.02.052-.099.056-.11.016-.074.079-.173.086-.244 0 0 .103-.271.11-.301.02.008.039-.11.031-.119.008-.031-.004-.059.027-.066.004-.02.024-.016.028-.04.027.008.023-.012.051-.004.008-.027.035-.02.047-.027.031.008.047.011.071.027.015.016.015.036.035.039.032.028.063.099.094.13 0 .04.071.059.067.11.023.012.017.075.027.079.004.031.027.078.052.117.015.055.003.091.046.137.024.024.043.059.04.079.008 0 .023.04.021.056 0 0 .042.078.046.086.02.04.055.047.055.091.008.011.055.082.051.105.028.008.028.056.067.083-.004.047.047.071.043.106.031.008.024.114.055.142-.004.019.032.07.052.085.007.052.032.079.043.126.004 0 .027.098.031.118.02.003.039.145.036.164.023-.004.008.169.031.173-.008.071-.02.145-.027.22.012.003.008.102.02.13.012.003.043.102.036.129.031 0 .004.114.035.122-.004.02.008.055.032.07.04.031.055.091.09.118.036.051.056.079.083.123.075.031.122.054.208.054.035.013.389.067.396.072.043-.012.075-.024.115-.024-.004.008.093-.048.105-.055 0-.027.063-.066.063-.094.011.004.03-.055.03-.067 0 0 .071-.114.079-.133.007.004.051-.146.055-.181.02.004.07-.259.078-.294.008-.062.016-.133.023-.18-.003-.024-.015-.056-.011-.083.011-.09.02-.235.023-.337-.023.003-.02-.15-.02-.189.004-.102.031-.192.051-.306.027-.114.055-.235.062-.333 0-.083.031-.126.04-.193.012-.062.028-.105.04-.165.012.003.008-.129.02-.161.004-.048.012-.118.027-.177.012-.046.036-.106.042-.145.008-.075.008-.13.017-.188.003-.051 0-.074.011-.118.036-.113.032-.243.047-.361.021-.055 0-.109.023-.168.02-.027.017-.056.017-.086.019-.094.019-.162.027-.251.02-.078-.079-.121-.046-.208.015-.048.042-.079.046-.122.008-.039.016-.098.05-.117.043-.024.072-.016.13 0 .024.05.07.102.11.136.043.008.094.062.153.067.02-.005.239.074.239.047.04 0 .212 0 .22-.016.04-.009.071-.012.098-.047.02.003.086-.028.091-.04.055.008.114-.051.173-.055.03.007.05-.008.082-.008.004-.007.105 0 .133-.007.056.011.106.019.157.004.052-.008.075 0 .122.011-.004.008.066.027.09.032.008.016.059.102.055.098-.023.137-.043.279-.066.417-.008.055.004.142-.023.196-.024.047-.056.079-.075.122-.031.007-.016.031-.042.031-.024.015-.047.043-.075.055-.042.008-.082.027-.118.027 0 0-.09.012-.122.004-.055-.008-.083-.016-.129.004-.051.003-.169.071-.173.117-.031-.011-.047.122-.074.115 0 .031-.181.608-.169.604 0 .008.028.138.028.138 0 .043.015.133.054.16.004.031.039.083.067.09.016.016.04.083.043.087-.004.035.058.07.082.098.024.039.062.059.086.105.036 0 .056.047.083.056 0 0 .11.055.118.07.007.047-.043.318-.056.315.005.05-.015.07-.015.109-.043-.011-.071.311-.071.342 0 .027-.027.055-.031.082-.008.043.008.067.004.106-.008.047-.067.235-.056.294.008.012-.078.35-.055.345.004.04 0 .083.004.122.043.011.012.188.043.196-.012.051.105.185.141.192.008.031.058.035.083.063.01.027.046.035.058.07.016-.008.059.024.055.032.043.019.071.039.106.047.039 0 .271.024.271.003.015.005.086 0 .09-.019.023.008.055-.023.074-.02.035-.032.059-.036.09-.06.017-.003.043-.05.047-.05.004-.017.02-.04.02-.075.004-.04.087-.349.09-.369 0-.039-.003-.063.004-.099.02-.039.028-.082.028-.129-.024.004.04-.235.04-.263.011 0 .058-.291.055-.33.032 0 .066-.165.075-.192.03.008.066-.301.074-.301.004-.028.02-.169.055-.169.024-.098.051-.172.063-.263.016-.059.04-.07.059-.114.024-.016.028-.047.036-.043.032-.02.04-.043.079-.043.11 0 .228-.023.329-.036.008-.023.122-.026.122-.051.032 0 .06-.012.099-.012.007-.022.094-.019.114-.019.004-.02.149-.047.177-.039 0 0 .082-.024.086-.024.019-.031.046-.051.066-.054.024-.008.036-.012.051-.032.02-.004.047.004.071.008.008-.028.083-.004.09-.031.011.003.125-.024.125-.032.043.004.051-.008.083-.032.023-.011.734-.452.773-.452.02-.003.086-.019.086-.031.032 0 .056-.024.094-.024.024-.046.031-.043.059-.039-.008.02-.047.177-.063.168 0 .036-.027.059-.031.079-.04.07-.063.109-.08.161-.023.004-.05.141-.086.133 0 .02-.035.075-.039.071-.008.028-.02.036-.031.074-.032.012-.036.063-.043.091-.008 0-.031.074-.031.085-.02-.007-.048.162-.075.153.004.005-.086.185-.082.185-.008.071-.067.137-.075.208-.004.027-.056.196-.063.196-.004.012-.023.106-.027.106-.008.051-.011.114-.027.165-.024.079-.027.149-.031.232-.016.051-.016.098-.012.149 0 .086.012.18.008.239 0 .031 0 .267.032.275 0 .008.02.079.027.083-.004.032.027.047.027.079.035.02.011.04.035.062.004.031.016.036.016.056.031.015.047.07.078.113.039.036.059.169.13.189.012.031.075.066.098.106.04 0 .047.074.086.074.02.04.055.055.091.067-.004.008.07.056.082.059-.007.024.098.052.106.083.004 0 .063.039.063.039.035.017.063.031.09.031-.008.032.157.075.188.083.059.016.11.047.173.059-.004.016.109.027.133.036.052 0 .11.026.162.042.062.004.125.02.188.024.043 0 .266.062.31.055.008-.02.067.008.075-.02.062.003.109.02.196 0 .035-.012.113-.047.145-.04.024-.04.177-.042.185-.071.031.008.141-.016.16-.039.036-.008.103-.028.119-.051.015.003.059-.012.059-.012.027-.004.074-.036.09-.051.036-.036.134-.074.141-.118.039-.02.071-.086.091-.134.011-.015.027-.152.043-.156.003-.016.05-.225.027-.228.008-.048.051-.338.015-.338.008-.063-.026-.102-.035-.176-.012-.004-.028-.099-.031-.118-.027-.015-.032-.071-.059-.082-.032-.048-.086-.114-.142-.118-.023-.008-.215.004-.22.024-.02-.004-.14.027-.145.032-.059-.012-.106.035-.157.042-.043.028-.055.024-.118.031.004.004-.055.016-.067.012-.007.02-.074.008-.074.02-.063.008-.063.015-.114.024 0 .02-.079.035-.09.027 0 .021-.105.012-.125.016-.122.024-.248.04-.362.008-.036-.012-.231-.051-.228-.063-.036-.007-.04-.035-.074-.035-.008-.032-.056-.063-.078-.075-.012-.035-.063-.066-.091-.066-.012-.032-.039-.074-.062-.086-.015-.016-.043-.114-.067-.11.012-.047.004-.083.016-.13.032-.023.059-.055.087-.078.027 0 .027-.028.051-.02.016-.028.047-.028.075-.028.066-.02.118-.055.188-.043.113.008.176-.015.282 0 .091.017 1.319-.027 1.39-.035.063.02.441-.012.57-.008.059.004.11-.003.165.012.003-.019.089-.035.102-.031.04.008.062-.008.098 0 .004-.008.066-.039.074-.035-.004-.004.114-.043.133-.074.027-.031.056-.052.056-.095.012 0 .039-.055.043-.062.016.003.055-.08.063-.106.024.012.024-.267.028-.306m-4.868-2.127c-.027.067-.051.121-.13.16-.004.008-.071.043-.083.043-.02.032-.083.051-.11.051-.004.02-.043.027-.066.035-.016.017-.036.028-.062.024-.004.008-.079.031-.099.036-.04.046-.106.058-.166.058-.059.012-.121.043-.192.032.005.031-.106.012-.125.008-.058-.008-.102-.008-.141-.047-.012-.024-.024-.016-.02-.036-.023-.031-.004-.035-.032-.055 0-.027.004-.165-.023-.153.003-.036-.004-.212-.021-.216.004-.02.008-.102-.007-.105.007-.036.016-.067.023-.106.004-.04-.012-.056 0-.098.004-.055.016-.122.082-.122.064-.008.118 0 .178.004.046 0 .062.004.104.012 0 .027.084.023.084.047.058.008.089.016.148.016.032.008.063.031.099.023l.161.048s.071.031.082.036c.059.015.099.055.146.058 0 .04.152.047.183.114.006.018.03.133-.013.133M82.408 131.018c-.016-.004-.028-.119-.036-.122.003-.012-.02-.103-.035-.106-.009-.056-.047-.098-.055-.142-.023-.015-.032-.094-.06-.102.008-.024-.023-.047-.02-.075-.036-.027-.062-.079-.105-.118.007-.015-.036-.051-.043-.078-.027-.004-.055-.052-.078-.079-.023-.019-.051-.031-.079-.04-.058-.027-.099-.027-.165-.023 0 .012-.196.004-.228-.004 0 .036-.142.031-.146.056-.043.004-.377.031-.412.042-.047.012-.141.005-.185.008-.024.004-.432.035-.514.023-.04-.008-.22-.016-.22 0-.083-.008-.153-.008-.263-.02 0 .027-.263.008-.29.004-.126-.011-.248.027-.354.027-.122-.008-.644.036-.711.024 0-.004-.604.039-.679.031-.078 0-.118-.004-.181-.008-.07.016-.13.031-.196.04-.04.008-.196.008-.196.027-.052-.004-.075 0-.119.043-.034.027-.066.043-.093.075-.041-.008-.076.055-.103.078-.035.024-.059.099-.07.138-.027-.011-.087.106-.099.137-.019.004-.059.142-.067.138-.003.039-.027.086-.027.113-.004.047.008.087-.004.121.012.067.004.126-.02.181l-.015.056c-.02.043-.024.024-.036.059-.016 0-.046.078-.062.074 0 .028-.04.059-.047.079-.008.048-.07.094-.07.133-.024.008-.094.13-.106.169-.004-.004-.035.062-.035.075-.016-.004-.032.04-.036.047-.008 0-.094.173-.091.196-.02.004-.094.169-.094.197-.031-.008-.051.153-.078.156-.028.068-.062.095-.066.157-.032 0-.051.181-.079.173 0 .062-.059.129-.063.192-.031 0-.026.482-.089.475-.008.062-.118.125-.173.059 0 0-.039-.032-.039-.051-.008.008-.004-.019-.02-.024-.008-.035-.023-.026-.047-.047-.015-.024-.02-.067-.055-.062 0-.02-.02-.004-.016-.016-.012-.011-.094-.023-.099-.003-.011-.004-.07.008-.077.031-.048-.012-.103.031-.126.067-.02.015-.102.054-.133.059-.02.015-.032.05-.072.047-.003.016-.027.008-.039.023-.016-.003-.13.04-.125.055-.027-.012-.133-.02-.137 0-.04 0-.06.004-.103.004-.004.02-.219-.009-.247-.017 0 .02-.169-.016-.22-.011-.059-.008-.11-.047-.165-.062-.066-.036-.118-.04-.192-.051.008-.024-.13-.051-.126-.079-.047-.004-.079-.067-.129-.063.008-.024-.129-.051-.134-.082-.023-.015-.051-.059-.078-.059 0-.036-.047-.056-.062-.06.004-.011-.043-.023-.056-.026-.039 0-.02-.024-.047-.031-.016-.024-.044-.075-.074-.079.003-.032-.149-.138-.173-.16-.023-.052-.075-.052-.091-.087-.027-.008-.034-.059-.074-.059-.012-.036-.031-.027-.042-.056-.012-.011-.024-.027-.04-.043-.047-.02-.059-.058-.098-.078-.024-.037-.071-.048-.066-.103-.028.008-.004-.036-.008-.047.016-.058.011-.11.016-.161.02-.079.083-.125.083-.185.011.004.058-.102.062-.118.004-.02.067-.082.079-.082 0-.028.026-.032.031-.063.032-.012.043-.039.07-.055.017-.035.048-.09.083-.102-.003-.02.05-.078.075-.082.024-.043.055-.062.095-.094.003-.032.055-.04.066-.075.036-.023.048-.059.087-.086.004-.016.098-.095.125-.087.035-.042.07-.042.105-.083.024-.012.083-.031.09-.07.048-.04.071-.043.134-.067.039-.04.074-.04.114-.087.047-.004.05-.023.103-.032 0-.007.074 0 .074-.024.055-.004.071-.043.122-.059.019-.004.106 0 .113-.019.008.004.071-.012.067-.016.043.004.083-.003.122-.003.019.003.083-.024.086-.032.043-.008.115.012.153.012.027.004.086.031.082.059.031.02.051.106.04.138-.004.058-.011.098-.036.141-.031.047-.082.228-.082.256.015-.005.011.078.003.074-.007.051-.031.185-.035.201-.024.051-.02.145.011.196.004.024.017.026.036.031-.004.02.005.028.02.032.012.027.028.031.047.04.009.012.047.05.047.05.024.005.07.028.074.052.047.008.047.063.082.063-.003.039.158.051.186.059.031-.004.046-.015.062.024.007.004.105.05.109.031.02.008.255.019.26.008.047 0 .071-.051.114-.062.003-.012.039-.051.055-.055.008-.032.047-.051.071-.062.011-.04.02-.028.039-.063.027-.067.071-.075.09-.129.021-.016.036-.012.031-.036.036-.024.095-.2.103-.2.008-.028.036-.04.04-.082.012.003.024-.075.032-.091.028.004.039-.204.039-.247.008-.064.039-.146.035-.217-.003-.036.012-.216-.02-.224 0-.02-.012-.133-.04-.129.005-.046.005-.094-.01-.141-.056-.023-.044-.114-.091-.157-.02-.024-.055-.051-.055-.094.008-.027-.016-.016-.008-.047-.031-.02-.047-.062-.074-.09-.036-.051-.062-.066-.09-.102-.02-.051-.055-.098-.103-.122.008-.024-.031-.024-.035-.043-.035-.02-.06-.035-.083-.051-.043-.027-.117-.043-.153-.051-.051-.004-.075.008-.118-.004-.028.004-.055-.004-.094-.004-.031-.008-.412-.023-.412.008-.019-.004-.15-.012-.145 0-.017-.004-.075 0-.083.024-.02-.008-.097-.02-.102-.012-.012 0-.267.043-.385.056-.003.007-.055.023-.078.026-.032.012-.055.016-.094.02-.017.004-.146.007-.15.016-.016-.004-.11.02-.114.027-.063 0-.113.04-.172.036-.062.012-.137.067-.2.059-.017.024-.083.051-.11.055-.004.008-.035.016-.055.012 0 .019-.086.031-.09.058-.05-.003-.05.005-.094.021-.004.008-.091.035-.099.039-.043.008-.062.059-.103.059-.015.02-.16.102-.196.102.004.024-.035.02-.075.032-.019.007-.099.042-.094.058-.02-.003-.075.031-.075.031-.039.012-.039.036-.05.059-.016.035-.118.099-.138.118-.043 0-.066.087-.113.083-.005.008-.044.043-.056.047.004.02-.016.016-.027.043-.015.004-.051.051-.051.067-.043.031-.059.046-.078.082-.02.047-.056.07-.071.118-.046.004-.051.086-.089.098-.008.016-.036.063-.04.063-.004.026-.055.105-.103.089-.078-.016-.075-.137-.063-.2 0-.027-.019-.032-.007-.075-.016-.003-.016-.094-.016-.113-.02.007-.016-.173-.012-.201-.011 0-.031-.212-.031-.219-.023-.008-.003-.185-.031-.185.008-.07-.023-.14-.032-.216.008-.027.024-.346.004-.349-.008-.013-.012-.063-.027-.067.003-.016-.012-.074-.028-.091.004-.039-.047-.073-.047-.113-.004-.035-.012-.062-.031-.082 0-.008-.031-.09-.055-.103.004-.02-.023-.074-.047-.09-.024-.036-.165-.311-.177-.313-.023-.024-.039-.083-.082-.095-.005-.047-.09-.082-.133-.117l-.098-.024-.056-.016c-.075-.02-.24-.094-.298-.016-.039.008-.059.027-.086.047-.027.023-.051.071-.079.063-.024.03-.09.066-.129.086-.024.046-.072.046-.102.074-.032.028-.059.059-.095.079-.031.023-.066.046-.094.066 0 .023-.023.047-.039.043-.004.075-.141.11-.166.161-.007 0-.073.087-.07.099-.047.016-.071.102-.121.118-.008.031-.02.047-.051.067 0 .023-.035.046-.047.055-.016.093-.134.125-.165.212-.024.015-.033.074-.052.078-.003.036-.074.074-.078.11-.017-.004-.04.054-.059.066-.016.031-.052.059-.056.098-.015-.004-.02.058-.054.058-.009.04-.032.062-.04.091-.017-.004-.063.09-.067.102-.008.036-.051.043-.06.083-.015.008-.046.071-.059.071-.008.024-.026.074-.046.078-.024.062-.068.083-.096.142-.015.042-.07.074-.074.118-.015.007-.086.105-.093.133-.013-.003-.047.079-.055.094-.028.067-.056.103-.103.138-.036.016-.086.07-.114.062-.02.023-.039.011-.066.046-.035 0-.043.02-.078.051-.04.031-.091.047-.115.083-.007.047-.02.086-.032.134-.019.059-.011.102-.015.141 0 .028-.024.059-.028.086-.026 0-.054.177-.098.177-.004.024-.02.078-.04.094-.003.02-.031.051-.039.074-.024-.004-.048.137-.079.13-.004.062-.075.117-.115.188-.027.004-.086.09-.094.117-.012-.008-.086.067-.09.103-.019.003-.039.046-.047.071-.04.015-.043.046-.075.07-.003.011-.031.052-.042.047-.012.07-.086.114-.11.193-.04.089-.062.129-.094.204-.028-.005-.028.121-.031.145-.021.008-.033.059-.028.078-.007.091.008.169.008.26.016-.004.024.165.062.192-.003.027.042.051.064.09.039.011.403.247.435.274.056.059.122-.016.166-.023.046-.041.085-.06.141-.099.016-.016.047-.027.052-.046.007 0 .004-.021.027-.024.027-.067.062-.095.09-.161.031-.012.027-.031.062-.055.008-.032.015-.028.031-.067.024.004.138-.239.153-.247.004-.028.024-.052.036-.099 0 0 .039-.055.047-.074.02-.004.031-.043.059-.059.004-.035.032-.035.036-.067.007 0 .05-.055.055-.079.008 0 .063-.086.078-.106.047-.039.094-.075.146-.114.031 0 .059-.023.094-.023.004-.016.047-.032.058-.032.004-.015.165 0 .173-.023.028-.004.236-.021.24-.028.047.012.102-.015.166-.007.004-.008.145-.032.16-.027.099.003.232.02.346.027 0 0 .279.015.274.05.062.036.126.13.118.201-.008.099-.016.2-.056.301-.015.076-.026.177-.043.279-.003.129-.035.279-.011.412-.004.083-.032.224.043.264-.004.027.031.071.035.098.023.019.063.082.086.11.024.031.105.079.149.09 0 .02.098.067.121.071.04.011.06.027.095.027.012.004.071-.011.074 0 .028.004-.015.016.033.008 0 .02.101.028.117.02.004-.008.072-.015.072-.024.035-.02.073-.039.102-.063.047-.062.086-.089.102-.153.016-.023.047-.086.055-.113.027-.012.04-.063.047-.09.012-.04.023-.232.051-.244.016-.121.012-.243.027-.377.008-.11-.02-.228-.008-.329.012-.13.051-.244.071-.361.015-.016.086-.157.082-.193.016.004.02.004.02-.015.024.004.051.004.071.008.02.024.043.043.055.079.02.027.012.051.043.067 0 .036.015.016.015.051.052.043.055.126.106.182 0 .03.085.184.113.195.008.02.028.004.043.027-.004.024.015.048.031.055.007.04.02.04.047.071.047.074.109.114.156.188.071.028.105.11.173.154.02.05.066.062.094.098.015.04.058.063.07.087.036.015.055.031.074.07.02.016.063.067.091.075.039.026.071.036.102.086.02.008.051.036.063.059.008.004.047.021.055.024.004.027.043.055.062.062.016.043.074.027.087.071.019.004.066.04.062.047.02.008.114.051.109.071.041 0 .06.066.103.07 0 .02.059.043.075.047 0 0 .153.052.145.071.043.012.051.055.086.059-.004.015.087.031.103.031-.003.031.086.055.098.059.047.008.059.03.113.05.056.013.099.048.159.064.034.02.043.031.078.039.004.02.09.024.102.02.04.009.059.036.094.032.04.012.094.028.146.031.11.02.216.059.31.071.071-.003.138-.003.204-.003.047.007.07 0 .103-.004.062.004.102-.027.165-.032.059-.015.114-.07.165-.11.043-.039.087-.05.125-.09.04-.02.04-.063.083-.094.023-.012.059-.043.059-.067.008.004.094-.106.094-.113.027-.024.079-.103.086-.134.017.004.048-.071.052-.086.011-.028.042-.067.042-.083.028.003.075-.138.13-.122.004-.007.074.02.074.043.024.027.028.046.059.075-.004.016.027.083.042.083.023.028.055.098.087.105.019.024.055.036.055.079.016.016.004.02.027.047.005.012.043.04.056.043.031.043.075.074.098.11.024.007.028.032.043.055.024.015.042.012.047.031.023.008.082.051.098.078.011.016.051.063.078.059.02.07.362.188.384.208.072.027.153.059.236.07-.012.032.208.047.232.043.149.02 1.346.048 1.354-.02.063.005.381-.118.425-.13.062-.007.185-.298.192-.326.02.004.099-.499.11-.596-.012-.055-.04-.105-.094-.13-.004-.035-.043-.051-.056-.086-.054-.071-.137-.157-.078-.224.016-.02.078-.031.078-.051.035.008.075-.024.114-.024.063-.024.118-.031.181-.035.003-.009.156-.072.18-.104.004-.062.098-.141.133-.165.024-.012.047-.04.047-.067.039-.003.074-.196.083-.244-.004-.05.004-.118.011-.172 0-.035-.003-.063-.003-.106.003-.039.011-.109-.021-.137 0-.02-.208-.443-.204-.467-.027-.02-.03-.066-.07-.078.004-.008-.047-.04-.056-.04-.003 0-.058-.047-.062-.066-.011.008-.078-.027-.078-.027-.079-.032-.166-.043-.216.023-.028.004-.216.024-.216.024-.027-.004-.25.004-.271 0-.02-.004-.14-.016-.145.004-.039-.011-.071 0-.118-.011-.089-.024-.173-.048-.255-.059-.074-.012-.125-.023-.192-.016-.015-.005-.118-.024-.118-.031-.09-.016-.169-.043-.255-.06-.051-.058-.059-.102-.043-.176.008-.039.142-.184.15-.227.017.004.017-.04.031-.043.02-.028.066-.067.063-.086.067-.047.102-.056.161-.099.047-.024.047-.05.098-.059 0-.012.546-.02.589-.016.094 0 .129-.02.228-.023 0 0 .314.019.358.023 0 0 .271-.004.298.004.031 0 .192.024.188 0 .06 0 .118 0 .169.004.04.008.071.021.13.016.051-.008.082-.012.134.004.02.003.066.003.103-.008.039.004.302.031.346.02.058-.011.141.012.196.024.003-.02.063-.012.078-.008.036.008.06.024.114.02.043-.012.079-.012.126 0 .047.004.083-.008.137-.003.055.007.11.023.172.003.098.017.396.074.475.098.066.027.114.04.189.047.035.004.04-.008.083.011.035.021.094-.007.133-.026.043-.016.056-.056.056-.094.048.002.077-.603.081-.63m-4.582 2.908c0 .032.279.012.346.051l.208.051c.012-.004.063-.011.059.008.047.024.075.039.122.055.043 0 .07.031.106.027.031-.003.066-.003.105.016.024.016.032.063.027.09-.003.02-.007.062-.023.075-.016.02-.644.027-.667.02 0 .042-.68-.005-.754-.005-.016-.008-.082-.012-.082-.035-.048 0-.146-.003-.146-.036-.031 0-.011-.024-.035-.031 0-.02-.039-.02-.059-.024-.008-.004-.083-.043-.079-.06-.042-.026-.172-.121-.152-.176.02-.051.055-.078.102-.106.059-.028.09-.019.158-.004.003-.015.109.032.125.035.015.004.063.008.066.02M44.135 130.35c-.02-.015-.055-.046-.067-.07-.039-.02-.023-.087-.062-.09-.023-.024-.036-.047-.055-.082-.074-.021-.074-.138-.152-.166-.041-.012-.048-.043-.094-.056 0-.011-.052-.058-.06-.058-.023-.036-.051-.036-.082-.072-.008-.003-.075-.058-.075-.073-.039-.012-.043-.024-.094-.024-.027-.035-.062-.133-.102-.141-.008-.008-.067-.056-.083-.052-.02-.047-.051-.066-.074-.102-.036-.052-.047-.086-.075-.122-.03-.031-.085-.079-.082-.114-.023-.008-.011-.086.004-.105.011-.016.039-.04.062-.052.024-.026.051-.05.058-.078.017.004.149-.114.173-.137.028-.036.043-.051.09-.082.004-.021.008-.041.036-.048.008-.023.028-.086.047-.082.007-.043.067-.062.082-.106.017-.042.072-.07.075-.129.019.004.074-.138.082-.169.024.007.008-.129.036-.129 0-.013.02-.067.032-.079.02-.043.039-.051.039-.087.008-.043.036-.074.047-.118.009.004.032-.048.032-.059.02-.008.026-.083.026-.11.008-.056.008-.118.016-.188.012-.036-.008-.051.005-.102-.009 0 .03-.146-.005-.158.005-.066-.016-.113-.019-.18-.004 0-.024-.119-.032-.138-.008-.003-.016-.087-.016-.117 0 0-.023-.059-.023-.067-.035 0-.008-.188-.055-.192.008-.028-.047-.067-.047-.102-.015-.008-.109-.228-.113-.279-.016.004-.032-.059-.043-.087-.017-.031-.094-.105-.087-.133-.026-.028-.051-.094-.087-.106-.031-.051-.058-.055-.118-.094-.067-.02-.035-.059-.075-.091-.046-.043-.055-.055-.109-.07 0-.031-.173-.035-.165-.062-.09-.004-.169-.062-.255-.079.004-.008-.066-.035-.078-.04l-.087-.024c-.008-.027-.027-.015-.043-.023.008-.032-.133-.078-.156-.083 0 0-.201-.055-.229-.051-.039-.012-.271-.02-.275.02-.032.004-.032.008-.07 0-.004.012-.106.004-.126.008-.004.02-.141.012-.145.035-.04 0-.106.024-.153.063-.02.024-.075.063-.102.067-.024.031-.087.047-.087.086-.094.047-.118.188-.188.271-.059.079-.082.13-.09.235-.004.09-.024.142-.008.239.004.043.008.086.004.118.008.005.023.063.023.09.008 0 .032.063.043.08.004.011.024.059.04.07 0 .012.055.11.062.122.016.024.055.059.059.086 0 .012.012.109-.008.102-.004.027-.024.047-.032.083-.04 0-.083.146-.083.166-.021.004-.051.16-.074.165-.008.114-.114.177-.141.283-.017.059-.036.094-.04.121-.011-.004-.027.035-.031.047-.008-.004-.028.04-.04.051-.008.036-.055.043-.074.083-.024-.008-.043-.004-.07 0-.005.02-.06.004-.071 0 0 .012-.08.012-.099.008 0 0-.071.039-.082.055-.024.047-.017.094-.07.11-.04.02-.064.02-.076.071l-.043.153c-.015.035-.015.098-.015.149-.015.047-.031.105-.031.157 0 .062.012.118.024.161-.004.04.023.059.016.087.028.019.047.086.047.113.036.032.055.059.066.09.013.005.036.075.056.078-.012.047-.012.091-.02.138-.012.008-.055.285-.058.306-.024.114-.067.212-.079.307-.004.031-.051.219-.063.215-.007.094-.023.201-.039.303 0 0-.048.09-.024.098-.004.066-.012.125-.015.2.003 0 .035.153.035.181.011.003.02.054.016.078.004 0 .04.058.035.079.04.026.024.07.059.089-.004.032.043.063.067.08.058.07.09.172.18.195.082.02.244.028.231.059.036.008.062.008.095 0 .062.016.097.028.168-.003.003-.016.051-.087.071-.094.004-.031.039-.04.046-.067.032-.004.028-.078.051-.078.004-.035.035-.056.04-.082.012 0 .02-.245.028-.275-.036.007.003-.205 0-.224.003-.052-.004-.11.003-.166-.003-.027-.016-.086-.011-.125.008-.059.016-.11.011-.169-.003-.047-.011-.099 0-.126.016.004.079-.196.079-.216.02.008.098-.13.103-.157.031 0 .055-.059.098-.066.046.004.046.004.09.055.024.024.055.106.098.11.016.031.062.09.089.114.028.036.068.027.087.062.016.02.047.047.074.051.02.063.114.083.146.154.026-.004.082.051.09.086.023.035.066.059.102.087.004.027.051.039.071.07.042.031.059.07.09.098.024.027.055.098.091.098.011.031.05.094.078.114.017.024.059.042.059.074.04.016.04.063.071.091.024.034.058.113.099.118-.012.039.055.078.066.109.04.043.067.091.102.13.031.007.066.071.09.094.043.016.051.086.094.09.009.012.056.043.08.051.071.015.102.071.188.078.027-.003.197.024.197-.003.042.008.165-.043.179-.09.028-.012.052-.016.08-.02.019-.023.062-.047.066-.083.012-.023.031-.046.039-.043.008-.036.067-.056.067-.086.027-.012.099-.066.099-.086.015-.013.043-.005.055-.047.062-.036.083-.106.09-.169.008-.102.02-.236.031-.342-.004-.003-.02-.091-.024-.11m-1.359-3.23c-.011.047-.031.074-.035.114-.004 0-.055.067-.055.079-.02.004-.063.055-.067.074-.015.012-.055.06-.055.06-.023.046-.071.074-.106.089-.035.036-.089.114-.129.114-.004.008-.023.003-.027.02-.032.003-.051.031-.075.054-.012-.003-.078.043-.09.047-.02.016-.047.028-.067.036-.04 0-.083.008-.138-.004-.035-.012-.031-.062-.02-.098-.024-.008.044-.236.051-.263.008-.043.036-.066.036-.094.027-.008.015-.14.043-.133m.047-.268c.031-.063.02-.13.02-.212.008-.028.051-.181.059-.181 0-.039.07-.102.114-.134.078.012.118.067.192.074 0 .008.113.083.141.087.027.051.079.074.103.122.036-.004.039.043.066.063-.003.016.009.074.021.074"/><path fill="#446C33" d="M42.804 126.841c-.011 0-.024-.059-.021-.075-.027-.02-.03-.067-.066-.063-.024-.047-.075-.07-.103-.122-.028-.003-.141-.078-.141-.086-.074-.008-.114-.062-.192-.074-.043.032-.114.094-.114.134-.008 0-.051.153-.059.18 0 .083.011.15-.02.212.008.024-.008.157-.015.153-.017.042-.027.059-.031.114-.028-.007-.017.125-.043.134 0 .027-.028.051-.036.094-.008.027-.075.255-.051.263-.011.035-.016.086.02.098.055.012.098.004.137.004.02-.007.047-.02.067-.031.012-.008.078-.055.09-.052.023-.023.042-.051.074-.054.004-.016.024-.012.028-.02.039 0 .094-.079.129-.114.035-.016.083-.044.105-.09 0 0 .04-.048.055-.059.004-.02.048-.071.067-.074 0-.012.051-.079.056-.079.004-.04.023-.067.035-.114.032 0 .04-.114.036-.134.009-.063.005-.094-.007-.145M69.371 131.469c-.036.008-.149-.004-.142-.043-.074-.07-.015-.145.024-.228.008 0 .024-.047.028-.055.024.003.035-.075.054-.071 0-.027.052-.11.083-.121.008-.036.047-.067.051-.11.026 0 .043-.102.066-.114.008-.031.054-.059.063-.09.023-.042.043-.047.055-.085 0 0 .075-.104.082-.118.024-.004.008-.043.028-.06.008-.034.103-.051.134-.015.046.027.042.129.042.169-.003.039-.016.306.004.294-.007.043-.031.282-.046.279-.013.09-.04.141-.048.2-.031.016-.012.051-.043.056-.007.027-.067.074-.079.078"/></g></g></svg>