<?xml version="1.0" encoding="utf-8"?>
<!-- Generator: Adobe Illustrator 16.0.0, SVG Export Plug-In . SVG Version: 6.00 Build 0)  -->
<!DOCTYPE svg PUBLIC "-//W3C//DTD SVG 1.1//EN" "http://www.w3.org/Graphics/SVG/1.1/DTD/svg11.dtd">
<svg version="1.1" id="Layer_1" xmlns="http://www.w3.org/2000/svg" xmlns:xlink="http://www.w3.org/1999/xlink" x="0px" y="0px"
	 viewBox="0 0 140.5 158.574" enable-background="new 0 0 140.5 158.574" xml:space="preserve">
<g id="RW_x5F_left_Color">
	<g>
		<text transform="matrix(1 0 0 1 117.1387 13.8682)" fill="#224168" font-family="'HelveticaNeue-Bold'" font-size="22.8009"> </text>
		<text transform="matrix(1 0 0 1 122.3369 13.8682)" fill="#224168" font-family="'HelveticaNeue-Bold'" font-size="22.8009"> </text>
		<g>
			<polyline fill="#231F20" points="105.281,136.508 97.399,37.428 102.522,135.049 			"/>
			<polyline fill="#231F20" points="82.228,124.921 77.78,11.171 79.994,123.28 			"/>
			<polyline fill="#231F20" points="63.5,125.306 77.414,12.085 61.548,123.434 			"/>
			<polyline fill="#231F20" points="87.668,133.482 96.928,36.58 85.14,131.725 			"/>
			<path fill="#FFFFFF" d="M92.539,49.024c0,0,10.811,66.19,5.695,74.688l-37.102-11.615
				C61.132,112.098,91.271,65.294,92.539,49.024"/>
			<path fill="#FFFFFF" d="M96.986,38.029c0,0,26.073,28.592,21.695,91.466c0,0-15.218,0.506-24.157-3.538
				C94.525,125.957,104.571,47.874,96.986,38.029"/>
			<polyline points="105.281,136.508 97.399,37.428 102.522,135.049 			"/>
			<polyline fill="#231F20" points="82.228,124.921 78.121,4.349 80.005,123.186 			"/>
			<polyline points="64.14,125.385 78.062,5.122 62.176,123.453 			"/>
			<polyline points="87.668,133.482 96.928,36.58 85.14,131.725 			"/>
			<path fill="#FFFFFF" d="M76.39,14.382l1.402,69.711c7.207-13.091,14.154-27.446,14.747-35.069c0,0,3.564,21.833,5.628,42.033
				c1.853-22.171,2.945-47.678-1.181-53.028c0,0,26.074,28.592,21.696,91.466c0,0-15.219,0.507-24.158-3.537
				c0,0,0.15-1.185,0.401-3.286l-16.459-5.146l0.035,2.005c-10.645,1.798-67.309-11.842-67.309-11.842
				C29.05,107.214,87.173-7.514,76.39,14.382"/>
			<path fill="#231F20" d="M94.368,126.299l-0.251-0.113l0.031-0.275c0,0,0.141-1.068,0.369-2.972l-15.666-4.898l0.035,1.806
				l-0.318,0.055c-0.664,0.109-1.52,0.169-2.544,0.169l0,0c-14.838,0-64.423-11.898-64.921-12.016l0.079-0.741
				c11.536-0.307,41.012-49.881,63.709-91.412c2.552-4.671,2.552-4.671,2.823-4.671l0.208,0.003l0.11,0.177
				c0.132,0.212,0.132,0.217-1.265,3.058l1.371,68.216c8.707-15.953,13.555-27.588,14.029-33.691l0.742-0.031
				c0.032,0.204,3.137,19.281,5.212,38.072c2.167-27.91,1.677-44.742-1.429-48.777l0.574-0.479
				c0.066,0.07,6.634,7.368,12.562,22.269c9.896,24.871,10.481,51.509,9.228,69.476l-0.023,0.337l-0.337,0.007
				c0,0-0.617,0.024-1.676,0.024C112.593,129.892,101.533,129.542,94.368,126.299z M109.148,60.365
				c-3.941-9.912-8.158-16.424-10.529-19.667c2.145,7.2,2.12,24.099-0.074,50.39l-0.746,0.008
				c-1.645-16.05-4.263-33.314-5.245-39.576c-1.362,6.811-6.202,17.806-14.438,32.753l-0.675,1.225l-1.405-70.127
				c-0.158,0.283-0.322,0.581-0.491,0.888c-31.258,57.205-52.294,87.933-62.594,91.461c8.812,2.082,49.873,11.6,63.073,11.6
				c0.82,0,1.527-0.039,2.1-0.109l-0.042-2.199l17.252,5.397l-0.035,0.311c-0.181,1.507-0.311,2.544-0.369,3.011
				c7.038,3.078,17.766,3.412,22.087,3.412c0.586,0,1.034-0.008,1.315-0.012C120.522,96.921,114.553,73.97,109.148,60.365z"/>
			<path fill="#FFFFFF" d="M72.508,122.641l14.959,1.382l0.231,1.927c0,0-1.389-0.456-1.389,0.734c0,1.193-0.464,6.072,2.32,6.253
				c2.779,0.185,19.823,0.185,19.823,0.185s0.118,3.591,4.64,2.943l3.363,1.748l-39.305,1.558c0,0-8.926-12.772-7.073-13.602
				C71.938,124.933,72.508,122.641,72.508,122.641"/>
			<path d="M76.845,139.587c-1.33-1.908-7.941-11.517-7.352-13.637c0.086-0.31,0.282-0.456,0.427-0.521
				c1.668-0.75,2.218-2.858,2.226-2.878l0.079-0.31l15.581,1.438l0.333,2.807l-0.555-0.181c-0.003,0-0.215-0.067-0.443-0.067
				c-0.381,0-0.458,0.166-0.458,0.448c0,0.125-0.005,0.29-0.009,0.482c-0.046,1.574-0.16,5.256,1.979,5.394
				c2.735,0.184,19.63,0.188,19.799,0.188h0.361l0.016,0.362c0.004,0.11,0.141,2.658,3.227,2.658c0.306,0,0.636-0.027,0.981-0.075
				l0.122-0.016l4.723,2.454l-40.715,1.617l-0.204,0.008L76.845,139.587z M113.025,136.451c-0.337,0.043-0.663,0.066-0.969,0.066
				c-3.062,0-3.769-2.146-3.929-3.022c-2.445,0-16.943-0.012-19.521-0.185c-2.862-0.185-2.737-4.377-2.681-6.167
				c0.003-0.181,0.011-0.337,0.011-0.458c0-0.75,0.451-1.198,1.205-1.198c0.043,0,0.086,0.004,0.125,0.004l-0.137-1.123
				l-14.352-1.327c-0.234,0.694-0.95,2.351-2.548,3.069c-0.561,0.648,2.689,6.528,7.109,12.879l37.688-1.495L113.025,136.451z"/>
			<path fill="#FFFFFF" d="M75.978,129.557h7.23c0,0,0.754-0.639,0.754-0.914c0-0.279,10.688,0.086,10.688,0.086
				s-0.903,2.03,1.503,2.119c2.415,0.079,7.38,0,7.38,0s-0.6,2.293,5.873,2.018c6.477-0.271,7.078,3.215,6.929,6.155
				c-0.149,2.944-31.62,1.017-31.62,1.017l-11.748-3.957L75.978,129.557z"/>
			<path d="M84.692,140.415l-12.24-4.109l3.286-7.122h7.329c0.254-0.231,0.49-0.487,0.518-0.541c0-0.452,0.267-0.479,2.352-0.479
				c3.062,0,8.671,0.188,8.73,0.188l0.549,0.024l-0.22,0.506c-0.086,0.188-0.248,0.758-0.016,1.127
				c0.181,0.286,0.582,0.443,1.185,0.463c0.707,0.027,1.708,0.036,2.976,0.036c2.183,0,4.389-0.036,4.389-0.036l0.495-0.008
				l-0.126,0.479c0,0.004-0.042,0.235,0.173,0.514c0.333,0.436,1.507,1.193,5.323,1.032c0.243-0.011,0.475-0.016,0.699-0.016
				c2.422,0,4.2,0.582,5.288,1.72c1.338,1.412,1.401,3.442,1.327,4.847c-0.033,0.648-0.098,1.994-13.083,1.994h-0.004
				C94.922,141.035,84.794,140.419,84.692,140.415z M109.427,133.239c-0.374,0.016-0.727,0.023-1.053,0.023
				c-2.56,0-4.204-0.456-4.895-1.35c-0.192-0.248-0.279-0.487-0.314-0.683c-0.718,0.007-2.378,0.032-4.023,0.032
				c-1.275,0-2.284-0.016-2.999-0.04c-0.875-0.031-1.48-0.307-1.797-0.816c-0.275-0.44-0.26-0.946-0.188-1.314
				c-1.429-0.047-5.696-0.182-8.22-0.182c-1.041,0-1.492,0.024-1.688,0.043c-0.13,0.252-0.397,0.545-0.801,0.891l-0.103,0.09h-7.129
				l-2.732,5.928l11.302,3.807c0.781,0.047,10.473,0.612,18.838,0.612c11.925,0,12.33-1.146,12.338-1.276
				c0.07-1.374,0.004-3.105-1.126-4.294c-0.938-0.985-2.532-1.487-4.743-1.487C109.877,133.224,109.653,133.231,109.427,133.239z"/>
			<path fill="#FFFFFF" d="M71.77,122.229c0,0-10.563-1.484-25.354,0l-1.845,0.962c0,0,0.462-0.271,0.809,0.467
				c0.348,0.726,0.699,3.674,0.699,3.674l27.242,4.954l-0.463-7.804c0,0-0.459-0.554,0.463-0.554c0.931,0,0.118-1.464,0.118-1.464
				L71.77,122.229z"/>
			<path d="M45.737,127.65l-0.032-0.274c-0.094-0.802-0.396-3.007-0.664-3.561c-0.086-0.18-0.201-0.318-0.294-0.294l-0.003,0.004
				l-0.334-0.671l1.833-0.958l0.138-0.039c4.373-0.44,8.809-0.663,13.181-0.663c7.451,0,12.212,0.659,12.259,0.663l1.856,0.263
				l0.09,0.161c0.141,0.255,0.576,1.126,0.263,1.661c-0.082,0.137-0.279,0.365-0.71,0.365c-0.048,0-0.086,0-0.121,0.003l0.525,8.432
				L45.737,127.65z M72.422,123.959c0.192-0.408,0.726-0.408,0.898-0.408c0.039,0,0.063,0,0.068,0
				c0.039-0.11-0.053-0.439-0.198-0.746l-1.475-0.208c-0.048-0.004-4.754-0.655-12.153-0.655c-4.327,0-8.711,0.219-13.037,0.651
				l-1.032,0.538c0.078,0.095,0.156,0.217,0.228,0.362c0.311,0.651,0.596,2.732,0.695,3.517l26.504,4.82l-0.432-7.222
				C72.402,124.465,72.304,124.215,72.422,123.959z"/>
			<path fill="#446C33" d="M84.421,128.914c0,0,0.153,6.226,4.094,6.226h35.682l0.042,0.138c0,0,0.437-0.311,0.437-0.785l0.612,0.04
				v2.693c0,0-2.093,3.191-4.526,3.191c-1.546,0-22.299,7.349-51.87,10.3c-20.098-17.061-38.854-18.308-41.668-18.387
				c0-0.538-0.046-1.044-0.09-1.551c1.064-0.322,2.285,0.617,3.337,0.204c-1.194-1.107-3.639-3.199-5.084-1.339
				c-0.169,1.123-0.424,2.308-1.189,3.835c-1.063-0.299-2.128-0.554-3.015,0.447c0.499,0.354,0.915,0.467,1.202,0.691
				c0.137,0.126,0.239,0.262,0.306,0.471c0.031,0.102,0.059,0.228,0.066,0.377c-0.702,0.181-1.272,0.577-1.718,1.104v0.011
				c-0.26,0.31-0.472,0.656-0.648,1.032c-0.011,0.028-0.031,0.06-0.039,0.079c-0.15,0.329-0.264,0.671-0.357,1.016
				c-0.012,0.079-0.027,0.146-0.047,0.216c-0.086,0.377-0.141,0.766-0.177,1.144c-0.165,2.127,0.483,4.196,1.692,4.373
				c-0.239-1.052-0.043-2.548,0.447-3.875c4.577,1.24,11.784,4.212,19.706,11.344c-9.739-0.161-19.969-0.954-30.434-2.673
				c0,0-1.476-30.387-2.43-30.61C8.751,118.625,66.184,125.812,84.421,128.914"/>
			<path fill="#33401E" d="M41.606,152.273c-10.453-0.172-20.71-1.071-30.484-2.681c-0.169-0.027-0.294-0.168-0.302-0.338
				c-0.558-11.513-1.625-28.989-2.292-30.342c-0.103-0.079-0.156-0.212-0.134-0.346c0.036-0.193,0.22-0.318,0.401-0.294
				c0.577,0.07,57.652,7.219,75.686,10.292c0.173,0.027,0.298,0.173,0.301,0.346c0,0.059,0.193,5.869,3.734,5.869h35.682
				c0.007,0,0.015,0,0.028,0c0.047-0.077,0.09-0.176,0.09-0.282c0-0.099,0.043-0.196,0.114-0.263
				c0.075-0.072,0.168-0.106,0.271-0.098l0.609,0.036c0.192,0.015,0.341,0.172,0.341,0.361v2.693c0,0.07-0.02,0.142-0.06,0.2
				c-0.089,0.134-2.229,3.349-4.828,3.349c-0.29,0-1.775,0.42-3.65,0.945c-7.521,2.113-25.138,7.059-48.185,9.359
				c-0.102,0.012-0.196-0.02-0.271-0.086c-20.285-17.217-39.336-18.242-41.444-18.3c-0.192-0.004-0.349-0.166-0.349-0.362
				c0-0.467-0.039-0.922-0.074-1.366l-0.016-0.153c-0.012-0.173,0.099-0.33,0.259-0.376c0.542-0.166,1.205-0.032,1.806,0.118
				c0.275,0.07,0.538,0.133,0.789,0.165c-0.734-0.625-1.864-1.449-2.803-1.449c-0.432,0-0.79,0.172-1.096,0.53
				c-0.196,1.251-0.483,2.398-1.208,3.846c-0.08,0.153-0.251,0.228-0.42,0.185c-0.943-0.264-1.739-0.385-2.328,0.042
				c0.102,0.055,0.2,0.102,0.294,0.149c0.196,0.098,0.377,0.188,0.561,0.333c0.204,0.185,0.33,0.377,0.404,0.624
				c0.052,0.153,0.079,0.31,0.087,0.479c0.004,0.169-0.11,0.318-0.271,0.361c-0.569,0.141-1.072,0.463-1.499,0.945
				c-0.012,0.017-0.024,0.032-0.036,0.048c-0.229,0.274-0.425,0.592-0.581,0.918c-0.016,0.041-0.036,0.083-0.052,0.111
				c-0.129,0.298-0.243,0.611-0.33,0.934c-0.02,0.09-0.031,0.165-0.052,0.232c-0.073,0.329-0.133,0.699-0.171,1.086
				c-0.126,1.63,0.258,3.125,0.883,3.725c-0.062-1,0.137-2.229,0.561-3.379c0.067-0.177,0.251-0.271,0.436-0.225
				c4.671,1.269,11.91,4.279,19.847,11.427c0.114,0.103,0.149,0.264,0.095,0.401c-0.055,0.136-0.185,0.231-0.334,0.231
				C41.611,152.273,41.611,152.273,41.606,152.273z M21.811,144.36c0.027,0.118-0.008,0.239-0.086,0.325
				c-0.079,0.086-0.196,0.13-0.317,0.115c-1.52-0.229-2.164-2.623-1.999-4.77c0.044-0.424,0.106-0.824,0.188-1.201
				c0.017-0.059,0.027-0.114,0.051-0.211c0.102-0.394,0.228-0.742,0.38-1.084l0.33,0.141l-0.299-0.216
				c0.192-0.399,0.408-0.749,0.66-1.064c0.012-0.02,0.027-0.039,0.043-0.058c0.456-0.53,0.989-0.911,1.591-1.123
				c-0.005-0.008-0.005-0.012-0.008-0.016c-0.043-0.145-0.109-0.227-0.185-0.294c-0.106-0.083-0.252-0.153-0.421-0.239
				c-0.211-0.106-0.478-0.235-0.769-0.444c-0.083-0.059-0.137-0.153-0.149-0.255c-0.008-0.098,0.024-0.204,0.09-0.279
				c0.499-0.562,1.095-0.832,1.825-0.832c0.416,0,0.84,0.087,1.268,0.201c0.605-1.28,0.852-2.316,1.024-3.463
				c0.008-0.062,0.036-0.117,0.075-0.164c0.451-0.589,1.032-0.883,1.719-0.883c1.386,0,2.885,1.245,3.89,2.175
				c0.094,0.087,0.133,0.212,0.109,0.333c-0.023,0.121-0.109,0.219-0.224,0.267c-0.569,0.224-1.291,0.094-1.943-0.07
				c-0.404-0.103-0.8-0.197-1.134-0.177c0.024,0.299,0.048,0.601,0.055,0.911c1.849,0.083,7.004,0.519,14.112,2.831
				c9.657,3.136,18.85,8.364,27.32,15.529c22.909-2.301,40.421-7.219,47.91-9.32c2.453-0.69,3.466-0.969,3.842-0.969
				c1.995,0,3.817-2.446,4.166-2.939v-2.12c-0.157,0.345-0.432,0.549-0.475,0.577c-0.094,0.07-0.216,0.086-0.325,0.051
				c-0.067-0.023-0.126-0.066-0.173-0.121H88.516c-3.772,0-4.354-4.974-4.44-6.277c-17.307-2.92-68.604-9.389-74.768-10.16
				c0.322,1.308,0.734,4.896,1.375,14.929c0.431,6.705,0.769,13.468,0.844,14.937c9.347,1.519,19.137,2.394,29.12,2.603
				c-7.369-6.43-14.045-9.276-18.504-10.528C21.737,142.221,21.614,143.485,21.811,144.36z"/>
			<path fill="#808285" d="M23.334,138.233c0.011-0.012,0.019-0.024,0.031-0.031c0.557,0.128,1.15,0.286,1.782,0.467
				C24.504,138.488,23.899,138.351,23.334,138.233"/>
			<path fill="#808285" d="M23.742,139.63c-0.451-0.105-0.871-0.208-1.268-0.286c0.016-0.012,0.027-0.043,0.04-0.063
				C22.906,139.395,23.314,139.512,23.742,139.63"/>
			<path fill="#FFFFFF" d="M23.365,138.202c0.369-0.337,0.778-0.558,1.205-0.597c0.192,0.047,0.393,0.109,0.601,0.181
				c0.158,0.302,0.271,0.643,0.377,0.989c-0.133-0.028-0.264-0.074-0.401-0.106C24.515,138.488,23.923,138.33,23.365,138.202"/>
			<path fill="#FFFFFF" d="M23.334,138.233c0.564,0.118,1.169,0.255,1.812,0.436c0.138,0.032,0.268,0.078,0.401,0.106
				c0.157,0.506,0.298,1.033,0.519,1.504c-0.836-0.26-1.61-0.479-2.324-0.649c-0.427-0.118-0.836-0.235-1.228-0.349
				C22.756,138.865,23.028,138.508,23.334,138.233"/>
			<path d="M26.011,140.458c-0.887-0.279-1.645-0.487-2.315-0.648c-0.393-0.109-0.77-0.216-1.135-0.317l-0.334-0.095l0.122-0.212
				c0.263-0.447,0.549-0.816,0.86-1.095l0.071-0.063l0.094,0.02c0.529,0.11,1.161,0.251,1.817,0.436
				c0.067,0.02,0.13,0.036,0.193,0.056c0.066,0.02,0.138,0.039,0.204,0.055l0.106,0.024l0.129,0.415
				c0.122,0.397,0.244,0.805,0.417,1.166l0.181,0.385L26.011,140.458z M25.277,138.899c-0.055-0.019-0.114-0.035-0.18-0.05
				c-0.613-0.173-1.202-0.307-1.708-0.417c-0.205,0.201-0.401,0.448-0.589,0.739c0.322,0.09,0.648,0.185,0.985,0.274
				c0.578,0.138,1.221,0.315,1.955,0.538c-0.103-0.278-0.192-0.561-0.275-0.844l-0.066-0.208
				C25.359,138.923,25.321,138.908,25.277,138.899z"/>
			<path fill="#6D6E71" d="M25.104,137.644c0.02,0.043,0.042,0.086,0.066,0.142c-0.208-0.071-0.408-0.134-0.601-0.181
				C24.74,137.584,24.92,137.597,25.104,137.644"/>
			<path fill="#446C33" d="M38.639,129.835c0.008,0.06-0.146,0.114-0.192,0.13c0,0.016-0.083,0.036-0.094,0.036
				c-0.016,0-0.055-0.008-0.058,0.011c-0.024,0-0.017,0.032-0.043,0.02c-0.012,0.032-0.103,0.012-0.153,0
				c-0.003,0.024-0.066,0.012-0.082,0.012c-0.075-0.02-0.743-0.149-0.734-0.192c-0.02,0-0.628-0.169-0.64-0.189
				c-0.007-0.015-0.003-0.058-0.003-0.078c0.003-0.028,0.023-0.071,0.055-0.083c0.043-0.008,0.074,0,0.102,0.012
				c0.035,0.011,0.071-0.012,0.115,0c0.046,0,0.078-0.012,0.13-0.02c0-0.021,0.046,0,0.058,0.008h0.211
				c0.078-0.016,0.342,0.075,0.35,0.047c0.102,0.028,0.538,0.114,0.561,0.114c0.008-0.008,0.051,0,0.071,0
				c0.012,0,0.13-0.015,0.13,0c0.066,0,0.106,0,0.149,0.043C38.607,129.746,38.634,129.781,38.639,129.835"/>
			<path fill="#7C1322" d="M27.302,133.192c0.062-0.376,0.083-0.714,0.083-1.052c2.794,0.09,21.405,1.331,41.346,18.379
				c-1.177,0.122-2.371,0.239-3.58,0.337C48.292,136.521,32.743,133.738,27.302,133.192"/>
			<path fill="#A02D22" d="M27.302,133.192c5.441,0.545,20.989,3.329,37.849,17.664c-0.977,0.095-1.959,0.161-2.96,0.24
				c-15.341-12.927-29.287-16.087-35.14-16.853C27.166,133.871,27.248,133.522,27.302,133.192"/>
			<path fill="#BE952E" d="M28.987,135.654c-0.686-0.354-1.374-0.702-2.057-1.053c0.04-0.125,0.079-0.248,0.122-0.357
				c5.853,0.765,19.799,3.926,35.14,16.853c-1.464,0.099-2.959,0.208-4.471,0.29c-11.446-9.691-21.99-13.719-28.746-15.403
				C28.975,135.885,28.975,135.779,28.987,135.654"/>
			<path fill="#234269" d="M28.771,138.271c6.327,1.999,15.263,5.853,24.436,13.312c-1.464,0.058-2.935,0.094-4.424,0.121
				c-7.988-7.015-15.383-10.594-20.84-12.431C28.154,139.033,28.555,138.488,28.771,138.271"/>
			<path fill="#471721" d="M27.942,139.273c5.457,1.836,12.852,5.416,20.84,12.431c-1.041,0.008-2.084,0.021-3.136,0.028
				c-7.089-6.497-13.813-9.774-18.744-11.419C27.264,140.058,27.604,139.673,27.942,139.273"/>
			<path fill="#5A4C63" d="M22.639,139.072c0.396,0.08,0.84,0.26,1.283,0.37c0.707,0.18,1.484,0.392,2.312,0.655
				c0.075,0.149,0.153,0.299,0.243,0.439c0.146-0.051,0.291-0.133,0.424-0.224c4.93,1.645,11.655,4.922,18.743,11.419
				c-1.323,0-2.646-0.007-3.983-0.028c-7.867-7.113-15.015-10.084-19.557-11.328c0.161-0.428,0.349-0.844,0.565-1.221"/>
			<path fill="#2B3621" d="M28.771,138.202l0.153-1.351c0.071-0.329,0.051-0.588,0.051-0.868c6.756,1.685,17.3,5.712,28.746,15.403
				c-1.484,0.079-2.991,0.149-4.515,0.197c-9.173-7.458-18.108-11.312-24.436-13.311C28.806,138.233,28.736,138.233,28.771,138.202"
				/>
			<path fill="#471721" d="M25.721,138.585l-2.194-0.545c0,0-0.785,1.009-0.821,1.055c-0.035,0.059,3.53,1.001,3.53,1.001
				S25.662,138.916,25.721,138.585"/>
			<path fill="#234269" d="M25.693,138.618c0,0-2.029-0.59-2.167-0.539c-0.145,0.043,1.186-0.745,1.465-0.686
				c0.282,0.067,0.729,1.264,0.729,1.264"/>
		</g>
		<path fill="none" stroke="#33401E" stroke-width="1.2965" stroke-linejoin="round" stroke-miterlimit="10" d="M40.574,151.909
			c0,0,7.467,0.699,29.692-1.319"/>
		<path fill="#FFFFFF" stroke="#FFFFFF" stroke-width="0.4321" stroke-miterlimit="10" d="M27.052,134.244
			c-0.043,0.11-0.083,0.232-0.122,0.358c0.683,0.35,1.371,0.699,2.057,1.052c-0.012,0.125-0.012,0.232-0.012,0.33
			c0,0.279,0.02,0.539-0.051,0.868l-0.24,1.609c-0.035,0.028-0.07,0.071-0.102,0.098c-0.216,0.232-0.427,0.475-0.64,0.715
			c-0.337,0.399-0.678,0.785-1.04,1.04c-0.134,0.09-0.279,0.173-0.424,0.224c-0.09-0.14-0.169-0.29-0.243-0.439
			c-0.22-0.476-0.362-0.993-0.515-1.512c-0.11-0.345-0.22-0.687-0.376-1c-0.02-0.039-0.04-0.086-0.071-0.129
			c-0.176-0.039-0.358-0.047-0.526-0.039c-0.427,0.046-0.828,0.258-1.196,0.596c-0.012,0.013-0.021,0.021-0.024,0.028
			c-0.298,0.279-0.577,0.636-0.821,1.055c-0.011,0.016-0.022,0.052-0.035,0.059c-0.216,0.376-0.404,0.793-0.565,1.221
			c-0.487,1.331-0.684,2.834-0.439,3.878c-1.202-0.188-1.85-2.249-1.681-4.373c0.028-0.388,0.083-0.769,0.173-1.134
			c0.012-0.078,0.032-0.149,0.051-0.231c0.094-0.346,0.208-0.679,0.345-1.009c0.017-0.02,0.033-0.051,0.04-0.083
			c0.18-0.377,0.388-0.726,0.643-1.028h0.008c0.44-0.538,1.005-0.938,1.704-1.114c-0.004-0.142-0.036-0.271-0.067-0.377
			c-0.07-0.204-0.169-0.35-0.306-0.464c-0.283-0.231-0.695-0.346-1.189-0.702c0.883-1.001,1.931-0.729,2.995-0.436
			c0.762-1.543,1.013-2.721,1.181-3.844c1.429-1.864,3.855,0.232,5.033,1.339c-1.041,0.417-2.253-0.518-3.301-0.2
			c0.043,0.499,0.09,1.009,0.09,1.543c0,0.338-0.021,0.676-0.083,1.052C27.248,133.522,27.166,133.871,27.052,134.244"/>
		<g id="Greenpeace_-_writing_2_">
			<path fill="#231F20" d="M69.944,130.821c-0.02,0.012-0.008-0.255-0.004-0.294c0-0.039,0.004-0.141-0.042-0.168
				c-0.032-0.036-0.126-0.02-0.135,0.015c-0.02,0.016-0.004,0.055-0.027,0.059c-0.008,0.015-0.082,0.118-0.082,0.118
				c-0.011,0.039-0.032,0.042-0.055,0.085c-0.008,0.031-0.055,0.059-0.063,0.091c-0.023,0.012-0.04,0.114-0.066,0.114
				c-0.004,0.042-0.043,0.074-0.051,0.11c-0.032,0.011-0.083,0.093-0.083,0.121c-0.02-0.004-0.031,0.075-0.055,0.072
				c-0.004,0.007-0.019,0.054-0.027,0.054c-0.04,0.083-0.098,0.157-0.024,0.228c-0.009,0.04,0.105,0.051,0.142,0.043
				c0.062,0,0.122-0.035,0.18-0.008c0.067,0.02,0.118,0.008,0.177-0.027c0.011-0.005,0.072-0.052,0.079-0.079
				c0.032-0.004,0.012-0.04,0.043-0.055c0.008-0.059,0.035-0.11,0.048-0.2C69.914,131.104,69.937,130.865,69.944,130.821"/>
			<path fill="#231F20" d="M69.229,131.646c-0.087-0.024-0.141-0.071-0.169-0.125c-0.113-0.148-0.023-0.31,0.012-0.376l0.024-0.043
				l0.043-0.173l0.051,0.008c0.02-0.039,0.047-0.075,0.078-0.102c0.004-0.012,0.008-0.02,0.012-0.027l0.004-0.182l0.082,0.012
				c0.004,0,0.004-0.007,0.008-0.007c0.02-0.036,0.039-0.056,0.051-0.071l0.011-0.043l0.043-0.036
				c0.02-0.034,0.083-0.12,0.094-0.145l0,0c0.004-0.008,0.008-0.02,0.012-0.027l0.003-0.04l0.087-0.071
				c0.066-0.043,0.161-0.059,0.239-0.04l0.09,0.047c0.106,0.074,0.118,0.208,0.122,0.283l0.054-0.032l-0.054,0.393
				c-0.02,0.157-0.032,0.248-0.047,0.306c-0.012,0.047-0.021,0.082-0.031,0.114c-0.008,0.02-0.012,0.036-0.017,0.051l-0.007,0.121
				l-0.056,0.016c-0.007,0.012-0.019,0.024-0.027,0.035c-0.046,0.055-0.102,0.091-0.118,0.103c-0.106,0.062-0.212,0.079-0.326,0.047
				c-0.059,0.012-0.086,0.016-0.114,0.016C69.355,131.665,69.285,131.661,69.229,131.646z M69.528,131.111l0.008,0.153
				c0.016,0.004,0.031,0.004,0.047,0.008l0.043,0.016l0.036-0.129h0.031l0,0c0.008-0.024,0.015-0.052,0.023-0.087l0.027-0.203h0.004
				c0.003-0.009,0.003-0.013,0.003-0.021v-0.016c0-0.024-0.003-0.047-0.003-0.074c-0.016,0.02-0.032,0.035-0.043,0.051l-0.04,0.079
				c-0.007,0.016-0.02,0.032-0.027,0.047c-0.016,0.032-0.028,0.056-0.039,0.074l-0.024,0.083L69.528,131.111z"/>
			<path fill="#FFFFFF" d="M39.747,128.447c-0.008-0.003-0.043-0.138-0.041-0.169c-0.02,0.008-0.007-0.157-0.022-0.161
				c0.007-0.071-0.021-0.114-0.032-0.185c-0.031-0.027-0.031-0.083-0.059-0.094c-0.012-0.043-0.031-0.083-0.035-0.134
				c-0.008-0.043-0.02-0.087-0.051-0.106c-0.024-0.016-0.043-0.047-0.071-0.063c-0.016-0.003-0.062-0.008-0.067-0.016
				c-0.015-0.004-0.165-0.055-0.161-0.062c-0.046-0.004-0.055-0.023-0.098-0.027c0-0.019-0.114-0.019-0.134-0.027
				c-0.035-0.016-0.078,0-0.118,0.008c-0.04-0.005-0.086,0.004-0.134-0.012c-0.031-0.008-0.059-0.011-0.106-0.003
				c-0.02,0.003-0.074,0.023-0.074,0.031c-0.051-0.004-0.125-0.004-0.185,0c-0.02,0.003-0.126,0.027-0.126,0.02
				c-0.026,0.003-0.262,0.003-0.262,0.003c-0.044-0.003-0.059,0.004-0.11,0.008c-0.067-0.008-0.129-0.016-0.201-0.008
				c-0.083-0.011-0.137,0.012-0.216,0c-0.082-0.011-0.129,0.02-0.224,0.016c-0.028,0-0.121-0.016-0.13,0.008
				c-0.007-0.004-0.077,0.008-0.077,0.008c-0.052,0.003-0.275-0.008-0.28,0.039c-0.039,0-0.055,0.005-0.105,0
				c-0.062,0-0.122,0-0.173,0c0,0.021-0.192,0.021-0.227,0.021c0.004,0.011-0.125-0.005-0.145,0
				c-0.047,0.011-0.13,0.019-0.157,0.051c-0.04,0.042-0.062,0.055-0.083,0.105c-0.024,0.012-0.034,0.027-0.039,0.063
				c-0.043-0.004-0.058,0.156-0.09,0.149c-0.004,0.039-0.02,0.105-0.031,0.152c-0.008,0-0.031,0.076-0.035,0.083
				c0,0.036-0.008,0.079-0.032,0.118c-0.004,0.027,0,0.04-0.004,0.083c0.023,0.004,0.071,0.181,0.075,0.224
				c0.036,0,0.046,0.105,0.062,0.118c0.017,0.035,0.017,0.066,0.044,0.094c0.024,0.016,0.016,0.047,0.043,0.055
				c0.012,0.024,0.02,0.004,0.031,0.031c0.027,0.004,0.035,0.028,0.083,0.016c0.051,0.016,0.071,0.043,0.118,0.031
				c0.039-0.007,0.554-0.027,0.557-0.043c0.008,0,0.157-0.02,0.208-0.007c0-0.02,0.138-0.009,0.165,0
				c0.004-0.02,0.079-0.009,0.099-0.012c0.004-0.02,0.227,0.004,0.227-0.012c0.028-0.004,0.11,0.008,0.114-0.012
				c0.035,0,0.083-0.004,0.13,0c0-0.016,0.165-0.004,0.165-0.035c0.074,0.007,0.133,0.003,0.203,0.003
				c0.048,0.004,0.052,0.024,0.099,0.047c0.02,0.023,0.004,0.185-0.023,0.176c-0.004,0.051-0.055,0.141-0.09,0.161
				c-0.036,0.023-0.087,0.058-0.11,0.083c-0.027,0.026-0.066,0.036-0.09,0.074c-0.016-0.004-0.161,0.036-0.161,0.036
				c-0.07,0.012-0.105,0.036-0.181,0.058c-0.066,0.008-0.089,0.043-0.141,0.056c-0.059,0-0.118,0.008-0.18,0
				c-0.036,0-0.323-0.004-0.327,0.023c-0.019-0.004-0.302,0.012-0.294-0.023c-0.118-0.024-0.22-0.059-0.333-0.078
				c-0.072-0.012-0.138-0.036-0.224-0.043c-0.036,0-0.181-0.021-0.173-0.043c-0.07-0.027-0.133-0.076-0.2-0.091
				c-0.058-0.008-0.13-0.027-0.192-0.043c0-0.019-0.098-0.027-0.098-0.055c-0.021-0.008-0.224-0.094-0.224-0.094
				c-0.063-0.016-0.098-0.054-0.173-0.074c0.004-0.008-0.142-0.067-0.157-0.106c-0.008-0.004-0.047-0.051-0.055-0.051
				c-0.004-0.02-0.008-0.055-0.024-0.071c-0.047-0.059-0.043-0.168-0.059-0.248c-0.004-0.046,0.015-0.31,0.043-0.302
				c0.004-0.016,0.056-0.161,0.066-0.157c0-0.028,0.032-0.055,0.043-0.083c0.036-0.012,0.031-0.063,0.066-0.075
				c0-0.015,0.032-0.063,0.048-0.066c0.011-0.04,0.046-0.055,0.043-0.083c0.019,0.008,0.046-0.058,0.07-0.066
				c0-0.036,0.075-0.051,0.082-0.099c0.031-0.008,0.06-0.056,0.071-0.098c0.02-0.051,0.099-0.066,0.105-0.114
				c0.028-0.012,0.056-0.035,0.052-0.067c0.016-0.004,0.059-0.047,0.066-0.074c0.04,0.011,0.091-0.06,0.126-0.087
				c0.02-0.039,0.047-0.082,0.086-0.105c0.016-0.008,0.031-0.047,0.04-0.047c0.015-0.051,0.09-0.083,0.118-0.114
				c0.028-0.024,0.078-0.035,0.074-0.062c0.036-0.02,0.024-0.035,0.056-0.059c0.004-0.008,0.024-0.004,0.028-0.024
				c0.03,0.009,0.089-0.054,0.113-0.07c0.012-0.039,0.066-0.062,0.102-0.09c0-0.039,0.106-0.091,0.137-0.122
				c0.039,0.008,0.082-0.043,0.11-0.079c0.051-0.035,0.09-0.055,0.133-0.098c0.043-0.031,0.079-0.071,0.13-0.075
				c0.062-0.067,0.161-0.145,0.255-0.161c0.016-0.024,0.083-0.059,0.109-0.083c0.013,0.005,0.075-0.027,0.075-0.027
				c0.047,0.004,0.075-0.024,0.126-0.031c0.015-0.02,0.063-0.055,0.09-0.059c0.036-0.017,0.086-0.02,0.122-0.051
				c0.019-0.016,0.105-0.028,0.105-0.036c0.036-0.019,0.059-0.036,0.086-0.023c0.004-0.016,0.067-0.036,0.078-0.036
				c0.043-0.008,0.075-0.043,0.114-0.051c0.027,0.007,0.06-0.016,0.09-0.032c0.04-0.027,0.066-0.011,0.119,0.004
				c0.011,0.031,0.066,0.036,0.086,0.079c0.035,0.046,0.11,0.129,0.102,0.176c0.016,0.004,0.059,0.134,0.055,0.142
				c0.043,0.031,0.028,0.152,0.056,0.165c0,0.023,0.015,0.087,0.035,0.09c-0.004,0.042,0.047,0.066,0.047,0.106
				c0.023,0.004,0.027,0.039,0.059,0.059c0.027,0.02,0.07,0.027,0.102,0.039c0.075,0.021,0.134-0.02,0.205-0.003
				c0-0.027,0.192-0.04,0.236-0.067c0.039-0.031,0.07-0.067,0.102-0.083c0.004-0.012,0.032-0.055,0.047-0.051
				c0-0.063,0.035-0.103,0.047-0.153c0.008-0.047-0.004-0.075,0.008-0.13c-0.036,0-0.016-0.162-0.032-0.165
				c0.004-0.019-0.024-0.181-0.051-0.176c0.004-0.103-0.023-0.185-0.007-0.271c-0.02-0.003-0.036-0.121-0.068-0.149
				c-0.007-0.074-0.066-0.153-0.121-0.208c-0.079-0.106-0.153-0.185-0.251-0.259c-0.04-0.036-0.091-0.06-0.13-0.071
				c0-0.02-0.066-0.039-0.086-0.043c-0.074,0-0.134-0.043-0.224-0.067c-0.051-0.016-0.079,0-0.113,0
				c-0.079-0.012-0.142-0.027-0.22-0.027c-0.023-0.003-0.129-0.024-0.125-0.003c-0.063-0.009-0.086,0-0.141,0.011
				c-0.004,0.012-0.059,0.016-0.071,0.024c-0.004,0.007-0.083,0.007-0.086,0.028c-0.04,0.003-0.091,0.019-0.103,0.035
				c-0.024-0.008-0.078,0.031-0.09,0.039c-0.048,0.036-0.138,0.036-0.181,0.086c-0.044,0.012-0.075,0.032-0.11,0.06
				c-0.032,0.003-0.058,0.058-0.082,0.07c-0.048,0.032-0.111,0.036-0.154,0.079c-0.015,0.012-0.004,0.015-0.039,0.039
				c-0.016,0.004-0.04,0.032-0.063,0.043c-0.012,0.016-0.032,0.024-0.051,0.02c-0.024,0.035-0.036,0.05-0.063,0.055
				c-0.02,0.012-0.062,0.043-0.082,0.04c-0.086,0.079-0.412,0.279-0.42,0.298c-0.015-0.008-0.098,0.035-0.103,0.043
				c-0.011,0-0.058,0.004-0.077,0.023c-0.052,0.008-0.314,0.267-0.378,0.286c-0.036,0.024-0.055,0.027-0.087,0.063
				c-0.031-0.008-0.109,0.051-0.114,0.083c-0.023,0.003-0.011,0.027-0.039,0.024c0,0.008-0.016,0.003-0.024,0.02
				c-0.036-0.008-0.062,0.046-0.086,0.063c-0.047,0.035-0.083,0.07-0.102,0.125c-0.02-0.007-0.141,0.157-0.169,0.173
				c-0.012,0.016-0.032,0.027-0.028,0.04c-0.024,0.027-0.035,0.024-0.05,0.051c-0.036,0.008-0.047,0.059-0.079,0.071
				c-0.039,0.036-0.07,0.063-0.113,0.093c-0.008,0.028-0.056,0.036-0.051,0.056c-0.04,0.023-0.047,0.063-0.09,0.094
				c-0.004,0.039-0.074,0.047-0.083,0.09c-0.051,0.016-0.07,0.102-0.133,0.129c-0.027,0.075-0.094,0.106-0.105,0.176
				c-0.027-0.007-0.083,0.173-0.089,0.205c-0.009,0.054-0.063,0.215-0.072,0.227c-0.016,0-0.055,0.157-0.058,0.181
				c-0.009-0.003-0.075,0.872-0.086,0.961c0.004,0,0,0.142-0.004,0.161c0,0.012,0.019,0.051,0.023,0.06
				c0.008,0.03,0.012,0.078,0.012,0.105c0.004,0.055,0.012,0.125,0.027,0.191c0.004,0.008,0.028,0.079,0.039,0.084
				c0,0.01,0.036,0.082,0.036,0.082c-0.004,0.039,0.011,0.051,0.042,0.086c0.008,0.02,0.043,0.066,0.063,0.063
				c0.016,0.023,0.055,0.086,0.079,0.097c0.02,0.032,0.075,0.079,0.106,0.106c0.02,0.008,0.114,0.079,0.11,0.095
				c0.062,0,0.113,0.09,0.169,0.093c0,0.028,0.117,0.076,0.136,0.079c-0.004,0.02,0.048,0.032,0.067,0.028
				c0.047,0.012,0.11,0.059,0.157,0.083c0.098,0.027,0.149,0.071,0.243,0.099c0.004,0.026,0.201,0.059,0.196,0.078
				c0.044,0.016,0.55,0.149,0.545,0.129c0.075-0.007,0.166-0.024,0.204,0c0.067,0.008,0.118,0.04,0.197,0.031
				c0.075-0.016,0.117,0.02,0.185,0.032c0.079,0.02,0.141-0.008,0.216,0.004c0.075,0.008,0.113-0.028,0.2-0.023
				c0.068,0,0.122-0.024,0.201-0.016c0-0.043,0.193,0,0.2-0.027c0.035-0.007,0.063-0.028,0.114-0.024
				c0.017-0.004,0.103,0,0.11-0.024c0.023-0.003,0.146-0.027,0.149-0.043c0.051-0.003,0.074-0.008,0.11,0.032
				c0.019,0.028,0.016,0.126,0.027,0.172c-0.004,0.043-0.071,0.283-0.071,0.283c-0.008,0.098-0.011,0.22-0.027,0.337
				c-0.017,0.114-0.043,0.204-0.063,0.323c0.012,0.003,0.012,0.073,0.02,0.086c0.02,0.051,0.004,0.074-0.004,0.114
				c-0.02,0.074,0.074,0.103,0.093,0.153c0.021,0.003,0.044,0.02,0.056,0.023c0,0.008,0.043,0.032,0.063,0.036
				c0.003-0.008,0.145,0.071,0.161,0.074c0.012,0.024,0.052,0.055,0.079,0.063c0.008,0.008,0.055,0.024,0.055,0.031
				c0.023,0.008,0.011,0.012,0.027,0.028c0.086,0.039,0.514-0.142,0.557-0.15c0.02-0.079,0.091-0.118,0.114-0.219
				c0.016-0.099,0.055-0.166,0.066-0.255c0-0.032,0.047-0.275,0.012-0.287c0.011-0.047,0.011-0.098,0.004-0.161
				c-0.004-0.051,0.012-0.082,0.016-0.118c0.012,0.004,0.032-0.067,0.035-0.083c0.004-0.055,0.02-0.079,0.036-0.13
				c0.008-0.07,0.011-0.118,0.011-0.18c0.017,0.004,0.036-0.075,0.04-0.083c0.007,0.004,0.062-0.169,0.065-0.186
				c0.009-0.07,0.033-0.077,0.044-0.125c0.032,0,0.012-0.137,0.036-0.133c0.004-0.016,0.026-0.062,0.035-0.062
				c0-0.039,0.027-0.067,0.032-0.103c0.023-0.097,0.07-0.125,0.066-0.224c0.008-0.026,0.09-0.16,0.09-0.16
				c0.008-0.059,0.058-0.114,0.062-0.165c0.024-0.004,0.056-0.07,0.063-0.086c0.02,0.008,0.035-0.095,0.05-0.091
				c0-0.008,0.043-0.078,0.051-0.078c0.004-0.023,0.036-0.052,0.06-0.066c0.011-0.013,0.031-0.048,0.035-0.075
				c0.032,0,0.055-0.055,0.063-0.083c0.024-0.059,0.063-0.129,0.054-0.203C39.747,128.548,39.747,128.494,39.747,128.447"/>
			<path fill="#FFFFFF" d="M49.245,127.135c0.008-0.043-0.011-0.105-0.015-0.149c-0.032-0.012-0.04-0.157-0.067-0.149
				c0-0.043-0.015-0.121-0.024-0.173c-0.008-0.003-0.027-0.05-0.031-0.07c-0.012-0.004-0.04-0.066-0.04-0.075
				c-0.031-0.027-0.062-0.086-0.059-0.13c-0.035-0.015-0.054-0.062-0.082-0.113c-0.047-0.012-0.059-0.055-0.106-0.066
				c0.012-0.04-0.188-0.052-0.22-0.047c-0.039,0-0.291-0.008-0.286-0.02c-0.079-0.004-0.15,0.015-0.232,0.004
				c0,0-0.086,0.019-0.094,0.015c-0.071,0.011-0.106,0.011-0.169,0.004c-0.055,0.008-0.067,0.012-0.105,0.02
				c-0.016,0.004-0.141,0.027-0.205,0.027c-0.035,0-0.058,0-0.097,0c-0.059-0.003-0.059,0.004-0.106,0.012
				c-0.036,0-0.248,0.011-0.248,0.039c-0.008-0.003-0.515,0.06-0.57,0.056c-0.043,0.008-0.062,0.024-0.106,0.024
				c-0.07-0.02-0.09-0.024-0.145-0.031c-0.02-0.008-0.098,0.008-0.102,0.015c-0.121,0.008-0.177,0.035-0.271,0.051
				c-0.095,0.028-0.161,0.083-0.254,0.078c-0.068,0-0.142-0.027-0.205-0.015c-0.075,0.024-0.122,0.059-0.176,0.098
				c-0.017,0.016-0.055,0.024-0.055,0.047c-0.02,0.015-0.048,0.028-0.056,0.036c-0.055,0.004-0.09,0.086-0.125,0.102
				c0,0.011-0.06,0.099-0.06,0.099c-0.003,0.035-0.011,0.097-0.023,0.149c-0.032,0.082-0.028,0.165-0.036,0.248
				c0,0.059-0.039,0.204,0,0.279c0.016,0.031,0.031,0.055,0.062,0.07c-0.004,0.028-0.02,0.071,0,0.075
				c-0.004,0.036,0.043,0.074,0.051,0.105c0.02,0.04,0.062,0.028,0.051,0.086c0.008-0.015,0.016,0.028,0.016,0.036
				c0.059,0.058,0.111,0.165,0.067,0.255c-0.016-0.004-0.035,0.172-0.059,0.168c-0.024,0.086-0.071,0.126-0.099,0.212
				c-0.02-0.004-0.055,0.058-0.059,0.066c-0.015,0.008-0.028,0.051-0.042,0.055c-0.004,0.016-0.035,0.055-0.043,0.055
				c0,0.02-0.019,0.055-0.047,0.07c-0.003,0.079-0.062,0.13-0.086,0.189c-0.043,0.136-0.126,0.235-0.149,0.392
				c0,0.047-0.02,0.052-0.02,0.079c-0.016,0.05-0.028,0.106-0.035,0.165c0.011,0.004-0.04,0.176-0.043,0.208
				c-0.007,0.027-0.027,0.188-0.012,0.193c-0.012,0.046,0.004,0.058,0,0.109c0.04,0-0.023,0.294,0,0.287
				c-0.008,0.071,0.035,0.149,0.031,0.204c0.012-0.008,0.012,0.122,0.048,0.149c0,0.008,0.02,0.056,0.024,0.056
				c-0.008,0.051,0,0.015,0,0.055c0,0.027,0.01,0.039,0.03,0.059c-0.004,0.039,0.064,0.066,0.052,0.118
				c0.031,0.008,0.012,0.024,0.031,0.027c0,0.027,0.023,0.047,0.039,0.062c0.008,0.024,0.071,0.047,0.071,0.047
				c0.024,0.02,0.028,0.036,0.032,0.04c-0.008,0.042,0.01,0.055,0.023,0.09c0.031,0,0.074,0.055,0.078,0.075
				c0.02,0.003,0.079,0.039,0.083,0.059c0.039,0,0.051,0.067,0.094,0.078c0.016,0.024,0.047,0.052,0.083,0.071
				c0.004,0.012,0.13,0.09,0.149,0.083c-0.012,0.062,0.2,0.051,0.189,0.09c0.054,0.016,0.098,0.051,0.141,0.062
				c0.004,0.02,0.067,0.016,0.059,0.031c0.071,0,0.126,0.047,0.181,0.072c0.023,0.015,0.153,0.067,0.153,0.067
				c0.067,0.008,0.137,0.074,0.2,0.078c0.051,0.016,0.083,0.031,0.138,0.035c0.035,0.024,0.074,0.051,0.118,0.043
				c0,0.039,0.679-0.087,0.573-0.099c0,0.031,0.22-0.074,0.22-0.153c0.047-0.02,0.024-0.066,0.071-0.079
				c0-0.028,0.035-0.173,0.059-0.176c0.003-0.02,0.024-0.169,0.047-0.177c-0.004-0.035,0.008-0.078,0.02-0.114
				c0.008,0,0.024-0.055,0.028-0.066c-0.004-0.028-0.015-0.196-0.015-0.196c0.008-0.083-0.076-0.272-0.106-0.299
				c-0.02-0.023-0.098-0.181-0.122-0.215c-0.004-0.013-0.04-0.056-0.055-0.06c-0.028-0.024-0.032-0.039-0.079-0.047
				c-0.032,0-0.059,0.003-0.094-0.008c-0.031,0.004-0.054,0.02-0.078,0.024c-0.023,0.024-0.137,0.047-0.145,0.082
				c-0.02-0.004-0.138,0-0.141,0.016c-0.067-0.007-0.138,0.003-0.22,0c-0.016-0.004-0.145,0.036-0.145-0.004
				c-0.052-0.003-0.076-0.02-0.11-0.027c0-0.048-0.22-0.059-0.212-0.094c-0.035-0.008-0.168-0.052-0.161-0.079
				c-0.02,0.004-0.07-0.031-0.07-0.04c-0.028,0-0.052-0.047-0.08-0.055c-0.05-0.07-0.078-0.113-0.042-0.208
				c0.016-0.031,0.012-0.078,0.042-0.11c0.017-0.004,0.075-0.05,0.075-0.082c0.032-0.024,0.067-0.048,0.094-0.036
				c0.008-0.027,0.075-0.012,0.079-0.031c0.027,0.004,0.058-0.004,0.11,0c0.031,0.008,0.055-0.008,0.086-0.008
				c0.055,0.004,0.118,0.008,0.173,0.012c0.039,0.007,0.09-0.004,0.125,0.003c0.031-0.003,0.188-0.011,0.188-0.024
				c0.098,0.008,0.152-0.023,0.259-0.011c0.003-0.012,0.278,0.011,0.313,0.008c0.06,0.007,0.11,0.003,0.153,0.003
				c0.059,0.016,0.11,0.021,0.146,0.027c0.094,0.004,0.181-0.004,0.282,0.012c0.063-0.004,0.122-0.004,0.182-0.023
				c0.058,0.004,0.113,0,0.157,0c0.016-0.004,0.071-0.024,0.071-0.036c0.047,0.008,0.094,0.008,0.137-0.036
				c0.047,0.016,0.121-0.035,0.125-0.105c0.003-0.043-0.019-0.236-0.043-0.24c-0.004-0.02-0.008-0.188-0.008-0.188
				c-0.004-0.059-0.02-0.087-0.016-0.133c0-0.087-0.04-0.103-0.04-0.176c0-0.021-0.043-0.169-0.051-0.169
				c-0.012-0.056-0.031-0.083-0.043-0.114c-0.004-0.039-0.028-0.07-0.059-0.097c0.016-0.055-0.09-0.099-0.145-0.11
				c-0.071-0.012-0.157,0-0.224-0.008c-0.074,0-0.196-0.011-0.232,0.047c-0.031,0.004-0.247,0.02-0.318,0.02
				c0.004,0.012-0.169,0.02-0.188,0.012c-0.055-0.012-0.094-0.003-0.145-0.007c-0.004,0.007-0.067,0.019-0.086,0.024
				c0,0.015-0.283-0.017-0.279-0.028c-0.062,0-0.094-0.024-0.15-0.024c-0.015-0.003-0.078-0.035-0.074-0.054
				c-0.083-0.086-0.039-0.177,0.008-0.275c0.016-0.059,0.027-0.075,0.047-0.134c0.031,0,0.075-0.04,0.087-0.071
				c0.027,0,0.161-0.067,0.157-0.079c0.036,0,0.157,0.012,0.157-0.003c0.032-0.007,0.039-0.016,0.067-0.012
				c0.004-0.016,0.09-0.004,0.11-0.008c0-0.008,0.09-0.008,0.093-0.027c0.056,0.016,0.079-0.027,0.138-0.012
				c0.007-0.023,0.129-0.026,0.152-0.023c0.04,0,0.181,0.021,0.189-0.023c0.042,0.004,0.083-0.027,0.125-0.016
				c0.051,0,0.086-0.031,0.153-0.011c0.063,0.007,0.103-0.012,0.165-0.02c0.063,0.016,0.15,0,0.212,0.008
				c0.051,0.004,0.086-0.011,0.141-0.003c0.062,0.003,0.114-0.02,0.161-0.02c0,0,0.201-0.008,0.239-0.016
				c0.059,0.016,0.086-0.024,0.137-0.008c0.028-0.004,0.162,0,0.162-0.016c0.036-0.007,0.086-0.02,0.13-0.039
				c0.058-0.027,0.082-0.051,0.086-0.106c0.003-0.035,0.015-0.024,0.035-0.047c0.032-0.023,0.028-0.047,0.036-0.082
				c0.008-0.031,0.02-0.078-0.017-0.11C49.284,127.214,49.258,127.128,49.245,127.135"/>
			<path fill="#FFFFFF" d="M53.788,127.54c0.004-0.02-0.016-0.051-0.027-0.055c0-0.016-0.004-0.036-0.024-0.051
				c-0.004-0.011-0.02-0.058-0.024-0.078c-0.074-0.063-0.101-0.176-0.109-0.259c-0.02-0.004-0.106-0.122-0.126-0.146
				c-0.023-0.027-0.035-0.052-0.074-0.052c0.004-0.015-0.016-0.003-0.016-0.02c-0.067-0.012-0.106-0.062-0.177-0.062
				c0-0.02-0.311-0.067-0.354-0.058c-0.058,0-0.113,0.007-0.165,0.003c-0.047-0.012-0.083,0.012-0.114,0.004
				c-0.012-0.004-0.114,0.008-0.105,0.012c-0.048-0.004-0.063,0-0.106,0c-0.004,0.043-0.197,0.012-0.228,0.012
				c-0.004,0.007-0.103,0.016-0.126,0.011c0.004,0.008-0.04,0.02-0.059,0.024c-0.074,0.023-0.169,0.016-0.247,0.016
				c0,0.027-0.188,0.02-0.228,0.02c0,0.031-0.212-0.012-0.212,0.008c-0.062,0.016-0.106,0.024-0.157,0.021
				c-0.047-0.016-0.07-0.008-0.125,0c-0.086-0.004-0.176,0.007-0.263,0c-0.004,0.011-0.098,0.023-0.113,0.02
				c0,0.019-0.083,0.008-0.083,0.031c-0.012-0.004-0.035-0.031-0.042-0.012c-0.06-0.004,0,0.012-0.056,0.008
				c0,0.008-0.224,0.071-0.278,0.086c-0.044,0.012-0.083,0.02-0.111,0.059c-0.031,0.028-0.066,0.028-0.089,0.055
				c-0.02,0.016-0.031,0.031-0.056,0.043c-0.003,0.035-0.016,0.023-0.027,0.039c-0.012,0.047-0.017,0.099-0.028,0.157
				c0,0.027-0.031,0.279-0.047,0.286c-0.004,0.016-0.079,0.201-0.094,0.197c-0.004,0.024-0.056,0.11-0.06,0.11
				c-0.003,0.02-0.07,0.177-0.086,0.172c-0.012,0.024-0.056,0.067-0.052,0.086c-0.024,0.004-0.05,0.083-0.062,0.087
				c-0.008,0.031-0.039,0.055-0.043,0.083c-0.031,0.016-0.059,0.098-0.071,0.098c-0.031,0.075-0.103,0.121-0.103,0.185
				c-0.015,0.004-0.073,0.153-0.082,0.185c-0.027-0.008-0.063,0.2-0.071,0.215c0.004,0.032-0.051,0.192-0.055,0.201
				c-0.004,0.016-0.027,0.079-0.035,0.074c-0.004,0.044-0.016,0.087-0.023,0.122c-0.024,0-0.067,0.166-0.067,0.196
				c-0.032-0.008-0.059,0.138-0.071,0.177c-0.028,0.133-0.094,0.247-0.118,0.393c-0.012,0.094-0.039,0.161-0.063,0.248
				c-0.016,0.059-0.023,0.148-0.004,0.203c0,0,0,0.216-0.008,0.243c0.02,0.008,0.043,0.188,0.043,0.209
				c0.008,0.003,0.036,0.062,0.031,0.07c0.02,0.015,0.005,0.031,0.035,0.047c-0.004,0.035,0.008,0.04,0.023,0.043
				c-0.004,0.047,0.072,0.074,0.091,0.106c0.02,0.016,0.04,0.059,0.043,0.094c0.031-0.008,0.044,0.161,0.074,0.161
				c-0.008,0.04,0.027,0.063,0.023,0.098c0.017,0.012,0.056,0.087,0.056,0.087c0.004,0.011,0.012,0.066,0.023,0.058
				c-0.012,0.04,0.02,0.047,0.027,0.079c0.04,0.02,0.06,0.087,0.087,0.087c0.016,0.039,0.086,0.051,0.122,0.07
				c-0.004,0.02,0.129,0.067,0.165,0.075c-0.003,0.019,0.129,0.035,0.166,0.035c-0.004,0.008,0.055,0.042,0.066,0.047
				c0.036,0.008,0.071,0.027,0.105,0.039c0.036,0.009,0.056,0.024,0.083,0.028c0.011,0.051,0.117,0.098,0.165,0.089
				c0.042-0.007,0.062,0,0.097,0.017c0.048,0.024,0.064,0.027,0.103,0.02c0.02,0.004,0.098,0,0.094,0.008
				c0.027,0.008,0.012,0.019,0.032,0.023c0.031,0.047,0.271,0.008,0.329,0.012c0.051-0.008,0.439-0.016,0.499-0.008
				c0.046,0,0.082-0.019,0.125-0.019c0-0.02,0.152-0.04,0.173-0.043c0.078-0.015,0.161-0.02,0.196-0.102
				c0.067-0.02,0.114-0.105,0.126-0.165c0.008-0.008,0.039-0.071,0.039-0.071l0.043-0.165c0.008-0.051,0.036-0.09,0.036-0.153
				c0.004-0.051,0.016-0.294-0.027-0.318c0.008-0.051-0.055-0.125-0.042-0.153c-0.004-0.02-0.028-0.059-0.036-0.094
				c-0.008-0.031-0.031-0.028-0.02-0.075c0-0.031,0-0.031-0.024-0.059c-0.02-0.039-0.051-0.055-0.071-0.078
				c-0.008-0.031-0.016-0.071-0.02-0.079c-0.067-0.039-0.075-0.106-0.161-0.106c-0.012,0.008-0.086,0.021-0.086,0.021
				c-0.016-0.004-0.07,0.019-0.079,0.039c-0.035-0.008-0.054,0.047-0.094,0.04c-0.016,0.027-0.066,0.062-0.09,0.055
				c-0.031,0.047-0.141,0.016-0.149,0.043c-0.031,0-0.185-0.02-0.193,0.023c-0.026-0.008,0.012,0-0.034,0
				c-0.009,0.016-0.06-0.008-0.067-0.008c-0.02,0.004-0.072-0.02-0.075-0.023c-0.007,0.031-0.471-0.02-0.463-0.067
				c-0.043-0.004-0.103-0.036-0.156-0.051c0.003-0.016-0.123-0.047-0.142-0.051c0.008-0.021-0.098-0.067-0.13-0.076
				c-0.016-0.059-0.071-0.082-0.071-0.141c0.004-0.063,0.008-0.122,0.04-0.173c0.024-0.05,0.083-0.042,0.102-0.098
				c0.024-0.016,0.059-0.023,0.067-0.047c0.028,0.004,0.055,0.004,0.087,0.011c0.035,0,0.067-0.011,0.105-0.011
				c-0.004-0.02,0.204,0.004,0.201-0.02c0.07,0.012,0.129,0.027,0.2,0.016c0.024-0.008,0.058,0,0.09-0.008
				c0.02-0.008,0.023-0.016,0.039-0.012c0,0.031,0.271,0.02,0.271,0.02c0.008,0.004,0.074,0,0.074-0.008
				c0.031,0,0.671,0.012,0.676-0.024c0.016,0,0.204-0.011,0.266-0.007c0-0.008,0.067,0,0.074-0.032c0.012,0.004,0.106,0,0.111-0.008
				c0.082,0,0.118-0.042,0.2-0.039c0.063,0.007,0.098-0.016,0.154-0.024c0-0.02,0.058-0.004,0.062-0.023
				c0.035,0.012,0.157-0.008,0.165-0.067c0.043-0.012,0.082-0.083,0.09-0.13c0.027,0.008,0.011-0.235,0.046-0.235
				c0-0.04,0.008-0.083,0.008-0.122c0.008-0.032-0.004-0.062,0.004-0.114c-0.004-0.003-0.028-0.059-0.031-0.066
				c-0.017-0.016-0.027-0.051-0.024-0.071c-0.027-0.008-0.032-0.161-0.067-0.173c0.004-0.05-0.039-0.16-0.083-0.208
				c0.004-0.016-0.024-0.051-0.039-0.067c-0.02-0.031-0.02-0.051-0.051-0.067c-0.02-0.035,0-0.031-0.04-0.04
				c-0.023-0.008-0.056-0.015-0.066-0.042c-0.004-0.005-0.063-0.036-0.063-0.043c-0.032,0-0.042-0.024-0.083-0.024
				c-0.027,0-0.083,0.032-0.105,0.024c0,0.02-0.119,0.028-0.129,0.024c-0.017,0.02-0.071,0.047-0.098,0.047
				c-0.028,0.035-0.075,0.024-0.114,0.024c-0.008,0.015-0.146,0.027-0.154,0.05c-0.058,0.004-0.129,0.024-0.203,0.021
				c0,0.02-0.365,0.036-0.405,0.032c-0.004,0.035-0.235-0.009-0.24,0.011c-0.043-0.016-0.074,0.008-0.125-0.004
				c-0.058-0.017-0.055-0.056-0.106-0.087c0-0.046-0.004-0.098,0.056-0.133c0.016-0.004,0.062-0.055,0.062-0.075
				c0.046-0.016,0.071-0.074,0.094-0.129c0.012-0.027,0.023-0.067,0.047-0.099c0.024-0.015,0.047-0.026,0.079-0.054
				c0.028-0.019,0.055-0.036,0.075-0.063c0.02-0.012,0.031,0,0.043-0.036c0.027,0.008,0.082-0.024,0.094-0.04
				c0.032,0.008,0.059-0.04,0.094-0.047c0.036,0.008,0.06-0.017,0.09-0.008c0.004-0.009,0.071-0.036,0.094-0.028
				c-0.004-0.008,0.396-0.027,0.495-0.008c0.185,0.016,0.365,0.004,0.554,0.012c0.019,0.004,0.102-0.004,0.098,0.004
				c0.02,0.003,0.109,0.02,0.121-0.012c0.008,0.003,0.063-0.004,0.058-0.012c0.036,0.008,0.083-0.008,0.12,0
				c0.02,0.008,0.368-0.028,0.423-0.024c0.11,0.031,0.189,0.024,0.287,0.02c0.039,0.012,0.063-0.008,0.094-0.02
				c0.064-0.043,0.146-0.303,0.137-0.396C53.838,127.673,53.791,127.54,53.788,127.54"/>
			<path fill="#FFFFFF" d="M66.832,131.426c0,0-0.043-0.133-0.043-0.153c0-0.02-0.032-0.165-0.035-0.169
				c-0.012-0.062-0.035-0.125-0.051-0.196c-0.023-0.004-0.015-0.099-0.042-0.102c0.004-0.041-0.059-0.099-0.099-0.122
				c-0.063-0.036-0.109-0.071-0.184-0.067c0,0.007-0.078,0.027-0.103,0.047c-0.031,0.012-0.067,0.02-0.086,0.036
				c-0.012,0.016-0.056,0.027-0.067,0.035c-0.012,0.015-0.055,0.024-0.082,0.024c-0.028-0.004-0.169,0.051-0.173,0.062
				c-0.043-0.012-0.093,0.016-0.13,0.016c-0.002,0.02-0.105,0.028-0.121,0.02c-0.012,0.036-0.248,0.016-0.251,0.023
				c-0.027-0.003-0.114-0.015-0.114,0c-0.066-0.007-0.113-0.02-0.172-0.015c-0.122,0.024-0.232,0.012-0.349,0
				c-0.036-0.008-0.264,0.004-0.255-0.024c-0.039-0.008-0.071-0.04-0.09-0.078c-0.015-0.013-0.051-0.024-0.063-0.036
				c-0.007-0.031,0-0.047-0.003-0.083c0.012,0,0.035-0.074,0.056-0.078c0.011-0.028,0.065-0.075,0.082-0.083
				c0-0.016,0.031-0.043,0.047-0.059c0.012-0.035,0.024-0.012,0.036-0.052c0.012,0.004,0.04-0.039,0.048-0.058
				c0.015-0.028,0.045-0.06,0.07-0.071c0.008-0.043,0.059-0.058,0.087-0.098c0.031,0.007,0.042-0.024,0.078-0.028
				c0-0.008,0.063-0.003,0.075-0.011c0.008-0.028,0.188-0.021,0.192-0.044c0.016,0.008,0.121,0.016,0.121-0.003
				c0.032,0.007,0.072-0.02,0.11-0.028c0.039,0.004,0.271,0.016,0.274-0.015c0.02-0.008,0.185-0.012,0.185-0.037
				c0.102-0.003,0.153-0.026,0.239-0.015c0.032-0.004,0.111-0.004,0.111-0.017c0.04,0.005,0.09-0.004,0.145,0.005
				c0-0.036,0.169-0.031,0.204-0.04c0.099,0.008,0.185-0.023,0.259-0.016c0-0.031,0.193,0.02,0.197-0.007
				c0.117,0,0.247,0,0.373-0.024c0.032-0.016,0.24-0.012,0.24-0.012c0.075,0.005,0.154-0.031,0.224-0.02
				c0.003-0.011,0.118-0.062,0.137-0.059c0,0,0.09-0.047,0.106-0.062c0.039-0.043,0.05-0.086,0.062-0.137
				c0.008-0.063,0.021-0.201,0.021-0.221c0.027,0.009,0.019-0.368-0.028-0.368c0.004-0.02-0.04-0.181-0.04-0.216
				c-0.007-0.052-0.074-0.311-0.089-0.329c-0.008-0.017-0.036-0.021-0.036-0.032c-0.047-0.004-0.078-0.052-0.106-0.09
				c-0.039,0-0.047-0.059-0.086-0.055c0-0.02-0.07-0.031-0.086-0.035c-0.004-0.031-0.278,0.008-0.275,0
				c-0.03,0-0.058,0.027-0.094,0.027c0,0.02-0.11,0-0.134,0.004c0,0.011-0.474,0.059-0.479,0.083
				c-0.045-0.004-1.157,0.133-1.157,0.162c-0.02-0.004-0.318,0.039-0.385,0.031c-0.007,0.024-0.231,0.011-0.267,0.004
				c-0.02,0-0.212,0.016-0.212,0.016c-0.015-0.005-0.196,0.012-0.201,0.031c-0.05,0.003-0.156,0.039-0.164,0.109
				c-0.008-0.003-0.024,0.032-0.028,0.052c-0.043,0.02-0.051,0.046-0.079,0.071c-0.028,0.016-0.02,0.046-0.059,0.067
				c0,0.019-0.027,0.055-0.039,0.102c-0.008,0.032-0.004,0.051-0.039,0.071c-0.027,0.016-0.024,0.047-0.052,0.052
				c-0.004,0.019-0.015,0.058-0.035,0.062c-0.02,0.078-0.067,0.102-0.091,0.18c-0.007,0-0.062,0.13-0.062,0.15
				c-0.012-0.004-0.075,0.115-0.078,0.134c-0.013-0.004-0.056,0.059-0.053,0.07c-0.039,0.016-0.042,0.071-0.078,0.091
				c-0.008,0.027-0.043,0.027-0.047,0.07c-0.032,0.012-0.035,0.075-0.071,0.075c-0.004,0.036-0.079,0.079-0.103,0.102
				c-0.007,0.024-0.055,0.047-0.074,0.051c-0.142,0.047-0.075-0.137-0.043-0.203c0.02-0.047,0.046-0.244,0.067-0.248
				c0.003-0.051,0.011-0.109,0.019-0.141c0.008-0.04-0.012-0.071-0.008-0.114c0.008-0.07-0.008-0.156,0-0.223
				c0.008-0.036-0.011-0.15-0.039-0.157c0.004-0.02-0.016-0.086-0.024-0.129c0-0.013,0.008-0.06-0.012-0.056
				c0-0.04-0.028-0.047-0.02-0.079c-0.036-0.008-0.046-0.07-0.051-0.105c-0.016-0.024,0-0.027-0.016-0.035
				c0.004-0.041-0.024-0.024-0.02-0.06c-0.056-0.039-0.036-0.137-0.095-0.173c0-0.035-0.055-0.089-0.083-0.118
				c0.004-0.03-0.074-0.07-0.07-0.09c-0.02,0.008-0.122-0.066-0.122-0.074c-0.02-0.012-0.153-0.051-0.153-0.051
				c-0.031-0.008-0.066-0.056-0.094-0.056c0.004-0.007-0.326-0.106-0.357-0.113c-0.095-0.012-0.126-0.048-0.208-0.055
				c-0.06-0.005-0.345-0.091-0.384-0.094c-0.021,0.007-0.036-0.016-0.056-0.012c-0.003-0.012-0.597-0.11-0.655-0.113
				c-0.04-0.012-0.475-0.067-0.51-0.067c0-0.047-0.958-0.059-1.048-0.027c-0.048,0.003-0.216,0.031-0.271,0.019
				c0,0-0.2,0.027-0.216,0.051c-0.031-0.007-0.09,0.059-0.094,0.09c-0.05,0.032-0.247,0.032-0.341,0.047
				c-0.043,0.004-0.103,0.071-0.137,0.106c-0.024,0.023-0.063,0.051-0.071,0.094c-0.004-0.004-0.043,0.036-0.043,0.051
				c-0.027,0.02-0.039,0.059-0.086,0.055c-0.067,0.008-0.114-0.122-0.114-0.161c0.004-0.028-0.004-0.086,0.004-0.122
				c-0.008,0-0.02-0.052-0.02-0.059c-0.017-0.012-0.032-0.04-0.032-0.046c-0.015-0.028-0.054-0.048-0.047-0.075
				c-0.015-0.016-0.015-0.032-0.027-0.04c0.004-0.021-0.023-0.04-0.043-0.063c-0.043-0.066-0.122-0.125-0.208-0.137
				c-0.012-0.032-0.083-0.052-0.11-0.059c0-0.012-0.102-0.008-0.113-0.012c-0.087,0.015-0.161,0.051-0.224,0.106
				c-0.047,0.04-0.062,0.055-0.079,0.121c-0.024,0.008-0.007,0.134-0.035,0.126c-0.012,0.117-0.032,0.196-0.036,0.321
				c-0.019-0.008-0.039,0.149-0.031,0.177c0.015,0.043-0.004,0.066-0.02,0.125c-0.028-0.009-0.047,0.145-0.059,0.18
				c-0.016-0.008-0.047,0.224-0.059,0.259c-0.024-0.004-0.046,0.235-0.059,0.278c0,0.027-0.055,0.333-0.059,0.333
				c0,0.047-0.027,0.072-0.02,0.126c0.004,0.008,0.02,0.118-0.008,0.105c-0.008,0.043-0.056,0.291-0.071,0.287
				c-0.004,0.046-0.016,0.106-0.02,0.169c0.016-0.012-0.012,0.035-0.016,0.051c-0.008,0.035-0.043,0.075-0.062,0.133
				c-0.02-0.008,0.008,0.008-0.016,0.005c-0.02,0.031-0.027,0.023-0.067,0.023c-0.086-0.012-0.089-0.129-0.137-0.169
				c0.003-0.043-0.079-0.126-0.103-0.149c-0.004-0.04-0.027-0.09-0.051-0.098c0-0.043-0.086-0.114-0.105-0.153
				c0-0.02-0.032-0.067-0.048-0.086c-0.035-0.027-0.054-0.095-0.093-0.118c0.004-0.016-0.012-0.063-0.016-0.063
				c0.003-0.078-0.126-0.133-0.142-0.232c-0.004-0.043-0.055-0.078-0.047-0.117c-0.039-0.032-0.027-0.067-0.063-0.103l-0.034-0.066
				c0-0.033-0.008-0.095-0.036-0.11c0-0.036-0.051-0.072-0.043-0.106c0.004-0.012,0.032-0.083,0.016-0.086
				c-0.008-0.016-0.023-0.134-0.039-0.138c0.016-0.067-0.008-0.177,0.031-0.247c0,0,0.013-0.232,0.013-0.267
				c0.007-0.078,0.015-0.161,0.027-0.235c-0.024,0.004-0.016-0.087-0.004-0.118c0-0.04,0.041-0.282-0.016-0.291
				c0.004-0.02-0.031-0.102-0.059-0.109c-0.007-0.021-0.047-0.047-0.07-0.047c0-0.016-0.122-0.04-0.11-0.071
				c-0.062-0.027-0.086-0.074-0.137-0.098c-0.051-0.027-0.083-0.036-0.146-0.036c-0.036-0.011-0.27-0.09-0.274-0.035
				c-0.024,0.004-0.094,0.02-0.094,0.02c-0.036,0.008-0.062,0.032-0.091,0.024c-0.003,0.011-0.07,0.035-0.098,0.058
				c-0.023-0.007-0.04,0.04-0.074,0.043c0.003,0.008-0.115,0.161-0.106,0.153c-0.017,0.083-0.055,0.137-0.06,0.201
				c-0.007,0.098-0.051,0.168-0.058,0.287c0,0.046-0.004,0.058-0.012,0.098c-0.004,0.036-0.019,0.063-0.028,0.094
				c-0.027-0.008-0.046,0.263-0.027,0.259c0,0.024,0.02,0.13,0.036,0.133c-0.008,0.122-0.012,0.236-0.016,0.354
				c0.007,0.039-0.02,0.079-0.023,0.122c-0.008,0.054-0.012,0.117-0.023,0.176c-0.012,0.047-0.009,0.11-0.032,0.169
				c-0.02,0.058-0.028,0.122-0.036,0.192c-0.008,0.062-0.012,0.118-0.028,0.176c-0.034,0.067-0.05,0.134-0.07,0.188
				c-0.032,0.094-0.075,0.201-0.086,0.287c-0.004,0.027-0.072,0.252-0.083,0.248c-0.02,0.074-0.066,0.141-0.078,0.212
				c-0.028,0-0.04,0.188-0.067,0.184c-0.016,0.153-0.086,0.217-0.118,0.374c-0.028,0.129-0.051,0.224-0.091,0.338
				c-0.015-0.004-0.027,0.047-0.027,0.062c-0.016-0.003-0.036,0.126-0.032,0.137c0.012,0.004-0.043,0.185-0.043,0.224
				c-0.004,0.043,0.004,0.063-0.012,0.11c-0.012,0.039-0.031,0.074-0.035,0.113c0,0.059,0.02,0.11,0.004,0.168
				c-0.008,0.037-0.02,0.079-0.027,0.114c-0.005,0.063,0.027,0.09,0.027,0.153c0.004,0.059-0.004,0.129,0.039,0.185
				c0.017,0.016,0.021,0.042,0.04,0.042c0.023,0.043,0.046,0.028,0.082,0.047c0.02,0.063,0.216,0.066,0.22,0.094
				c0.052,0.004,0.095,0.015,0.153,0.015c0.031,0.008,0.275,0.063,0.302,0.071c0.106,0.035,0.114-0.071,0.185-0.09
				c0-0.024,0.043-0.125,0.058-0.121c0.009-0.047,0.028-0.043,0.032-0.087c0.02,0.008,0.035-0.121,0.04-0.145
				c0.027-0.051,0.062-0.102,0.07-0.165c0.004-0.056,0.012-0.118,0.016-0.181c0.011-0.113,0.05-0.18,0.058-0.298
				c0.016,0.004,0.016-0.172,0.016-0.192c0.036,0.012,0.032-0.2,0.062-0.2c0.004-0.02,0.052-0.099,0.056-0.11
				c0.016-0.074,0.079-0.173,0.086-0.244c0,0,0.103-0.271,0.11-0.301c0.02,0.008,0.039-0.11,0.031-0.119
				c0.008-0.031-0.004-0.059,0.027-0.066c0.004-0.02,0.024-0.016,0.028-0.04c0.027,0.008,0.023-0.012,0.051-0.004
				c0.008-0.027,0.035-0.02,0.047-0.027c0.031,0.008,0.047,0.011,0.071,0.027c0.015,0.016,0.015,0.036,0.035,0.039
				c0.032,0.028,0.063,0.099,0.094,0.13c0,0.04,0.071,0.059,0.067,0.11c0.023,0.012,0.017,0.075,0.027,0.079
				c0.004,0.031,0.027,0.078,0.052,0.117c0.015,0.055,0.003,0.091,0.046,0.137c0.024,0.024,0.043,0.059,0.04,0.079
				c0.008,0,0.023,0.04,0.021,0.056c0,0,0.042,0.078,0.046,0.086c0.02,0.04,0.055,0.047,0.055,0.091
				c0.008,0.011,0.055,0.082,0.051,0.105c0.028,0.008,0.028,0.056,0.067,0.083c-0.004,0.047,0.047,0.071,0.043,0.106
				c0.031,0.008,0.024,0.114,0.055,0.142c-0.004,0.019,0.032,0.07,0.052,0.085c0.007,0.052,0.032,0.079,0.043,0.126
				c0.004,0,0.027,0.098,0.031,0.118c0.02,0.003,0.039,0.145,0.036,0.164c0.023-0.004,0.008,0.169,0.031,0.173
				c-0.008,0.071-0.02,0.145-0.027,0.22c0.012,0.003,0.008,0.102,0.02,0.13c0.012,0.003,0.043,0.102,0.036,0.129
				c0.031,0,0.004,0.114,0.035,0.122c-0.004,0.02,0.008,0.055,0.032,0.07c0.04,0.031,0.055,0.091,0.09,0.118
				c0.036,0.051,0.056,0.079,0.083,0.123c0.075,0.031,0.122,0.054,0.208,0.054c0.035,0.013,0.389,0.067,0.396,0.072
				c0.043-0.012,0.075-0.024,0.115-0.024c-0.004,0.008,0.093-0.048,0.105-0.055c0-0.027,0.063-0.066,0.063-0.094
				c0.011,0.004,0.03-0.055,0.03-0.067c0,0,0.071-0.114,0.079-0.133c0.007,0.004,0.051-0.146,0.055-0.181
				c0.02,0.004,0.07-0.259,0.078-0.294c0.008-0.062,0.016-0.133,0.023-0.18c-0.003-0.024-0.015-0.056-0.011-0.083
				c0.011-0.09,0.02-0.235,0.023-0.337c-0.023,0.003-0.02-0.15-0.02-0.189c0.004-0.102,0.031-0.192,0.051-0.306
				c0.027-0.114,0.055-0.235,0.062-0.333c0-0.083,0.031-0.126,0.04-0.193c0.012-0.062,0.028-0.105,0.04-0.165
				c0.012,0.003,0.008-0.129,0.02-0.161c0.004-0.048,0.012-0.118,0.027-0.177c0.012-0.046,0.036-0.106,0.042-0.145
				c0.008-0.075,0.008-0.13,0.017-0.188c0.003-0.051,0-0.074,0.011-0.118c0.036-0.113,0.032-0.243,0.047-0.361
				c0.021-0.055,0-0.109,0.023-0.168c0.02-0.027,0.017-0.056,0.017-0.086c0.019-0.094,0.019-0.162,0.027-0.251
				c0.02-0.078-0.079-0.121-0.046-0.208c0.015-0.048,0.042-0.079,0.046-0.122c0.008-0.039,0.016-0.098,0.05-0.117
				c0.043-0.024,0.072-0.016,0.13,0c0.024,0.05,0.07,0.102,0.11,0.136c0.043,0.008,0.094,0.062,0.153,0.067
				c0.02-0.005,0.239,0.074,0.239,0.047c0.04,0,0.212,0,0.22-0.016c0.04-0.009,0.071-0.012,0.098-0.047
				c0.02,0.003,0.086-0.028,0.091-0.04c0.055,0.008,0.114-0.051,0.173-0.055c0.03,0.007,0.05-0.008,0.082-0.008
				c0.004-0.007,0.105,0,0.133-0.007c0.056,0.011,0.106,0.019,0.157,0.004c0.052-0.008,0.075,0,0.122,0.011
				c-0.004,0.008,0.066,0.027,0.09,0.032c0.008,0.016,0.059,0.102,0.055,0.098c-0.023,0.137-0.043,0.279-0.066,0.417
				c-0.008,0.055,0.004,0.142-0.023,0.196c-0.024,0.047-0.056,0.079-0.075,0.122c-0.031,0.007-0.016,0.031-0.042,0.031
				c-0.024,0.015-0.047,0.043-0.075,0.055c-0.042,0.008-0.082,0.027-0.118,0.027c0,0-0.09,0.012-0.122,0.004
				c-0.055-0.008-0.083-0.016-0.129,0.004c-0.051,0.003-0.169,0.071-0.173,0.117c-0.031-0.011-0.047,0.122-0.074,0.115
				c0,0.031-0.181,0.608-0.169,0.604c0,0.008,0.028,0.138,0.028,0.138c0,0.043,0.015,0.133,0.054,0.16
				c0.004,0.031,0.039,0.083,0.067,0.09c0.016,0.016,0.04,0.083,0.043,0.087c-0.004,0.035,0.058,0.07,0.082,0.098
				c0.024,0.039,0.062,0.059,0.086,0.105c0.036,0,0.056,0.047,0.083,0.056c0,0,0.11,0.055,0.118,0.07
				c0.007,0.047-0.043,0.318-0.056,0.315c0.005,0.05-0.015,0.07-0.015,0.109c-0.043-0.011-0.071,0.311-0.071,0.342
				c0,0.027-0.027,0.055-0.031,0.082c-0.008,0.043,0.008,0.067,0.004,0.106c-0.008,0.047-0.067,0.235-0.056,0.294
				c0.008,0.012-0.078,0.35-0.055,0.345c0.004,0.04,0,0.083,0.004,0.122c0.043,0.011,0.012,0.188,0.043,0.196
				c-0.012,0.051,0.105,0.185,0.141,0.192c0.008,0.031,0.058,0.035,0.083,0.063c0.01,0.027,0.046,0.035,0.058,0.07
				c0.016-0.008,0.059,0.024,0.055,0.032c0.043,0.019,0.071,0.039,0.106,0.047c0.039,0,0.271,0.024,0.271,0.003
				c0.015,0.005,0.086,0,0.09-0.019c0.023,0.008,0.055-0.023,0.074-0.02c0.035-0.032,0.059-0.036,0.09-0.06
				c0.017-0.003,0.043-0.05,0.047-0.05c0.004-0.017,0.02-0.04,0.02-0.075c0.004-0.04,0.087-0.349,0.09-0.369
				c0-0.039-0.003-0.063,0.004-0.099c0.02-0.039,0.028-0.082,0.028-0.129c-0.024,0.004,0.04-0.235,0.04-0.263
				c0.011,0,0.058-0.291,0.055-0.33c0.032,0,0.066-0.165,0.075-0.192c0.03,0.008,0.066-0.301,0.074-0.301
				c0.004-0.028,0.02-0.169,0.055-0.169c0.024-0.098,0.051-0.172,0.063-0.263c0.016-0.059,0.04-0.07,0.059-0.114
				c0.024-0.016,0.028-0.047,0.036-0.043c0.032-0.02,0.04-0.043,0.079-0.043c0.11,0,0.228-0.023,0.329-0.036
				c0.008-0.023,0.122-0.026,0.122-0.051c0.032,0,0.06-0.012,0.099-0.012c0.007-0.022,0.094-0.019,0.114-0.019
				c0.004-0.02,0.149-0.047,0.177-0.039c0,0,0.082-0.024,0.086-0.024c0.019-0.031,0.046-0.051,0.066-0.054
				c0.024-0.008,0.036-0.012,0.051-0.032c0.02-0.004,0.047,0.004,0.071,0.008c0.008-0.028,0.083-0.004,0.09-0.031
				c0.011,0.003,0.125-0.024,0.125-0.032c0.043,0.004,0.051-0.008,0.083-0.032c0.023-0.011,0.734-0.452,0.773-0.452
				c0.02-0.003,0.086-0.019,0.086-0.031c0.032,0,0.056-0.024,0.094-0.024c0.024-0.046,0.031-0.043,0.059-0.039
				c-0.008,0.02-0.047,0.177-0.063,0.168c0,0.036-0.027,0.059-0.031,0.079c-0.04,0.07-0.063,0.109-0.08,0.161
				c-0.023,0.004-0.05,0.141-0.086,0.133c0,0.02-0.035,0.075-0.039,0.071c-0.008,0.028-0.02,0.036-0.031,0.074
				c-0.032,0.012-0.036,0.063-0.043,0.091c-0.008,0-0.031,0.074-0.031,0.085c-0.02-0.007-0.048,0.162-0.075,0.153
				c0.004,0.005-0.086,0.185-0.082,0.185c-0.008,0.071-0.067,0.137-0.075,0.208c-0.004,0.027-0.056,0.196-0.063,0.196
				c-0.004,0.012-0.023,0.106-0.027,0.106c-0.008,0.051-0.011,0.114-0.027,0.165c-0.024,0.079-0.027,0.149-0.031,0.232
				c-0.016,0.051-0.016,0.098-0.012,0.149c0,0.086,0.012,0.18,0.008,0.239c0,0.031,0,0.267,0.032,0.275
				c0,0.008,0.02,0.079,0.027,0.083c-0.004,0.032,0.027,0.047,0.027,0.079c0.035,0.02,0.011,0.04,0.035,0.062
				c0.004,0.031,0.016,0.036,0.016,0.056c0.031,0.015,0.047,0.07,0.078,0.113c0.039,0.036,0.059,0.169,0.13,0.189
				c0.012,0.031,0.075,0.066,0.098,0.106c0.04,0,0.047,0.074,0.086,0.074c0.02,0.04,0.055,0.055,0.091,0.067
				c-0.004,0.008,0.07,0.056,0.082,0.059c-0.007,0.024,0.098,0.052,0.106,0.083c0.004,0,0.063,0.039,0.063,0.039
				c0.035,0.017,0.063,0.031,0.09,0.031c-0.008,0.032,0.157,0.075,0.188,0.083c0.059,0.016,0.11,0.047,0.173,0.059
				c-0.004,0.016,0.109,0.027,0.133,0.036c0.052,0,0.11,0.026,0.162,0.042c0.062,0.004,0.125,0.02,0.188,0.024
				c0.043,0,0.266,0.062,0.31,0.055c0.008-0.02,0.067,0.008,0.075-0.02c0.062,0.003,0.109,0.02,0.196,0
				c0.035-0.012,0.113-0.047,0.145-0.04c0.024-0.04,0.177-0.042,0.185-0.071c0.031,0.008,0.141-0.016,0.16-0.039
				c0.036-0.008,0.103-0.028,0.119-0.051c0.015,0.003,0.059-0.012,0.059-0.012c0.027-0.004,0.074-0.036,0.09-0.051
				c0.036-0.036,0.134-0.074,0.141-0.118c0.039-0.02,0.071-0.086,0.091-0.134c0.011-0.015,0.027-0.152,0.043-0.156
				c0.003-0.016,0.05-0.225,0.027-0.228c0.008-0.048,0.051-0.338,0.015-0.338c0.008-0.063-0.026-0.102-0.035-0.176
				c-0.012-0.004-0.028-0.099-0.031-0.118c-0.027-0.015-0.032-0.071-0.059-0.082c-0.032-0.048-0.086-0.114-0.142-0.118
				c-0.023-0.008-0.215,0.004-0.22,0.024c-0.02-0.004-0.14,0.027-0.145,0.032c-0.059-0.012-0.106,0.035-0.157,0.042
				c-0.043,0.028-0.055,0.024-0.118,0.031c0.004,0.004-0.055,0.016-0.067,0.012c-0.007,0.02-0.074,0.008-0.074,0.02
				c-0.063,0.008-0.063,0.015-0.114,0.024c0,0.02-0.079,0.035-0.09,0.027c0,0.021-0.105,0.012-0.125,0.016
				c-0.122,0.024-0.248,0.04-0.362,0.008c-0.036-0.012-0.231-0.051-0.228-0.063c-0.036-0.007-0.04-0.035-0.074-0.035
				c-0.008-0.032-0.056-0.063-0.078-0.075c-0.012-0.035-0.063-0.066-0.091-0.066c-0.012-0.032-0.039-0.074-0.062-0.086
				c-0.015-0.016-0.043-0.114-0.067-0.11c0.012-0.047,0.004-0.083,0.016-0.13c0.032-0.023,0.059-0.055,0.087-0.078
				c0.027,0,0.027-0.028,0.051-0.02c0.016-0.028,0.047-0.028,0.075-0.028c0.066-0.02,0.118-0.055,0.188-0.043
				c0.113,0.008,0.176-0.015,0.282,0c0.091,0.017,1.319-0.027,1.39-0.035c0.063,0.02,0.441-0.012,0.57-0.008
				c0.059,0.004,0.11-0.003,0.165,0.012c0.003-0.019,0.089-0.035,0.102-0.031c0.04,0.008,0.062-0.008,0.098,0
				c0.004-0.008,0.066-0.039,0.074-0.035c-0.004-0.004,0.114-0.043,0.133-0.074c0.027-0.031,0.056-0.052,0.056-0.095
				c0.012,0,0.039-0.055,0.043-0.062c0.016,0.003,0.055-0.08,0.063-0.106C66.828,131.744,66.828,131.465,66.832,131.426
				 M61.964,129.299c-0.027,0.067-0.051,0.121-0.13,0.16c-0.004,0.008-0.071,0.043-0.083,0.043c-0.02,0.032-0.083,0.051-0.11,0.051
				c-0.004,0.02-0.043,0.027-0.066,0.035c-0.016,0.017-0.036,0.028-0.062,0.024c-0.004,0.008-0.079,0.031-0.099,0.036
				c-0.04,0.046-0.106,0.058-0.166,0.058c-0.059,0.012-0.121,0.043-0.192,0.032c0.005,0.031-0.106,0.012-0.125,0.008
				c-0.058-0.008-0.102-0.008-0.141-0.047c-0.012-0.024-0.024-0.016-0.02-0.036c-0.023-0.031-0.004-0.035-0.032-0.055
				c0-0.027,0.004-0.165-0.023-0.153c0.003-0.036-0.004-0.212-0.021-0.216c0.004-0.02,0.008-0.102-0.007-0.105
				c0.007-0.036,0.016-0.067,0.023-0.106c0.004-0.04-0.012-0.056,0-0.098c0.004-0.055,0.016-0.122,0.082-0.122
				c0.064-0.008,0.118,0,0.178,0.004c0.046,0,0.062,0.004,0.104,0.012c0,0.027,0.084,0.023,0.084,0.047
				c0.058,0.008,0.089,0.016,0.148,0.016c0.032,0.008,0.063,0.031,0.099,0.023l0.161,0.048c0,0,0.071,0.031,0.082,0.036
				c0.059,0.015,0.099,0.055,0.146,0.058c0,0.04,0.152,0.047,0.183,0.114C61.983,129.184,62.007,129.299,61.964,129.299"/>
			<path fill="#FFFFFF" d="M82.408,131.018c-0.016-0.004-0.028-0.119-0.036-0.122c0.003-0.012-0.02-0.103-0.035-0.106
				c-0.009-0.056-0.047-0.098-0.055-0.142c-0.023-0.015-0.032-0.094-0.06-0.102c0.008-0.024-0.023-0.047-0.02-0.075
				c-0.036-0.027-0.062-0.079-0.105-0.118c0.007-0.015-0.036-0.051-0.043-0.078c-0.027-0.004-0.055-0.052-0.078-0.079
				c-0.023-0.019-0.051-0.031-0.079-0.04c-0.058-0.027-0.099-0.027-0.165-0.023c0,0.012-0.196,0.004-0.228-0.004
				c0,0.036-0.142,0.031-0.146,0.056c-0.043,0.004-0.377,0.031-0.412,0.042c-0.047,0.012-0.141,0.005-0.185,0.008
				c-0.024,0.004-0.432,0.035-0.514,0.023c-0.04-0.008-0.22-0.016-0.22,0c-0.083-0.008-0.153-0.008-0.263-0.02
				c0,0.027-0.263,0.008-0.29,0.004c-0.126-0.011-0.248,0.027-0.354,0.027c-0.122-0.008-0.644,0.036-0.711,0.024
				c0-0.004-0.604,0.039-0.679,0.031c-0.078,0-0.118-0.004-0.181-0.008c-0.07,0.016-0.13,0.031-0.196,0.04
				c-0.04,0.008-0.196,0.008-0.196,0.027c-0.052-0.004-0.075,0-0.119,0.043c-0.034,0.027-0.066,0.043-0.093,0.075
				c-0.041-0.008-0.076,0.055-0.103,0.078c-0.035,0.024-0.059,0.099-0.07,0.138c-0.027-0.011-0.087,0.106-0.099,0.137
				c-0.019,0.004-0.059,0.142-0.067,0.138c-0.003,0.039-0.027,0.086-0.027,0.113c-0.004,0.047,0.008,0.087-0.004,0.121
				c0.012,0.067,0.004,0.126-0.02,0.181l-0.015,0.056c-0.02,0.043-0.024,0.024-0.036,0.059c-0.016,0-0.046,0.078-0.062,0.074
				c0,0.028-0.04,0.059-0.047,0.079c-0.008,0.048-0.07,0.094-0.07,0.133c-0.024,0.008-0.094,0.13-0.106,0.169
				c-0.004-0.004-0.035,0.062-0.035,0.075c-0.016-0.004-0.032,0.04-0.036,0.047c-0.008,0-0.094,0.173-0.091,0.196
				c-0.02,0.004-0.094,0.169-0.094,0.197c-0.031-0.008-0.051,0.153-0.078,0.156c-0.028,0.068-0.062,0.095-0.066,0.157
				c-0.032,0-0.051,0.181-0.079,0.173c0,0.062-0.059,0.129-0.063,0.192c-0.031,0-0.026,0.482-0.089,0.475
				c-0.008,0.062-0.118,0.125-0.173,0.059c0,0-0.039-0.032-0.039-0.051c-0.008,0.008-0.004-0.019-0.02-0.024
				c-0.008-0.035-0.023-0.026-0.047-0.047c-0.015-0.024-0.02-0.067-0.055-0.062c0-0.02-0.02-0.004-0.016-0.016
				c-0.012-0.011-0.094-0.023-0.099-0.003c-0.011-0.004-0.07,0.008-0.077,0.031c-0.048-0.012-0.103,0.031-0.126,0.067
				c-0.02,0.015-0.102,0.054-0.133,0.059c-0.02,0.015-0.032,0.05-0.072,0.047c-0.003,0.016-0.027,0.008-0.039,0.023
				c-0.016-0.003-0.13,0.04-0.125,0.055c-0.027-0.012-0.133-0.02-0.137,0c-0.04,0-0.06,0.004-0.103,0.004
				c-0.004,0.02-0.219-0.009-0.247-0.017c0,0.02-0.169-0.016-0.22-0.011c-0.059-0.008-0.11-0.047-0.165-0.062
				c-0.066-0.036-0.118-0.04-0.192-0.051c0.008-0.024-0.13-0.051-0.126-0.079c-0.047-0.004-0.079-0.067-0.129-0.063
				c0.008-0.024-0.129-0.051-0.134-0.082c-0.023-0.015-0.051-0.059-0.078-0.059c0-0.036-0.047-0.056-0.062-0.06
				c0.004-0.011-0.043-0.023-0.056-0.026c-0.039,0-0.02-0.024-0.047-0.031c-0.016-0.024-0.044-0.075-0.074-0.079
				c0.003-0.032-0.149-0.138-0.173-0.16c-0.023-0.052-0.075-0.052-0.091-0.087c-0.027-0.008-0.034-0.059-0.074-0.059
				c-0.012-0.036-0.031-0.027-0.042-0.056c-0.012-0.011-0.024-0.027-0.04-0.043c-0.047-0.02-0.059-0.058-0.098-0.078
				c-0.024-0.037-0.071-0.048-0.066-0.103c-0.028,0.008-0.004-0.036-0.008-0.047c0.016-0.058,0.011-0.11,0.016-0.161
				c0.02-0.079,0.083-0.125,0.083-0.185c0.011,0.004,0.058-0.102,0.062-0.118c0.004-0.02,0.067-0.082,0.079-0.082
				c0-0.028,0.026-0.032,0.031-0.063c0.032-0.012,0.043-0.039,0.07-0.055c0.017-0.035,0.048-0.09,0.083-0.102
				c-0.003-0.02,0.05-0.078,0.075-0.082c0.024-0.043,0.055-0.062,0.095-0.094c0.003-0.032,0.055-0.04,0.066-0.075
				c0.036-0.023,0.048-0.059,0.087-0.086c0.004-0.016,0.098-0.095,0.125-0.087c0.035-0.042,0.07-0.042,0.105-0.083
				c0.024-0.012,0.083-0.031,0.09-0.07c0.048-0.04,0.071-0.043,0.134-0.067c0.039-0.04,0.074-0.04,0.114-0.087
				c0.047-0.004,0.05-0.023,0.103-0.032c0-0.007,0.074,0,0.074-0.024c0.055-0.004,0.071-0.043,0.122-0.059
				c0.019-0.004,0.106,0,0.113-0.019c0.008,0.004,0.071-0.012,0.067-0.016c0.043,0.004,0.083-0.003,0.122-0.003
				c0.019,0.003,0.083-0.024,0.086-0.032c0.043-0.008,0.115,0.012,0.153,0.012c0.027,0.004,0.086,0.031,0.082,0.059
				c0.031,0.02,0.051,0.106,0.04,0.138c-0.004,0.058-0.011,0.098-0.036,0.141c-0.031,0.047-0.082,0.228-0.082,0.256
				c0.015-0.005,0.011,0.078,0.003,0.074c-0.007,0.051-0.031,0.185-0.035,0.201c-0.024,0.051-0.02,0.145,0.011,0.196
				c0.004,0.024,0.017,0.026,0.036,0.031c-0.004,0.02,0.005,0.028,0.02,0.032c0.012,0.027,0.028,0.031,0.047,0.04
				c0.009,0.012,0.047,0.05,0.047,0.05c0.024,0.005,0.07,0.028,0.074,0.052c0.047,0.008,0.047,0.063,0.082,0.063
				c-0.003,0.039,0.158,0.051,0.186,0.059c0.031-0.004,0.046-0.015,0.062,0.024c0.007,0.004,0.105,0.05,0.109,0.031
				c0.02,0.008,0.255,0.019,0.26,0.008c0.047,0,0.071-0.051,0.114-0.062c0.003-0.012,0.039-0.051,0.055-0.055
				c0.008-0.032,0.047-0.051,0.071-0.062c0.011-0.04,0.02-0.028,0.039-0.063c0.027-0.067,0.071-0.075,0.09-0.129
				c0.021-0.016,0.036-0.012,0.031-0.036c0.036-0.024,0.095-0.2,0.103-0.2c0.008-0.028,0.036-0.04,0.04-0.082
				c0.012,0.003,0.024-0.075,0.032-0.091c0.028,0.004,0.039-0.204,0.039-0.247c0.008-0.064,0.039-0.146,0.035-0.217
				c-0.003-0.036,0.012-0.216-0.02-0.224c0-0.02-0.012-0.133-0.04-0.129c0.005-0.046,0.005-0.094-0.01-0.141
				c-0.056-0.023-0.044-0.114-0.091-0.157c-0.02-0.024-0.055-0.051-0.055-0.094c0.008-0.027-0.016-0.016-0.008-0.047
				c-0.031-0.02-0.047-0.062-0.074-0.09c-0.036-0.051-0.062-0.066-0.09-0.102c-0.02-0.051-0.055-0.098-0.103-0.122
				c0.008-0.024-0.031-0.024-0.035-0.043c-0.035-0.02-0.06-0.035-0.083-0.051c-0.043-0.027-0.117-0.043-0.153-0.051
				c-0.051-0.004-0.075,0.008-0.118-0.004c-0.028,0.004-0.055-0.004-0.094-0.004c-0.031-0.008-0.412-0.023-0.412,0.008
				c-0.019-0.004-0.15-0.012-0.145,0c-0.017-0.004-0.075,0-0.083,0.024c-0.02-0.008-0.097-0.02-0.102-0.012
				c-0.012,0-0.267,0.043-0.385,0.056c-0.003,0.007-0.055,0.023-0.078,0.026c-0.032,0.012-0.055,0.016-0.094,0.02
				c-0.017,0.004-0.146,0.007-0.15,0.016c-0.016-0.004-0.11,0.02-0.114,0.027c-0.063,0-0.113,0.04-0.172,0.036
				c-0.062,0.012-0.137,0.067-0.2,0.059c-0.017,0.024-0.083,0.051-0.11,0.055c-0.004,0.008-0.035,0.016-0.055,0.012
				c0,0.019-0.086,0.031-0.09,0.058c-0.05-0.003-0.05,0.005-0.094,0.021c-0.004,0.008-0.091,0.035-0.099,0.039
				c-0.043,0.008-0.062,0.059-0.103,0.059c-0.015,0.02-0.16,0.102-0.196,0.102c0.004,0.024-0.035,0.02-0.075,0.032
				c-0.019,0.007-0.099,0.042-0.094,0.058c-0.02-0.003-0.075,0.031-0.075,0.031c-0.039,0.012-0.039,0.036-0.05,0.059
				c-0.016,0.035-0.118,0.099-0.138,0.118c-0.043,0-0.066,0.087-0.113,0.083c-0.005,0.008-0.044,0.043-0.056,0.047
				c0.004,0.02-0.016,0.016-0.027,0.043c-0.015,0.004-0.051,0.051-0.051,0.067c-0.043,0.031-0.059,0.046-0.078,0.082
				c-0.02,0.047-0.056,0.07-0.071,0.118c-0.046,0.004-0.051,0.086-0.089,0.098c-0.008,0.016-0.036,0.063-0.04,0.063
				c-0.004,0.026-0.055,0.105-0.103,0.089c-0.078-0.016-0.075-0.137-0.063-0.2c0-0.027-0.019-0.032-0.007-0.075
				c-0.016-0.003-0.016-0.094-0.016-0.113c-0.02,0.007-0.016-0.173-0.012-0.201c-0.011,0-0.031-0.212-0.031-0.219
				c-0.023-0.008-0.003-0.185-0.031-0.185c0.008-0.07-0.023-0.14-0.032-0.216c0.008-0.027,0.024-0.346,0.004-0.349
				c-0.008-0.013-0.012-0.063-0.027-0.067c0.003-0.016-0.012-0.074-0.028-0.091c0.004-0.039-0.047-0.073-0.047-0.113
				c-0.004-0.035-0.012-0.062-0.031-0.082c0-0.008-0.031-0.09-0.055-0.103c0.004-0.02-0.023-0.074-0.047-0.09
				c-0.024-0.036-0.165-0.311-0.177-0.313c-0.023-0.024-0.039-0.083-0.082-0.095c-0.005-0.047-0.09-0.082-0.133-0.117l-0.098-0.024
				l-0.056-0.016c-0.075-0.02-0.24-0.094-0.298-0.016c-0.039,0.008-0.059,0.027-0.086,0.047c-0.027,0.023-0.051,0.071-0.079,0.063
				c-0.024,0.03-0.09,0.066-0.129,0.086c-0.024,0.046-0.072,0.046-0.102,0.074c-0.032,0.028-0.059,0.059-0.095,0.079
				c-0.031,0.023-0.066,0.046-0.094,0.066c0,0.023-0.023,0.047-0.039,0.043c-0.004,0.075-0.141,0.11-0.166,0.161
				c-0.007,0-0.073,0.087-0.07,0.099c-0.047,0.016-0.071,0.102-0.121,0.118c-0.008,0.031-0.02,0.047-0.051,0.067
				c0,0.023-0.035,0.046-0.047,0.055c-0.016,0.093-0.134,0.125-0.165,0.212c-0.024,0.015-0.033,0.074-0.052,0.078
				c-0.003,0.036-0.074,0.074-0.078,0.11c-0.017-0.004-0.04,0.054-0.059,0.066c-0.016,0.031-0.052,0.059-0.056,0.098
				c-0.015-0.004-0.02,0.058-0.054,0.058c-0.009,0.04-0.032,0.062-0.04,0.091c-0.017-0.004-0.063,0.09-0.067,0.102
				c-0.008,0.036-0.051,0.043-0.06,0.083c-0.015,0.008-0.046,0.071-0.059,0.071c-0.008,0.024-0.026,0.074-0.046,0.078
				c-0.024,0.062-0.068,0.083-0.096,0.142c-0.015,0.042-0.07,0.074-0.074,0.118c-0.015,0.007-0.086,0.105-0.093,0.133
				c-0.013-0.003-0.047,0.079-0.055,0.094c-0.028,0.067-0.056,0.103-0.103,0.138c-0.036,0.016-0.086,0.07-0.114,0.062
				c-0.02,0.023-0.039,0.011-0.066,0.046c-0.035,0-0.043,0.02-0.078,0.051c-0.04,0.031-0.091,0.047-0.115,0.083
				c-0.007,0.047-0.02,0.086-0.032,0.134c-0.019,0.059-0.011,0.102-0.015,0.141c0,0.028-0.024,0.059-0.028,0.086
				c-0.026,0-0.054,0.177-0.098,0.177c-0.004,0.024-0.02,0.078-0.04,0.094c-0.003,0.02-0.031,0.051-0.039,0.074
				c-0.024-0.004-0.048,0.137-0.079,0.13c-0.004,0.062-0.075,0.117-0.115,0.188c-0.027,0.004-0.086,0.09-0.094,0.117
				c-0.012-0.008-0.086,0.067-0.09,0.103c-0.019,0.003-0.039,0.046-0.047,0.071c-0.04,0.015-0.043,0.046-0.075,0.07
				c-0.003,0.011-0.031,0.052-0.042,0.047c-0.012,0.07-0.086,0.114-0.11,0.193c-0.04,0.089-0.062,0.129-0.094,0.204
				c-0.028-0.005-0.028,0.121-0.031,0.145c-0.021,0.008-0.033,0.059-0.028,0.078c-0.007,0.091,0.008,0.169,0.008,0.26
				c0.016-0.004,0.024,0.165,0.062,0.192c-0.003,0.027,0.042,0.051,0.064,0.09c0.039,0.011,0.403,0.247,0.435,0.274
				c0.056,0.059,0.122-0.016,0.166-0.023c0.046-0.041,0.085-0.06,0.141-0.099c0.016-0.016,0.047-0.027,0.052-0.046
				c0.007,0,0.004-0.021,0.027-0.024c0.027-0.067,0.062-0.095,0.09-0.161c0.031-0.012,0.027-0.031,0.062-0.055
				c0.008-0.032,0.015-0.028,0.031-0.067c0.024,0.004,0.138-0.239,0.153-0.247c0.004-0.028,0.024-0.052,0.036-0.099
				c0,0,0.039-0.055,0.047-0.074c0.02-0.004,0.031-0.043,0.059-0.059c0.004-0.035,0.032-0.035,0.036-0.067
				c0.007,0,0.05-0.055,0.055-0.079c0.008,0,0.063-0.086,0.078-0.106c0.047-0.039,0.094-0.075,0.146-0.114
				c0.031,0,0.059-0.023,0.094-0.023c0.004-0.016,0.047-0.032,0.058-0.032c0.004-0.015,0.165,0,0.173-0.023
				c0.028-0.004,0.236-0.021,0.24-0.028c0.047,0.012,0.102-0.015,0.166-0.007c0.004-0.008,0.145-0.032,0.16-0.027
				c0.099,0.003,0.232,0.02,0.346,0.027c0,0,0.279,0.015,0.274,0.05c0.062,0.036,0.126,0.13,0.118,0.201
				c-0.008,0.099-0.016,0.2-0.056,0.301c-0.015,0.076-0.026,0.177-0.043,0.279c-0.003,0.129-0.035,0.279-0.011,0.412
				c-0.004,0.083-0.032,0.224,0.043,0.264c-0.004,0.027,0.031,0.071,0.035,0.098c0.023,0.019,0.063,0.082,0.086,0.11
				c0.024,0.031,0.105,0.079,0.149,0.09c0,0.02,0.098,0.067,0.121,0.071c0.04,0.011,0.06,0.027,0.095,0.027
				c0.012,0.004,0.071-0.011,0.074,0c0.028,0.004-0.015,0.016,0.033,0.008c0,0.02,0.101,0.028,0.117,0.02
				c0.004-0.008,0.072-0.015,0.072-0.024c0.035-0.02,0.073-0.039,0.102-0.063c0.047-0.062,0.086-0.089,0.102-0.153
				c0.016-0.023,0.047-0.086,0.055-0.113c0.027-0.012,0.04-0.063,0.047-0.09c0.012-0.04,0.023-0.232,0.051-0.244
				c0.016-0.121,0.012-0.243,0.027-0.377c0.008-0.11-0.02-0.228-0.008-0.329c0.012-0.13,0.051-0.244,0.071-0.361
				c0.015-0.016,0.086-0.157,0.082-0.193c0.016,0.004,0.02,0.004,0.02-0.015c0.024,0.004,0.051,0.004,0.071,0.008
				c0.02,0.024,0.043,0.043,0.055,0.079c0.02,0.027,0.012,0.051,0.043,0.067c0,0.036,0.015,0.016,0.015,0.051
				c0.052,0.043,0.055,0.126,0.106,0.182c0,0.03,0.085,0.184,0.113,0.195c0.008,0.02,0.028,0.004,0.043,0.027
				c-0.004,0.024,0.015,0.048,0.031,0.055c0.007,0.04,0.02,0.04,0.047,0.071c0.047,0.074,0.109,0.114,0.156,0.188
				c0.071,0.028,0.105,0.11,0.173,0.154c0.02,0.05,0.066,0.062,0.094,0.098c0.015,0.04,0.058,0.063,0.07,0.087
				c0.036,0.015,0.055,0.031,0.074,0.07c0.02,0.016,0.063,0.067,0.091,0.075c0.039,0.026,0.071,0.036,0.102,0.086
				c0.02,0.008,0.051,0.036,0.063,0.059c0.008,0.004,0.047,0.021,0.055,0.024c0.004,0.027,0.043,0.055,0.062,0.062
				c0.016,0.043,0.074,0.027,0.087,0.071c0.019,0.004,0.066,0.04,0.062,0.047c0.02,0.008,0.114,0.051,0.109,0.071
				c0.041,0,0.06,0.066,0.103,0.07c0,0.02,0.059,0.043,0.075,0.047c0,0,0.153,0.052,0.145,0.071
				c0.043,0.012,0.051,0.055,0.086,0.059c-0.004,0.015,0.087,0.031,0.103,0.031c-0.003,0.031,0.086,0.055,0.098,0.059
				c0.047,0.008,0.059,0.03,0.113,0.05c0.056,0.013,0.099,0.048,0.159,0.064c0.034,0.02,0.043,0.031,0.078,0.039
				c0.004,0.02,0.09,0.024,0.102,0.02c0.04,0.009,0.059,0.036,0.094,0.032c0.04,0.012,0.094,0.028,0.146,0.031
				c0.11,0.02,0.216,0.059,0.31,0.071c0.071-0.003,0.138-0.003,0.204-0.003c0.047,0.007,0.07,0,0.103-0.004
				c0.062,0.004,0.102-0.027,0.165-0.032c0.059-0.015,0.114-0.07,0.165-0.11c0.043-0.039,0.087-0.05,0.125-0.09
				c0.04-0.02,0.04-0.063,0.083-0.094c0.023-0.012,0.059-0.043,0.059-0.067c0.008,0.004,0.094-0.106,0.094-0.113
				c0.027-0.024,0.079-0.103,0.086-0.134c0.017,0.004,0.048-0.071,0.052-0.086c0.011-0.028,0.042-0.067,0.042-0.083
				c0.028,0.003,0.075-0.138,0.13-0.122c0.004-0.007,0.074,0.02,0.074,0.043c0.024,0.027,0.028,0.046,0.059,0.075
				c-0.004,0.016,0.027,0.083,0.042,0.083c0.023,0.028,0.055,0.098,0.087,0.105c0.019,0.024,0.055,0.036,0.055,0.079
				c0.016,0.016,0.004,0.02,0.027,0.047c0.005,0.012,0.043,0.04,0.056,0.043c0.031,0.043,0.075,0.074,0.098,0.11
				c0.024,0.007,0.028,0.032,0.043,0.055c0.024,0.015,0.042,0.012,0.047,0.031c0.023,0.008,0.082,0.051,0.098,0.078
				c0.011,0.016,0.051,0.063,0.078,0.059c0.02,0.07,0.362,0.188,0.384,0.208c0.072,0.027,0.153,0.059,0.236,0.07
				c-0.012,0.032,0.208,0.047,0.232,0.043c0.149,0.02,1.346,0.048,1.354-0.02c0.063,0.005,0.381-0.118,0.425-0.13
				c0.062-0.007,0.185-0.298,0.192-0.326c0.02,0.004,0.099-0.499,0.11-0.596c-0.012-0.055-0.04-0.105-0.094-0.13
				c-0.004-0.035-0.043-0.051-0.056-0.086c-0.054-0.071-0.137-0.157-0.078-0.224c0.016-0.02,0.078-0.031,0.078-0.051
				c0.035,0.008,0.075-0.024,0.114-0.024c0.063-0.024,0.118-0.031,0.181-0.035c0.003-0.009,0.156-0.072,0.18-0.104
				c0.004-0.062,0.098-0.141,0.133-0.165c0.024-0.012,0.047-0.04,0.047-0.067c0.039-0.003,0.074-0.196,0.083-0.244
				c-0.004-0.05,0.004-0.118,0.011-0.172c0-0.035-0.003-0.063-0.003-0.106c0.003-0.039,0.011-0.109-0.021-0.137
				c0-0.02-0.208-0.443-0.204-0.467c-0.027-0.02-0.03-0.066-0.07-0.078c0.004-0.008-0.047-0.04-0.056-0.04
				c-0.003,0-0.058-0.047-0.062-0.066c-0.011,0.008-0.078-0.027-0.078-0.027c-0.079-0.032-0.166-0.043-0.216,0.023
				c-0.028,0.004-0.216,0.024-0.216,0.024c-0.027-0.004-0.25,0.004-0.271,0c-0.02-0.004-0.14-0.016-0.145,0.004
				c-0.039-0.011-0.071,0-0.118-0.011c-0.089-0.024-0.173-0.048-0.255-0.059c-0.074-0.012-0.125-0.023-0.192-0.016
				c-0.015-0.005-0.118-0.024-0.118-0.031c-0.09-0.016-0.169-0.043-0.255-0.06c-0.051-0.058-0.059-0.102-0.043-0.176
				c0.008-0.039,0.142-0.184,0.15-0.227c0.017,0.004,0.017-0.04,0.031-0.043c0.02-0.028,0.066-0.067,0.063-0.086
				c0.067-0.047,0.102-0.056,0.161-0.099c0.047-0.024,0.047-0.05,0.098-0.059c0-0.012,0.546-0.02,0.589-0.016
				c0.094,0,0.129-0.02,0.228-0.023c0,0,0.314,0.019,0.358,0.023c0,0,0.271-0.004,0.298,0.004c0.031,0,0.192,0.024,0.188,0
				c0.06,0,0.118,0,0.169,0.004c0.04,0.008,0.071,0.021,0.13,0.016c0.051-0.008,0.082-0.012,0.134,0.004
				c0.02,0.003,0.066,0.003,0.103-0.008c0.039,0.004,0.302,0.031,0.346,0.02c0.058-0.011,0.141,0.012,0.196,0.024
				c0.003-0.02,0.063-0.012,0.078-0.008c0.036,0.008,0.06,0.024,0.114,0.02c0.043-0.012,0.079-0.012,0.126,0
				c0.047,0.004,0.083-0.008,0.137-0.003c0.055,0.007,0.11,0.023,0.172,0.003c0.098,0.017,0.396,0.074,0.475,0.098
				c0.066,0.027,0.114,0.04,0.189,0.047c0.035,0.004,0.04-0.008,0.083,0.011c0.035,0.021,0.094-0.007,0.133-0.026
				c0.043-0.016,0.056-0.056,0.056-0.094C82.375,131.65,82.404,131.045,82.408,131.018 M77.826,133.926
				c0,0.032,0.279,0.012,0.346,0.051l0.208,0.051c0.012-0.004,0.063-0.011,0.059,0.008c0.047,0.024,0.075,0.039,0.122,0.055
				c0.043,0,0.07,0.031,0.106,0.027c0.031-0.003,0.066-0.003,0.105,0.016c0.024,0.016,0.032,0.063,0.027,0.09
				c-0.003,0.02-0.007,0.062-0.023,0.075c-0.016,0.02-0.644,0.027-0.667,0.02c0,0.042-0.68-0.005-0.754-0.005
				c-0.016-0.008-0.082-0.012-0.082-0.035c-0.048,0-0.146-0.003-0.146-0.036c-0.031,0-0.011-0.024-0.035-0.031
				c0-0.02-0.039-0.02-0.059-0.024c-0.008-0.004-0.083-0.043-0.079-0.06c-0.042-0.026-0.172-0.121-0.152-0.176
				c0.02-0.051,0.055-0.078,0.102-0.106c0.059-0.028,0.09-0.019,0.158-0.004c0.003-0.015,0.109,0.032,0.125,0.035
				c0.015,0.004,0.063,0.008,0.066,0.02"/>
			<path fill="#FFFFFF" d="M44.135,130.35c-0.02-0.015-0.055-0.046-0.067-0.07c-0.039-0.02-0.023-0.087-0.062-0.09
				c-0.023-0.024-0.036-0.047-0.055-0.082c-0.074-0.021-0.074-0.138-0.152-0.166c-0.041-0.012-0.048-0.043-0.094-0.056
				c0-0.011-0.052-0.058-0.06-0.058c-0.023-0.036-0.051-0.036-0.082-0.072c-0.008-0.003-0.075-0.058-0.075-0.073
				c-0.039-0.012-0.043-0.024-0.094-0.024c-0.027-0.035-0.062-0.133-0.102-0.141c-0.008-0.008-0.067-0.056-0.083-0.052
				c-0.02-0.047-0.051-0.066-0.074-0.102c-0.036-0.052-0.047-0.086-0.075-0.122c-0.03-0.031-0.085-0.079-0.082-0.114
				c-0.023-0.008-0.011-0.086,0.004-0.105c0.011-0.016,0.039-0.04,0.062-0.052c0.024-0.026,0.051-0.05,0.058-0.078
				c0.017,0.004,0.149-0.114,0.173-0.137c0.028-0.036,0.043-0.051,0.09-0.082c0.004-0.021,0.008-0.041,0.036-0.048
				c0.008-0.023,0.028-0.086,0.047-0.082c0.007-0.043,0.067-0.062,0.082-0.106c0.017-0.042,0.072-0.07,0.075-0.129
				c0.019,0.004,0.074-0.138,0.082-0.169c0.024,0.007,0.008-0.129,0.036-0.129c0-0.013,0.02-0.067,0.032-0.079
				c0.02-0.043,0.039-0.051,0.039-0.087c0.008-0.043,0.036-0.074,0.047-0.118c0.009,0.004,0.032-0.048,0.032-0.059
				c0.02-0.008,0.026-0.083,0.026-0.11c0.008-0.056,0.008-0.118,0.016-0.188c0.012-0.036-0.008-0.051,0.005-0.102
				c-0.009,0,0.03-0.146-0.005-0.158c0.005-0.066-0.016-0.113-0.019-0.18c-0.004,0-0.024-0.119-0.032-0.138
				c-0.008-0.003-0.016-0.087-0.016-0.117c0,0-0.023-0.059-0.023-0.067c-0.035,0-0.008-0.188-0.055-0.192
				c0.008-0.028-0.047-0.067-0.047-0.102c-0.015-0.008-0.109-0.228-0.113-0.279c-0.016,0.004-0.032-0.059-0.043-0.087
				c-0.017-0.031-0.094-0.105-0.087-0.133c-0.026-0.028-0.051-0.094-0.087-0.106c-0.031-0.051-0.058-0.055-0.118-0.094
				c-0.067-0.02-0.035-0.059-0.075-0.091c-0.046-0.043-0.055-0.055-0.109-0.07c0-0.031-0.173-0.035-0.165-0.062
				c-0.09-0.004-0.169-0.062-0.255-0.079c0.004-0.008-0.066-0.035-0.078-0.04l-0.087-0.024c-0.008-0.027-0.027-0.015-0.043-0.023
				c0.008-0.032-0.133-0.078-0.156-0.083c0,0-0.201-0.055-0.229-0.051c-0.039-0.012-0.271-0.02-0.275,0.02
				c-0.032,0.004-0.032,0.008-0.07,0c-0.004,0.012-0.106,0.004-0.126,0.008c-0.004,0.02-0.141,0.012-0.145,0.035
				c-0.04,0-0.106,0.024-0.153,0.063c-0.02,0.024-0.075,0.063-0.102,0.067c-0.024,0.031-0.087,0.047-0.087,0.086
				c-0.094,0.047-0.118,0.188-0.188,0.271c-0.059,0.079-0.082,0.13-0.09,0.235c-0.004,0.09-0.024,0.142-0.008,0.239
				c0.004,0.043,0.008,0.086,0.004,0.118c0.008,0.005,0.023,0.063,0.023,0.09c0.008,0,0.032,0.063,0.043,0.08
				c0.004,0.011,0.024,0.059,0.04,0.07c0,0.012,0.055,0.11,0.062,0.122c0.016,0.024,0.055,0.059,0.059,0.086
				c0,0.012,0.012,0.109-0.008,0.102c-0.004,0.027-0.024,0.047-0.032,0.083c-0.04,0-0.083,0.146-0.083,0.166
				c-0.021,0.004-0.051,0.16-0.074,0.165c-0.008,0.114-0.114,0.177-0.141,0.283c-0.017,0.059-0.036,0.094-0.04,0.121
				c-0.011-0.004-0.027,0.035-0.031,0.047c-0.008-0.004-0.028,0.04-0.04,0.051c-0.008,0.036-0.055,0.043-0.074,0.083
				c-0.024-0.008-0.043-0.004-0.07,0c-0.005,0.02-0.06,0.004-0.071,0c0,0.012-0.08,0.012-0.099,0.008c0,0-0.071,0.039-0.082,0.055
				c-0.024,0.047-0.017,0.094-0.07,0.11c-0.04,0.02-0.064,0.02-0.076,0.071l-0.043,0.153c-0.015,0.035-0.015,0.098-0.015,0.149
				c-0.015,0.047-0.031,0.105-0.031,0.157c0,0.062,0.012,0.118,0.024,0.161c-0.004,0.04,0.023,0.059,0.016,0.087
				c0.028,0.019,0.047,0.086,0.047,0.113c0.036,0.032,0.055,0.059,0.066,0.09c0.013,0.005,0.036,0.075,0.056,0.078
				c-0.012,0.047-0.012,0.091-0.02,0.138c-0.012,0.008-0.055,0.285-0.058,0.306c-0.024,0.114-0.067,0.212-0.079,0.307
				c-0.004,0.031-0.051,0.219-0.063,0.215c-0.007,0.094-0.023,0.201-0.039,0.303c0,0-0.048,0.09-0.024,0.098
				c-0.004,0.066-0.012,0.125-0.015,0.2c0.003,0,0.035,0.153,0.035,0.181c0.011,0.003,0.02,0.054,0.016,0.078
				c0.004,0,0.04,0.058,0.035,0.079c0.04,0.026,0.024,0.07,0.059,0.089c-0.004,0.032,0.043,0.063,0.067,0.08
				c0.058,0.07,0.09,0.172,0.18,0.195c0.082,0.02,0.244,0.028,0.231,0.059c0.036,0.008,0.062,0.008,0.095,0
				c0.062,0.016,0.097,0.028,0.168-0.003c0.003-0.016,0.051-0.087,0.071-0.094c0.004-0.031,0.039-0.04,0.046-0.067
				c0.032-0.004,0.028-0.078,0.051-0.078c0.004-0.035,0.035-0.056,0.04-0.082c0.012,0,0.02-0.245,0.028-0.275
				c-0.036,0.007,0.003-0.205,0-0.224c0.003-0.052-0.004-0.11,0.003-0.166c-0.003-0.027-0.016-0.086-0.011-0.125
				c0.008-0.059,0.016-0.11,0.011-0.169c-0.003-0.047-0.011-0.099,0-0.126c0.016,0.004,0.079-0.196,0.079-0.216
				c0.02,0.008,0.098-0.13,0.103-0.157c0.031,0,0.055-0.059,0.098-0.066c0.046,0.004,0.046,0.004,0.09,0.055
				c0.024,0.024,0.055,0.106,0.098,0.11c0.016,0.031,0.062,0.09,0.089,0.114c0.028,0.036,0.068,0.027,0.087,0.062
				c0.016,0.02,0.047,0.047,0.074,0.051c0.02,0.063,0.114,0.083,0.146,0.154c0.026-0.004,0.082,0.051,0.09,0.086
				c0.023,0.035,0.066,0.059,0.102,0.087c0.004,0.027,0.051,0.039,0.071,0.07c0.042,0.031,0.059,0.07,0.09,0.098
				c0.024,0.027,0.055,0.098,0.091,0.098c0.011,0.031,0.05,0.094,0.078,0.114c0.017,0.024,0.059,0.042,0.059,0.074
				c0.04,0.016,0.04,0.063,0.071,0.091c0.024,0.034,0.058,0.113,0.099,0.118c-0.012,0.039,0.055,0.078,0.066,0.109
				c0.04,0.043,0.067,0.091,0.102,0.13c0.031,0.007,0.066,0.071,0.09,0.094c0.043,0.016,0.051,0.086,0.094,0.09
				c0.009,0.012,0.056,0.043,0.08,0.051c0.071,0.015,0.102,0.071,0.188,0.078c0.027-0.003,0.197,0.024,0.197-0.003
				c0.042,0.008,0.165-0.043,0.179-0.09c0.028-0.012,0.052-0.016,0.08-0.02c0.019-0.023,0.062-0.047,0.066-0.083
				c0.012-0.023,0.031-0.046,0.039-0.043c0.008-0.036,0.067-0.056,0.067-0.086c0.027-0.012,0.099-0.066,0.099-0.086
				c0.015-0.013,0.043-0.005,0.055-0.047c0.062-0.036,0.083-0.106,0.09-0.169c0.008-0.102,0.02-0.236,0.031-0.342
				C44.155,130.457,44.139,130.369,44.135,130.35 M42.776,127.12c-0.011,0.047-0.031,0.074-0.035,0.114
				c-0.004,0-0.055,0.067-0.055,0.079c-0.02,0.004-0.063,0.055-0.067,0.074c-0.015,0.012-0.055,0.06-0.055,0.06
				c-0.023,0.046-0.071,0.074-0.106,0.089c-0.035,0.036-0.089,0.114-0.129,0.114c-0.004,0.008-0.023,0.003-0.027,0.02
				c-0.032,0.003-0.051,0.031-0.075,0.054c-0.012-0.003-0.078,0.043-0.09,0.047c-0.02,0.016-0.047,0.028-0.067,0.036
				c-0.04,0-0.083,0.008-0.138-0.004c-0.035-0.012-0.031-0.062-0.02-0.098c-0.024-0.008,0.044-0.236,0.051-0.263
				c0.008-0.043,0.036-0.066,0.036-0.094c0.027-0.008,0.015-0.14,0.043-0.133 M42.089,126.947c0.031-0.063,0.02-0.13,0.02-0.212
				c0.008-0.028,0.051-0.181,0.059-0.181c0-0.039,0.07-0.102,0.114-0.134c0.078,0.012,0.118,0.067,0.192,0.074
				c0,0.008,0.113,0.083,0.141,0.087c0.027,0.051,0.079,0.074,0.103,0.122c0.036-0.004,0.039,0.043,0.066,0.063
				c-0.003,0.016,0.009,0.074,0.021,0.074"/>
			<path fill="#446C33" d="M42.804,126.841c-0.011,0-0.024-0.059-0.021-0.075c-0.027-0.02-0.03-0.067-0.066-0.063
				c-0.024-0.047-0.075-0.07-0.103-0.122c-0.028-0.003-0.141-0.078-0.141-0.086c-0.074-0.008-0.114-0.062-0.192-0.074
				c-0.043,0.032-0.114,0.094-0.114,0.134c-0.008,0-0.051,0.153-0.059,0.18c0,0.083,0.011,0.15-0.02,0.212
				c0.008,0.024-0.008,0.157-0.015,0.153c-0.017,0.042-0.027,0.059-0.031,0.114c-0.028-0.007-0.017,0.125-0.043,0.134
				c0,0.027-0.028,0.051-0.036,0.094c-0.008,0.027-0.075,0.255-0.051,0.263c-0.011,0.035-0.016,0.086,0.02,0.098
				c0.055,0.012,0.098,0.004,0.137,0.004c0.02-0.007,0.047-0.02,0.067-0.031c0.012-0.008,0.078-0.055,0.09-0.052
				c0.023-0.023,0.042-0.051,0.074-0.054c0.004-0.016,0.024-0.012,0.028-0.02c0.039,0,0.094-0.079,0.129-0.114
				c0.035-0.016,0.083-0.044,0.105-0.09c0,0,0.04-0.048,0.055-0.059c0.004-0.02,0.048-0.071,0.067-0.074
				c0-0.012,0.051-0.079,0.056-0.079c0.004-0.04,0.023-0.067,0.035-0.114c0.032,0,0.04-0.114,0.036-0.134
				C42.82,126.923,42.816,126.892,42.804,126.841"/>
			<path fill="#446C33" d="M69.371,131.469c-0.036,0.008-0.149-0.004-0.142-0.043c-0.074-0.07-0.015-0.145,0.024-0.228
				c0.008,0,0.024-0.047,0.028-0.055c0.024,0.003,0.035-0.075,0.054-0.071c0-0.027,0.052-0.11,0.083-0.121
				c0.008-0.036,0.047-0.067,0.051-0.11c0.026,0,0.043-0.102,0.066-0.114c0.008-0.031,0.054-0.059,0.063-0.09
				c0.023-0.042,0.043-0.047,0.055-0.085c0,0,0.075-0.104,0.082-0.118c0.024-0.004,0.008-0.043,0.028-0.06
				c0.008-0.034,0.103-0.051,0.134-0.015c0.046,0.027,0.042,0.129,0.042,0.169c-0.003,0.039-0.016,0.306,0.004,0.294
				c-0.007,0.043-0.031,0.282-0.046,0.279c-0.013,0.09-0.04,0.141-0.048,0.2c-0.031,0.016-0.012,0.051-0.043,0.056
				c-0.007,0.027-0.067,0.074-0.079,0.078"/>
		</g>
	</g>
</g>
</svg>
