<?xml version="1.0" encoding="utf-8"?>
<!-- Generator: Adobe Illustrator 17.1.0, SVG Export Plug-In . SVG Version: 6.00 Build 0)  -->
<!DOCTYPE svg PUBLIC "-//W3C//DTD SVG 1.1 Tiny//EN" "http://www.w3.org/Graphics/SVG/1.1/DTD/svg11-tiny.dtd">
<svg version="1.1" baseProfile="tiny" id="Layer_1" xmlns="http://www.w3.org/2000/svg" xmlns:xlink="http://www.w3.org/1999/xlink"
	 x="0px" y="0px" viewBox="0 0 392 304" overflow="scroll" xml:space="preserve">
<g id="SHIPS_LOGOS">
	<g id="Simplified_logos_copy">
		<g id="Layer_37_copy">
			<g id="Mono_left_copy_2">
				<g>
					<g>
						<g id="antennaes_3_">
							<polygon fill="#46803C" points="152.5,117.1 175.1,42.8 181.6,43.2 167,118 							"/>
							<polygon fill="#46803C" points="178.8,116.6 164.2,117.3 177.6,38.3 188.1,43.6 							"/>
							<polygon fill="#46803C" points="180.9,24 192.3,24.7 188.7,43.6 179.8,43.1 							"/>
							<polygon fill="#46803C" points="170.4,23.4 180.9,24 181.5,43.2 173.8,42.7 							"/>
						</g>
					</g>
					<path id="Poop_deck_4_" fill="#46803C" d="M16.3,170.5c5.3,2.1,90.4,5,95.3,4.8c4.9-0.1,19.8,11.4,27.4,14c7.6,2.6,9,2,9,2
						l95-1c0,0,4.2,3.8,13.5,7.3c9.4,3.6,75.1-5.2,75.1-5.2s6.8-8.3,6.8-9.7c0.1-1.4,0.1-1.4,0.1-1.4l38-5.7c0,0-45.5-6.8-56.4-7.1
						l-305,1.8"/>
					<polygon fill="#46803C" points="205.4,182.3 188.8,187.5 186.2,184 147.1,185.1 144.6,181.6 130.5,184.1 111.5,176.8 
						103.2,179.1 86.6,175.3 60.2,180.3 97.5,122.7 105,121.3 111.2,110.2 201.5,115.5 					"/>
					<path id="BOAT_BOTTOM__x5F_BASIC_6_" fill="#46803C" d="M15.7,167.5c0-0.3,0.6-0.3,1.1-0.4c9.1-0.9,90.6,5.3,95.3,5.2
						c4.9-0.1,19.8,11.4,27.4,14c7.6,2.6,9,2,9,2l95-1c0,0,4.2,3.8,13.5,7.3c9.4,3.6,75.1-5.2,75.1-5.2s6.8-8.3,6.8-9.7
						c0.1-1.4,0.1-1.4,0.1-1.4l38-5.7c0,0-4.7,29.7-12.4,39.7c-7.6,9.9-17.8,20.5-17.8,20.5s-202.7,60.9-286.4,26.6
						C60.5,259.5,15.8,183.5,15.7,167.5z"/>
				</g>
			</g>
		</g>
	</g>
</g>
</svg>
