<?xml version="1.0" encoding="utf-8"?>
<!-- Generator: Adobe Illustrator 17.1.0, SVG Export Plug-In . SVG Version: 6.00 Build 0)  -->
<!DOCTYPE svg PUBLIC "-//W3C//DTD SVG 1.1 Tiny//EN" "http://www.w3.org/Graphics/SVG/1.1/DTD/svg11-tiny.dtd">
<svg version="1.1" baseProfile="tiny" id="Layer_1" xmlns="http://www.w3.org/2000/svg" xmlns:xlink="http://www.w3.org/1999/xlink"
	 x="0px" y="0px" viewBox="0 0 340 278" overflow="scroll" xml:space="preserve">
<g id="SHIPS_LOGOS">
	<g id="Monocrhome_-left_copy_2_1_">
		<g>
			<polygon fill="#46803C" points="224.9,29.6 215.9,100.3 206.8,99.5 218.1,31 			"/>
			<path fill="#46803C" d="M243.8,119.1l0.6-0.6l-17.3-17.3l-0.2,0c-42-8.1-79.7,5.3-80,5.5l-1.4,1.7c0.4-0.1,39.4-14.3,81.1-6.3
				L243.8,119.1z"/>
			<g>
				<path fill="#46803C" d="M228.7,156.9"/>
				<path fill="#46803C" d="M147.2,105.5"/>
				<path fill="#46803C" d="M299.9,190.5c0,0-52.2-10.7-189.5-75.3c0,0-69.4,2.1-74.3,22.4c0,0,36.4,50.4,36.4,59.6
					c0,9.2,0.2,20,7.2,29.5c0,0,85,36.6,215.1-3.3l4.9-8.5L299.9,190.5z"/>
				<path fill="#46803C" d="M300.5,190.5c0,0-52-12.5-189.3-77c0,0-54.8-6.7-59.6,13.5c0,0,23.6,57.6,23.6,66.8
					c0,9.2-1.8,23.3,5.1,32.8c0,0,85.1,36.6,215.1-3.3l4.9-8.5L300.5,190.5z"/>
			</g>
			<path fill="#46803C" d="M302.1,184.9c0,0-36.8-6-103.5-46.5C131.9,98,57.1,87.7,29.4,124.5l6.7,13.1c0,0,28.3-35.1,115.3-2.9
				c86.9,32.2,63.3,35.7,150.7,57L302.1,184.9L302.1,184.9z"/>
		</g>
		<path fill="#FFFFFF" d="M234.4,126.7"/>
		<path fill="#FFFFFF" d="M224.9,126.7"/>
		<polygon fill="#46803C" points="226.7,102 255.1,122.4 264.1,175.7 215.5,182.8 228.7,160.2 231.8,118.5 231.9,116.4 		"/>
	</g>
</g>
</svg>
